<svg width="1847.138720703125px" height="190.3824951171875px" xmlns="http://www.w3.org/2000/svg" viewBox="-673.5693603515625 -20.191247558593744 1847.138720703125 190.3824951171875" style="background: rgba(0, 0, 0, 0);" preserveAspectRatio="xMidYMid"><defs><linearGradient id="editing-shiny-gradient" x1="0.4912737967813583" x2="0.5087262032186417" y1="0.00007615242180436521" y2="0.9999238475781956" gradientUnits="objectBoundingBox"><stop offset="0.0" stop-color="#081c24"></stop><stop offset="0.5" stop-color="#000000"></stop><stop offset="1.0" stop-color="#01d277"></stop></linearGradient><linearGradient id="editing-shiny-gradient2" x1="0" x2="0" y1="0" y2="1"><stop offset="0.2" stop-color="#fff" stop-opacity="0.8"></stop><stop offset="0.8" stop-color="#fff" stop-opacity="0"></stop></linearGradient><filter id="editing-shiny2" x="-100%" y="-100%" width="300%" height="300%"><feMorphology operator="erode" radius="2"></feMorphology></filter><filter id="editing-shiny" x="-100%" y="-100%" width="300%" height="300%"><feFlood flood-color="#fff" result="flood"></feFlood><feConvolveMatrix in="SourceGraphic" result="conv" order="8,8" divisor="1" kernelMatrix="0 0 0 0 0 0 0 0 0 0 0 1 1 0 0 0 0 0 0 1 1 0 0 0 0 0 1 0 0 1 0 0 0 0 1 0 0 1 0 0 0 1 0 0 0 0 1 0 0 1 1 0 0 1 1 0 0 0 0 1 1 0 0 0 "></feConvolveMatrix><feOffset dx="0" dy="4" in="conv" result="offset"></feOffset><feComposite operator="in" in="flood" in2="offset" result="comp"></feComposite><feGaussianBlur in="offset" stdDeviation="3" result="shadow"></feGaussianBlur><feColorMatrix in="shadow" type="matrix" values="0.7 0 0 0 0  0 0.7 0 0 0  0 0 0.7 0 0  0 0 0 0.3 0" result="dark-shadow"></feColorMatrix><feOffset dx="0" dy="4" in="dark-shadow" result="offset-shadow"></feOffset><feOffset dx="0" dy="2" in="conv" result="offset-2"></feOffset><feComposite operator="out" in="offset" in2="offset-2" result="edge-diff"></feComposite><feGaussianBlur in="edge-diff" stdDeviation="1" result="edge-blur"></feGaussianBlur><feColorMatrix in="edge-blur" result="edge-shadow" type="matrix" values="0 0 0 0 0  0 0 0 0 0  0 0 0 0 0  0 0 0 0.5 0"></feColorMatrix><feComposite operator="in" in="edge-shadow" in2="offset" result="edge-shadow-in"></feComposite><feOffset dx="0" dy="1" in="edge-shadow-in" result="edge-shadow-final"></feOffset><feMerge result="out"><feMergeNode in="offset-shadow"></feMergeNode><feMergeNode in="comp"></feMergeNode><feMergeNode in="edge-shadow-final"></feMergeNode><feMergeNode in="SourceGraphic"></feMergeNode></feMerge></filter></defs><g filter="url(#editing-shiny)"><g transform="translate(-421.87722158432007, 124.56124877929688)"><path d="M19.52-70.53L19.52-36.75L19.52-36.75Q19.52-29.38 20.48-24.26L20.48-24.26L20.48-24.26Q21.44-19.14 23.26-15.84L23.26-15.84L23.26-15.84Q25.07-12.54 27.61-10.91L27.61-10.91L27.61-10.91Q30.15-9.28 33.30-9.00L33.30-9.00L33.30 0.48L33.30 0.48Q27.47 0.10 22.73-2.34L22.73-2.34L22.73-2.34Q17.99-4.79 14.74-9.33L14.74-9.33L14.74-9.33Q11.48-13.88 9.67-20.48L9.67-20.48L9.67-20.48Q7.85-27.08 7.85-35.60L7.85-35.60L7.85-70.53L19.52-70.53ZM51.11-70.53L62.69-70.53L62.69-35.60L62.69-35.60Q62.69-27.08 60.87-20.48L60.87-20.48L60.87-20.48Q59.05-13.88 55.75-9.33L55.75-9.33L55.75-9.33Q52.45-4.79 47.76-2.34L47.76-2.34L47.76-2.34Q43.07 0.10 37.23 0.48L37.23 0.48L37.23-9.00L37.23-9.00Q40.39-9.38 42.92-10.96L42.92-10.96L42.92-10.96Q45.46-12.54 47.28-15.79L47.28-15.79L47.28-15.79Q49.10-19.04 50.10-24.17L50.10-24.17L50.10-24.17Q51.11-29.29 51.11-36.75L51.11-36.75L51.11-70.53ZM90.25-74.36L90.25-16.46L90.25-16.46Q90.25-13.21 91.11-11.34L91.11-11.34L91.11-11.34Q91.97-9.47 93.50-8.57L93.50-8.57L93.50-8.57Q95.03-7.66 97.00-7.37L97.00-7.37L97.00-7.37Q98.96-7.08 101.25-7.08L101.25-7.08L101.25 0L101.25 0Q100.01 0.19 98.67 0.29L98.67 0.29L98.67 0.29Q97.62 0.38 96.18 0.43L96.18 0.43L96.18 0.43Q94.75 0.48 93.31 0.48L93.31 0.48L93.31 0.48Q91.88 0.48 90.44 0.38L90.44 0.38L90.44 0.38Q89.00 0.29 87.86 0.10L87.86 0.10L87.86 0.10Q84.60-0.57 82.78-2.78L82.78-2.78L82.78-2.78Q80.96-4.98 80.01-7.70L80.01-7.70L80.01-7.70Q79.05-10.43 78.81-13.02L78.81-13.02L78.81-13.02Q78.57-15.60 78.57-17.04L78.57-17.04L78.57-18.18L78.57-74.36L90.25-74.36ZM128.91-46.13L128.91-16.37L128.91-16.37Q128.91-13.11 129.77-11.29L129.77-11.29L129.77-11.29Q130.63-9.47 132.21-8.52L132.21-8.52L132.21-8.52Q133.79-7.56 135.75-7.32L135.75-7.32L135.75-7.32Q137.72-7.08 139.92-7.08L139.92-7.08L139.92 0L139.92 0Q138.67 0.19 137.43 0.29L137.43 0.29L137.43 0.29Q136.38 0.38 134.89 0.43L134.89 0.43L134.89 0.43Q133.41 0.48 131.97 0.48L131.97 0.48L131.97 0.48Q130.54 0.48 129.06 0.38L129.06 0.38L129.06 0.38Q127.57 0.29 126.52 0.10L126.52 0.10L126.52 0.10Q123.27-0.48 121.45-2.73L121.45-2.73L121.45-2.73Q119.63-4.98 118.72-7.70L118.72-7.70L118.72-7.70Q117.81-10.43 117.57-13.02L117.57-13.02L117.57-13.02Q117.33-15.60 117.33-17.04L117.33-17.04L117.33-46.13L110.25-46.13L110.25-53.98L117.33-53.98L117.33-69.29L128.91-69.29L128.91-53.98L137.53-53.98L137.53-46.13L128.91-46.13ZM165.09-53.98L165.09 0L153.41 0L153.41-53.98L165.09-53.98ZM166.14-71.20L166.14-71.20L166.14-71.20Q166.14-68.33 164.13-66.37L164.13-66.37L164.13-66.37Q162.12-64.41 159.25-64.41L159.25-64.41L159.25-64.41Q156.38-64.41 154.42-66.42L154.42-66.42L154.42-66.42Q152.46-68.43 152.46-71.20L152.46-71.20L152.46-71.20Q152.46-74.07 154.46-76.08L154.46-76.08L154.46-76.08Q156.47-78.09 159.25-78.09L159.25-78.09L159.25-78.09Q162.12-78.09 164.13-76.08L164.13-76.08L164.13-76.08Q166.14-74.07 166.14-71.20ZM181.36-53.98L191.79-53.98L193.03-48.43L193.03 0L181.36 0L181.36-53.98ZM236.96-54.55L236.96-54.55L236.96-54.55Q240.21-54.55 243.09-53.26L243.09-53.26L243.09-53.26Q245.96-51.97 248.11-49.57L248.11-49.57L248.11-49.57Q250.26-47.18 251.46-43.88L251.46-43.88L251.46-43.88Q252.66-40.58 252.66-36.75L252.66-36.75L252.66 0L241.17 0L241.17-29.38L241.17-29.38Q241.17-32.63 241.12-35.55L241.12-35.55L241.12-35.55Q241.08-38.47 240.50-40.77L240.50-40.77L240.50-40.77Q239.93-43.07 238.64-44.36L238.64-44.36L238.64-44.36Q237.34-45.65 234.66-45.65L234.66-45.65L234.66-45.65Q233.99-45.65 231.79-45.36L231.79-45.36L231.79-45.36Q229.59-45.08 226.72-43.74L226.72-43.74L226.72-51.30L226.72-51.30Q229.30-52.83 231.98-53.69L231.98-53.69L231.98-53.69Q234.66-54.55 236.96-54.55ZM220.40-47.18L220.40-47.18L220.40-47.18Q221.55-45.46 222.08-43.50L222.08-43.50L222.08-43.50Q222.61-41.54 222.75-39.43L222.75-39.43L222.75-39.43Q222.89-37.32 222.84-35.08L222.84-35.08L222.84-35.08Q222.80-32.83 222.80-30.34L222.80-30.34L222.80 0L211.22 0L211.22-29.38L211.22-29.38Q211.22-32.63 211.22-35.55L211.22-35.55L211.22-35.55Q211.22-38.47 210.64-40.77L210.64-40.77L210.64-40.77Q210.07-43.07 208.73-44.36L208.73-44.36L208.73-44.36Q207.39-45.65 204.80-45.65L204.80-45.65L204.80-45.65Q203.66-45.65 201.41-45.22L201.41-45.22L201.41-45.22Q199.16-44.79 196.96-43.74L196.96-43.74L196.96-51.30L196.96-51.30Q199.25-52.64 201.89-53.50L201.89-53.50L201.89-53.50Q204.52-54.36 207.10-54.36L207.10-54.36L207.10-54.36Q211.50-54.36 214.52-52.54L214.52-52.54L214.52-52.54Q217.53-50.72 220.40-47.18ZM278.50-16.27L278.50-16.27L278.50-16.27Q278.50-11.96 280.27-9.86L280.27-9.86L280.27-9.86Q282.04-7.75 285.39-7.37L285.39-7.37L285.39 0.38L285.39 0.38Q285.00 0.48 284.14 0.48L284.14 0.48L284.14 0.48Q280.89 0.48 277.87-0.38L277.87-0.38L277.87-0.38Q274.86-1.24 272.56-3.16L272.56-3.16L272.56-3.16Q270.27-5.07 268.97-8.23L268.97-8.23L268.97-8.23Q267.68-11.39 267.68-15.98L267.68-15.98L267.68-15.98Q267.68-20.38 269.55-23.59L269.55-23.59L269.55-23.59Q271.41-26.80 274.33-28.85L274.33-28.85L274.33-28.85Q277.25-30.91 280.98-31.92L280.98-31.92L280.98-31.92Q284.72-32.92 288.54-32.92L288.54-32.92L292.76-32.92L292.76-26.13L290.65-26.13L290.65-26.13Q288.74-26.13 286.63-25.74L286.63-25.74L286.63-25.74Q284.53-25.36 282.71-24.31L282.71-24.31L282.71-24.31Q280.89-23.26 279.69-21.29L279.69-21.29L279.69-21.29Q278.50-19.33 278.50-16.27ZM308.26-16.75L308.26-15.98L308.26-15.98Q308.26-15.22 308.36-13.73L308.36-13.73L308.36-13.73Q308.45-12.25 308.74-10.72L308.74-10.72L308.74-10.72Q309.03-9.19 309.65-7.94L309.65-7.94L309.65-7.94Q310.27-6.70 311.32-6.32L311.32-6.32L308.26 0.10L308.26 0.10Q307.02 0.10 305.63-0.48L305.63-0.48L305.63-0.48Q304.24-1.05 302.95-2.11L302.95-2.11L302.95-2.11Q301.66-3.16 300.75-4.45L300.75-4.45L300.75-4.45Q299.84-5.74 299.36-7.27L299.36-7.27L299.36-7.27Q298.40-4.88 295.58-3.01L295.58-3.01L295.58-3.01Q292.76-1.15 289.31-0.29L289.31-0.29L289.31-7.56L289.31-7.56Q291.61-8.04 293.47-9.43L293.47-9.43L293.47-9.43Q295.34-10.81 296.68-12.73L296.68-12.73L296.68-32.92L296.68-32.92Q296.68-37.61 296.20-40.39L296.20-40.39L296.20-40.39Q295.72-43.16 294.57-44.45L294.57-44.45L294.57-44.45Q293.43-45.75 291.75-46.08L291.75-46.08L291.75-46.08Q290.08-46.42 287.78-46.42L287.78-46.42L287.78-46.42Q285.67-46.42 283.81-45.89L283.81-45.89L283.81-45.89Q281.94-45.36 280.36-44.65L280.36-44.65L280.36-44.65Q278.78-43.93 277.59-43.07L277.59-43.07L277.59-43.07Q276.39-42.21 275.82-41.73L275.82-41.73L271.51-48.33L271.51-48.33Q272.47-49.38 274.38-50.48L274.38-50.48L274.38-50.48Q276.29-51.58 278.78-52.45L278.78-52.45L278.78-52.45Q281.27-53.31 284.19-53.83L284.19-53.83L284.19-53.83Q287.11-54.36 290.27-54.36L290.27-54.36L290.27-54.36Q293.14-54.36 295.87-53.79L295.87-53.79L295.87-53.79Q298.59-53.21 300.84-51.87L300.84-51.87L300.84-51.87Q303.09-50.53 304.77-48.28L304.77-48.28L304.77-48.28Q306.44-46.03 307.11-42.68L307.11-42.68L307.11-42.68Q307.78-39.33 308.02-35.94L308.02-35.94L308.02-35.94Q308.26-32.54 308.26-29.19L308.26-29.19L308.26-16.75ZM341.95-46.13L341.95-16.37L341.95-16.37Q341.95-13.11 342.81-11.29L342.81-11.29L342.81-11.29Q343.67-9.47 345.25-8.52L345.25-8.52L345.25-8.52Q346.83-7.56 348.79-7.32L348.79-7.32L348.79-7.32Q350.75-7.08 352.95-7.08L352.95-7.08L352.95 0L352.95 0Q351.71 0.19 350.46 0.29L350.46 0.29L350.46 0.29Q349.41 0.38 347.93 0.43L347.93 0.43L347.93 0.43Q346.45 0.48 345.01 0.48L345.01 0.48L345.01 0.48Q343.57 0.48 342.09 0.38L342.09 0.38L342.09 0.38Q340.61 0.29 339.55 0.10L339.55 0.10L339.55 0.10Q336.30-0.48 334.48-2.73L334.48-2.73L334.48-2.73Q332.66-4.98 331.75-7.70L331.75-7.70L331.75-7.70Q330.85-10.43 330.61-13.02L330.61-13.02L330.61-13.02Q330.37-15.60 330.37-17.04L330.37-17.04L330.37-46.13L323.29-46.13L323.29-53.98L330.37-53.98L330.37-69.29L341.95-69.29L341.95-53.98L350.56-53.98L350.56-46.13L341.95-46.13ZM391.62-45.46L391.62-54.46L391.62-54.46Q396.79-53.98 400.95-51.68L400.95-51.68L400.95-51.68Q405.11-49.38 408.08-45.75L408.08-45.75L408.08-45.75Q411.04-42.11 412.62-37.42L412.62-37.42L412.62-37.42Q414.20-32.73 414.20-27.66L414.20-27.66L414.20-27.66Q414.20-25.36 413.92-23.06L413.92-23.06L381.09-23.06L381.09-31.49L403.20-31.49L403.20-31.49Q403.20-33.97 402.38-36.27L402.38-36.27L402.38-36.27Q401.57-38.57 399.99-40.53L399.99-40.53L399.99-40.53Q398.41-42.49 396.31-43.83L396.31-43.83L396.31-43.83Q394.20-45.17 391.62-45.46L391.62-45.46ZM391.23-9.00L391.23-9.00L391.23-9.00Q392.29-9.00 393.87-9.24L393.87-9.24L393.87-9.24Q395.45-9.47 397.22-10.10L397.22-10.10L397.22-10.10Q398.99-10.72 400.76-11.68L400.76-11.68L400.76-11.68Q402.53-12.63 403.87-13.97L403.87-13.97L408.08-7.56L408.08-7.56Q404.92-3.64 400.71-1.63L400.71-1.63L400.71-1.63Q396.50 0.38 389.99 0.38L389.99 0.38L389.99 0.38Q384.73 0.38 380.13-1.77L380.13-1.77L380.13-1.77Q375.54-3.92 372.29-7.66L372.29-7.66L372.29-7.66Q369.03-11.39 367.12-16.37L367.12-16.37L367.12-16.37Q365.20-21.34 365.20-27.08L365.20-27.08L365.20-27.08Q365.20-32.54 366.97-37.42L366.97-37.42L366.97-37.42Q368.74-42.30 371.81-45.99L371.81-45.99L371.81-45.99Q374.87-49.67 378.94-51.97L378.94-51.97L378.94-51.97Q383.00-54.26 387.69-54.55L387.69-54.55L387.69-45.36L387.69-45.36Q384.15-44.69 381.86-42.49L381.86-42.49L381.86-42.49Q379.56-40.29 378.27-37.47L378.27-37.47L378.27-37.47Q376.97-34.64 376.45-31.68L376.45-31.68L376.45-31.68Q375.92-28.71 375.92-26.61L375.92-26.61L375.92-26.61Q375.92-22.87 376.83-19.67L376.83-19.67L376.83-19.67Q377.74-16.46 379.65-14.12L379.65-14.12L379.65-14.12Q381.57-11.77 384.39-10.38L384.39-10.38L384.39-10.38Q387.21-9.00 391.23-9.00ZM456.89 0L456.89-70.53L468.56-70.53L487.51-26.99L487.51-9.28L484.45-9.28L468.56-48.52L468.56 0L456.89 0ZM491.44-26.80L510.38-70.53L522.06-70.53L522.06 0L510.38 0L510.38-48.52L494.59-9.28L491.44-9.28L491.44-26.80ZM564.46-45.27L564.46-54.26L564.46-54.26Q569.72-53.98 574.03-51.73L574.03-51.73L574.03-51.73Q578.33-49.48 581.25-45.79L581.25-45.79L581.25-45.79Q584.17-42.11 585.80-37.23L585.80-37.23L585.80-37.23Q587.43-32.35 587.43-26.80L587.43-26.80L587.43-26.80Q587.43-21.25 585.75-16.41L585.75-16.41L585.75-16.41Q584.08-11.58 581.11-7.99L581.11-7.99L581.11-7.99Q578.14-4.40 573.84-2.20L573.84-2.20L573.84-2.20Q569.53 0 564.46 0.38L564.46 0.38L564.46-8.80L564.46-8.80Q569.24-9.86 572.26-14.83L572.26-14.83L572.26-14.83Q575.27-19.81 575.27-26.80L575.27-26.80L575.27-26.80Q575.27-30.34 574.55-33.45L574.55-33.45L574.55-33.45Q573.84-36.56 572.40-39.05L572.40-39.05L572.40-39.05Q570.96-41.54 568.96-43.16L568.96-43.16L568.96-43.16Q566.95-44.79 564.46-45.27L564.46-45.27ZM537.76-26.99L537.76-26.99L537.76-26.99Q537.76-32.54 539.38-37.32L539.38-37.32L539.38-37.32Q541.01-42.11 544.02-45.70L544.02-45.70L544.02-45.70Q547.04-49.29 551.25-51.49L551.25-51.49L551.25-51.49Q555.46-53.69 560.53-54.17L560.53-54.17L560.53-45.27L560.53-45.27Q555.75-44.21 552.88-39.24L552.88-39.24L552.88-39.24Q550.01-34.26 550.01-27.28L550.01-27.28L550.01-27.28Q550.01-23.73 550.72-20.58L550.72-20.58L550.72-20.58Q551.44-17.42 552.78-14.93L552.78-14.93L552.78-14.93Q554.12-12.44 556.08-10.81L556.08-10.81L556.08-10.81Q558.04-9.19 560.53-8.80L560.53-8.80L560.53 0.38L560.53 0.38Q555.27 0 551.06-2.25L551.06-2.25L551.06-2.25Q546.85-4.50 543.88-8.13L543.88-8.13L543.88-8.13Q540.91-11.77 539.33-16.65L539.33-16.65L539.33-16.65Q537.76-21.53 537.76-26.99ZM618.82 0.38L599.87-53.98L612.98-53.98L624.37-15.60L624.37 0.38L618.82 0.38ZM628.29-15.60L639.78-53.98L652.79-53.98L633.84 0.38L628.29 0.38L628.29-15.60ZM678.25-53.98L678.25 0L666.57 0L666.57-53.98L678.25-53.98ZM679.30-71.20L679.30-71.20L679.30-71.20Q679.30-68.33 677.29-66.37L677.29-66.37L677.29-66.37Q675.28-64.41 672.41-64.41L672.41-64.41L672.41-64.41Q669.54-64.41 667.58-66.42L667.58-66.42L667.58-66.42Q665.62-68.43 665.62-71.20L665.62-71.20L665.62-71.20Q665.62-74.07 667.63-76.08L667.63-76.08L667.63-76.08Q669.63-78.09 672.41-78.09L672.41-78.09L672.41-78.09Q675.28-78.09 677.29-76.08L677.29-76.08L677.29-76.08Q679.30-74.07 679.30-71.20ZM719.59-45.46L719.59-54.46L719.59-54.46Q724.76-53.98 728.92-51.68L728.92-51.68L728.92-51.68Q733.09-49.38 736.05-45.75L736.05-45.75L736.05-45.75Q739.02-42.11 740.60-37.42L740.60-37.42L740.60-37.42Q742.18-32.73 742.18-27.66L742.18-27.66L742.18-27.66Q742.18-25.36 741.89-23.06L741.89-23.06L709.06-23.06L709.06-31.49L731.17-31.49L731.17-31.49Q731.17-33.97 730.36-36.27L730.36-36.27L730.36-36.27Q729.54-38.57 727.97-40.53L727.97-40.53L727.97-40.53Q726.39-42.49 724.28-43.83L724.28-43.83L724.28-43.83Q722.18-45.17 719.59-45.46L719.59-45.46ZM719.21-9.00L719.21-9.00L719.21-9.00Q720.26-9.00 721.84-9.24L721.84-9.24L721.84-9.24Q723.42-9.47 725.19-10.10L725.19-10.10L725.19-10.10Q726.96-10.72 728.73-11.68L728.73-11.68L728.73-11.68Q730.50-12.63 731.84-13.97L731.84-13.97L736.05-7.56L736.05-7.56Q732.89-3.64 728.68-1.63L728.68-1.63L728.68-1.63Q724.47 0.38 717.96 0.38L717.96 0.38L717.96 0.38Q712.70 0.38 708.11-1.77L708.11-1.77L708.11-1.77Q703.51-3.92 700.26-7.66L700.26-7.66L700.26-7.66Q697.01-11.39 695.09-16.37L695.09-16.37L695.09-16.37Q693.18-21.34 693.18-27.08L693.18-27.08L693.18-27.08Q693.18-32.54 694.95-37.42L694.95-37.42L694.95-37.42Q696.72-42.30 699.78-45.99L699.78-45.99L699.78-45.99Q702.84-49.67 706.91-51.97L706.91-51.97L706.91-51.97Q710.98-54.26 715.67-54.55L715.67-54.55L715.67-45.36L715.67-45.36Q712.13-44.69 709.83-42.49L709.83-42.49L709.83-42.49Q707.53-40.29 706.24-37.47L706.24-37.47L706.24-37.47Q704.95-34.64 704.42-31.68L704.42-31.68L704.42-31.68Q703.90-28.71 703.90-26.61L703.90-26.61L703.90-26.61Q703.90-22.87 704.81-19.67L704.81-19.67L704.81-19.67Q705.71-16.46 707.63-14.12L707.63-14.12L707.63-14.12Q709.54-11.77 712.37-10.38L712.37-10.38L712.37-10.38Q715.19-9.00 719.21-9.00ZM777.68 0.48L777.68 0.48L777.68 0.48Q772.32 0.48 768.30-1.87L768.30-1.87L768.30-1.87Q764.29-4.21 761.61-8.13L761.61-8.13L761.61-8.13Q758.93-12.06 757.68-17.13L757.68-17.13L757.68-17.13Q756.44-22.20 756.44-27.75L756.44-27.75L756.44-27.75Q756.44-35.22 758.50-40.29L758.50-40.29L758.50-40.29Q760.55-45.36 763.76-48.57L763.76-48.57L763.76-48.57Q766.96-51.78 770.94-53.12L770.94-53.12L770.94-53.12Q774.91-54.46 778.74-54.46L778.74-54.46L778.74-54.46Q781.70-54.46 784.38-53.79L784.38-53.79L784.38-53.79Q787.06-53.12 789.26-51.87L789.26-51.87L789.26-41.73L789.26-41.73Q787.73-43.45 785.67-44.50L785.67-44.50L785.67-44.50Q783.62-45.55 781.22-45.55L781.22-45.55L781.22-45.55Q778.35-45.55 776.01-44.07L776.01-44.07L776.01-44.07Q773.66-42.59 772.04-40.10L772.04-40.10L772.04-40.10Q770.41-37.61 769.55-34.26L769.55-34.26L769.55-34.26Q768.69-30.91 768.69-27.18L768.69-27.18L768.69-27.18Q768.69-23.35 769.60-19.95L769.60-19.95L769.60-19.95Q770.51-16.56 772.18-14.07L772.18-14.07L772.18-14.07Q773.86-11.58 776.20-10.10L776.20-10.10L776.20-10.10Q778.54-8.61 781.42-8.61L781.42-8.61L781.42-8.61Q783.81-8.61 785.72-9.62L785.72-9.62L785.72-9.62Q787.64-10.62 789.26-12.25L789.26-12.25L789.26-2.30L789.26-2.30Q786.97-1.15 784-0.33L784-0.33L784-0.33Q781.03 0.48 777.68 0.48ZM794.43-53.98L804.77-53.98L804.67 0L804.67 0Q804.29 5.84 802.33 9.95L802.33 9.95L802.33 9.95Q800.37 14.07 797.30 16.75L797.30 16.75L797.30 16.75Q794.24 19.43 790.22 20.58L790.22 20.58L790.22 20.58Q786.20 21.72 781.61 21.72L781.61 21.72L781.61 21.72Q776.25 21.72 771.03 19.86L771.03 19.86L771.03 19.86Q765.82 17.99 762.37 13.59L762.37 13.59L769.07 6.99L769.07 6.99Q770.03 8.61 771.51 9.67L771.51 9.67L771.51 9.67Q772.99 10.72 774.57 11.29L774.57 11.29L774.57 11.29Q776.15 11.87 777.73 12.11L777.73 12.11L777.73 12.11Q779.31 12.35 780.55 12.35L780.55 12.35L780.55 12.35Q786.49 12.35 789.84 8.90L789.84 8.90L789.84 8.90Q793.19 5.46 793.19-2.87L793.19-2.87L793.19-48.52L794.43-53.98ZM848.79-45.27L848.79-54.26L848.79-54.26Q854.05-53.98 858.36-51.73L858.36-51.73L858.36-51.73Q862.67-49.48 865.59-45.79L865.59-45.79L865.59-45.79Q868.51-42.11 870.13-37.23L870.13-37.23L870.13-37.23Q871.76-32.35 871.76-26.80L871.76-26.80L871.76-26.80Q871.76-21.25 870.08-16.41L870.08-16.41L870.08-16.41Q868.41-11.58 865.44-7.99L865.44-7.99L865.44-7.99Q862.48-4.40 858.17-2.20L858.17-2.20L858.17-2.20Q853.86 0 848.79 0.38L848.79 0.38L848.79-8.80L848.79-8.80Q853.58-9.86 856.59-14.83L856.59-14.83L856.59-14.83Q859.61-19.81 859.61-26.80L859.61-26.80L859.61-26.80Q859.61-30.34 858.89-33.45L858.89-33.45L858.89-33.45Q858.17-36.56 856.73-39.05L856.73-39.05L856.73-39.05Q855.30-41.54 853.29-43.16L853.29-43.16L853.29-43.16Q851.28-44.79 848.79-45.27L848.79-45.27ZM822.09-26.99L822.09-26.99L822.09-26.99Q822.09-32.54 823.72-37.32L823.72-37.32L823.72-37.32Q825.34-42.11 828.36-45.70L828.36-45.70L828.36-45.70Q831.37-49.29 835.58-51.49L835.58-51.49L835.58-51.49Q839.79-53.69 844.87-54.17L844.87-54.17L844.87-45.27L844.87-45.27Q840.08-44.21 837.21-39.24L837.21-39.24L837.21-39.24Q834.34-34.26 834.34-27.28L834.34-27.28L834.34-27.28Q834.34-23.73 835.06-20.58L835.06-20.58L835.06-20.58Q835.78-17.42 837.12-14.93L837.12-14.93L837.12-14.93Q838.46-12.44 840.42-10.81L840.42-10.81L840.42-10.81Q842.38-9.19 844.87-8.80L844.87-8.80L844.87 0.38L844.87 0.38Q839.60 0 835.39-2.25L835.39-2.25L835.39-2.25Q831.18-4.50 828.21-8.13L828.21-8.13L828.21-8.13Q825.25-11.77 823.67-16.65L823.67-16.65L823.67-16.65Q822.09-21.53 822.09-26.99ZM911.86-45.46L911.86-54.46L911.86-54.46Q917.03-53.98 921.19-51.68L921.19-51.68L921.19-51.68Q925.35-49.38 928.32-45.75L928.32-45.75L928.32-45.75Q931.29-42.11 932.87-37.42L932.87-37.42L932.87-37.42Q934.45-32.73 934.45-27.66L934.45-27.66L934.45-27.66Q934.45-25.36 934.16-23.06L934.16-23.06L901.33-23.06L901.33-31.49L923.44-31.49L923.44-31.49Q923.44-33.97 922.63-36.27L922.63-36.27L922.63-36.27Q921.81-38.57 920.23-40.53L920.23-40.53L920.23-40.53Q918.65-42.49 916.55-43.83L916.55-43.83L916.55-43.83Q914.44-45.17 911.86-45.46L911.86-45.46ZM911.48-9.00L911.48-9.00L911.48-9.00Q912.53-9.00 914.11-9.24L914.11-9.24L914.11-9.24Q915.69-9.47 917.46-10.10L917.46-10.10L917.46-10.10Q919.23-10.72 921.00-11.68L921.00-11.68L921.00-11.68Q922.77-12.63 924.11-13.97L924.11-13.97L928.32-7.56L928.32-7.56Q925.16-3.64 920.95-1.63L920.95-1.63L920.95-1.63Q916.74 0.38 910.23 0.38L910.23 0.38L910.23 0.38Q904.97 0.38 900.38-1.77L900.38-1.77L900.38-1.77Q895.78-3.92 892.53-7.66L892.53-7.66L892.53-7.66Q889.27-11.39 887.36-16.37L887.36-16.37L887.36-16.37Q885.45-21.34 885.45-27.08L885.45-27.08L885.45-27.08Q885.45-32.54 887.22-37.42L887.22-37.42L887.22-37.42Q888.99-42.30 892.05-45.99L892.05-45.99L892.05-45.99Q895.11-49.67 899.18-51.97L899.18-51.97L899.18-51.97Q903.25-54.26 907.94-54.55L907.94-54.55L907.94-45.36L907.94-45.36Q904.39-44.69 902.10-42.49L902.10-42.49L902.10-42.49Q899.80-40.29 898.51-37.47L898.51-37.47L898.51-37.47Q897.22-34.64 896.69-31.68L896.69-31.68L896.69-31.68Q896.16-28.71 896.16-26.61L896.16-26.61L896.16-26.61Q896.16-22.87 897.07-19.67L897.07-19.67L897.07-19.67Q897.98-16.46 899.90-14.12L899.90-14.12L899.90-14.12Q901.81-11.77 904.63-10.38L904.63-10.38L904.63-10.38Q907.46-9.00 911.48-9.00ZM950.33-53.98L960.67-53.98L961.91-48.43L961.91-19.14L961.91-18.95L961.91 0L950.33 0L950.33-53.98ZM965.84-41.82L965.84-51.58L965.84-51.58Q968.23-52.92 971.58-53.64L971.58-53.64L971.58-53.64Q974.93-54.36 980.67-54.36L980.67-54.36L980.67-42.30L980.67-42.30Q977.99-43.07 974.16-43.16L974.16-43.16L974.16-43.16Q972.06-43.16 969.90-42.83L969.90-42.83L969.90-42.83Q967.75-42.49 965.84-41.82L965.84-41.82ZM991.77-38.57L991.77-38.57L991.77-38.57Q991.77-42.21 993.11-45.12L993.11-45.12L993.11-45.12Q994.45-48.04 996.84-50.10L996.84-50.10L996.84-50.10Q999.24-52.16 1002.25-53.35L1002.25-53.35L1002.25-53.35Q1005.27-54.55 1008.52-54.84L1008.52-54.84L1008.52-45.27L1008.52-45.27Q1006.03-44.79 1004.64-43.26L1004.64-43.26L1004.64-43.26Q1003.26-41.73 1003.26-38.95L1003.26-38.95L1003.26-38.95Q1003.26-36.65 1004.74-35.27L1004.74-35.27L1004.74-35.27Q1006.22-33.88 1008.52-32.83L1008.52-32.83L1008.52-22.59L1008.52-22.59Q1006.89-23.06 1005.22-23.69L1005.22-23.69L1005.22-23.69Q1003.54-24.31 1001.92-25.07L1001.92-25.07L1001.92-25.07Q996.84-27.75 994.31-30.72L994.31-30.72L994.31-30.72Q991.77-33.69 991.77-38.57ZM1027.47-50.53L1023.74-42.59L1023.74-42.59Q1021.15-43.93 1018.23-44.60L1018.23-44.60L1018.23-44.60Q1015.31-45.27 1012.44-45.46L1012.44-45.46L1012.44-54.93L1012.44-54.93Q1016.75-54.74 1020.39-53.74L1020.39-53.74L1020.39-53.74Q1024.02-52.73 1027.47-50.53L1027.47-50.53ZM991.96-4.31L996.84-12.06L996.84-12.06Q998.76-10.72 1001.39-9.57L1001.39-9.57L1001.39-9.57Q1004.02-8.42 1008.04-8.42L1008.04-8.42L1008.52-8.42L1008.52 0.48L1008.52 0.48Q1006.13 0.48 1004.12 0.33L1004.12 0.33L1004.12 0.33Q1002.11 0.19 1000.15-0.33L1000.15-0.33L1000.15-0.33Q998.18-0.86 996.17-1.82L996.17-1.82L996.17-1.82Q994.16-2.78 991.96-4.31L991.96-4.31ZM1012.44-21.15L1012.44-31.29L1012.44-31.29Q1015.31-30.34 1018.28-29.19L1018.28-29.19L1018.28-29.19Q1021.25-28.04 1023.69-26.32L1023.69-26.32L1023.69-26.32Q1026.13-24.60 1027.71-22.06L1027.71-22.06L1027.71-22.06Q1029.29-19.52 1029.29-15.70L1029.29-15.70L1029.29-15.70Q1029.29-11.96 1027.95-9.19L1027.95-9.19L1027.95-9.19Q1026.61-6.41 1024.36-4.40L1024.36-4.40L1024.36-4.40Q1022.11-2.39 1019.05-1.24L1019.05-1.24L1019.05-1.24Q1015.98-0.10 1012.44 0.29L1012.44 0.29L1012.44-8.80L1012.44-8.80Q1015.70-9.38 1017.47-10.86L1017.47-10.86L1017.47-10.86Q1019.24-12.35 1019.24-14.83L1019.24-14.83L1019.24-14.83Q1019.24-17.32 1017.28-18.71L1017.28-18.71L1017.28-18.71Q1015.31-20.10 1012.44-21.15L1012.44-21.15ZM1118.87-64.03L1110.92-56.94L1110.92-56.94Q1108.63-59.72 1105.66-60.96L1105.66-60.96L1105.66-60.96Q1102.69-62.21 1099.53-62.21L1099.53-62.21L1099.15-62.21L1099.15-71.68L1099.25-71.68L1099.25-71.68Q1104.99-71.68 1109.96-69.77L1109.96-69.77L1109.96-69.77Q1114.94-67.85 1118.87-64.03L1118.87-64.03ZM1069.87-35.60L1069.87-35.60L1069.87-35.60Q1069.87-43.83 1071.78-50.20L1071.78-50.20L1071.78-50.20Q1073.69-56.56 1077.04-61.01L1077.04-61.01L1077.04-61.01Q1080.39-65.46 1085.08-68.04L1085.08-68.04L1085.08-68.04Q1089.77-70.63 1095.23-71.30L1095.23-71.30L1095.23-61.73L1095.23-61.73Q1092.36-60.96 1089.92-59.14L1089.92-59.14L1089.92-59.14Q1087.47-57.33 1085.61-54.12L1085.61-54.12L1085.61-54.12Q1083.74-50.91 1082.69-46.37L1082.69-46.37L1082.69-46.37Q1081.64-41.82 1081.54-35.60L1081.54-35.60L1081.54-35.60Q1081.64-29.38 1082.69-24.69L1082.69-24.69L1082.69-24.69Q1083.74-20.00 1085.61-16.60L1085.61-16.60L1085.61-16.60Q1087.47-13.21 1089.92-11.20L1089.92-11.20L1089.92-11.20Q1092.36-9.19 1095.23-8.42L1095.23-8.42L1095.23 0.29L1095.23 0.29Q1089.77-0.38 1085.08-3.01L1085.08-3.01L1085.08-3.01Q1080.39-5.65 1077.04-10.14L1077.04-10.14L1077.04-10.14Q1073.69-14.64 1071.78-21.01L1071.78-21.01L1071.78-21.01Q1069.87-27.37 1069.87-35.60ZM1099.15-36.37L1122.50-36.37L1122.50-9.09L1122.50-9.09Q1120.30-6.32 1117.57-4.55L1117.57-4.55L1117.57-4.55Q1114.85-2.78 1111.83-1.63L1111.83-1.63L1111.83-1.63Q1108.82-0.48 1105.61 0L1105.61 0L1105.61 0Q1102.40 0.48 1099.25 0.48L1099.25 0.48L1099.15 0.48L1099.15-7.94L1099.15-7.94Q1100.30-7.94 1101.97-8.09L1101.97-8.09L1101.97-8.09Q1103.65-8.23 1105.42-8.57L1105.42-8.57L1105.42-8.57Q1107.19-8.90 1108.77-9.47L1108.77-9.47L1108.77-9.47Q1110.35-10.05 1111.11-11.10L1111.11-11.10L1111.11-28.52L1099.15-28.52L1099.15-36.37ZM1149.78-53.98L1149.78-24.60L1149.78-24.60Q1149.78-21.25 1150.06-18.33L1150.06-18.33L1150.06-18.33Q1150.35-15.41 1151.31-13.21L1151.31-13.21L1151.31-13.21Q1152.27-11.01 1154.18-9.67L1154.18-9.67L1154.18-9.67Q1156.09-8.33 1159.25-8.33L1159.25-8.33L1159.25-8.33Q1160.50-8.33 1162.79-8.71L1162.79-8.71L1162.79-8.71Q1165.09-9.09 1167.20-9.95L1167.20-9.95L1167.20-2.87L1167.20-2.87Q1164.71-1.53 1161.79-0.53L1161.79-0.53L1161.79-0.53Q1158.87 0.48 1156.00 0.48L1156.00 0.48L1156.00 0.48Q1153.70 0.48 1151.88 0.05L1151.88 0.05L1151.88 0.05Q1150.06-0.38 1148.49-1.29L1148.49-1.29L1148.49-1.29Q1146.91-2.20 1145.47-3.35L1145.47-3.35L1145.47-3.35Q1144.04-4.50 1142.60-5.93L1142.60-5.93L1142.60-5.93Q1140.97-7.56 1140.02-9.71L1140.02-9.71L1140.02-9.71Q1139.06-11.87 1138.63-14.21L1138.63-14.21L1138.63-14.21Q1138.20-16.56 1138.15-18.95L1138.15-18.95L1138.15-18.95Q1138.10-21.34 1138.10-23.64L1138.10-23.64L1138.10-53.98L1149.78-53.98ZM1171.12-53.98L1182.79-53.98L1182.79 0L1172.36 0L1171.12-5.55L1171.12-53.98ZM1210.64-53.98L1210.64 0L1198.97 0L1198.97-53.98L1210.64-53.98ZM1211.70-71.20L1211.70-71.20L1211.70-71.20Q1211.70-68.33 1209.69-66.37L1209.69-66.37L1209.69-66.37Q1207.68-64.41 1204.81-64.41L1204.81-64.41L1204.81-64.41Q1201.94-64.41 1199.97-66.42L1199.97-66.42L1199.97-66.42Q1198.01-68.43 1198.01-71.20L1198.01-71.20L1198.01-71.20Q1198.01-74.07 1200.02-76.08L1200.02-76.08L1200.02-76.08Q1202.03-78.09 1204.81-78.09L1204.81-78.09L1204.81-78.09Q1207.68-78.09 1209.69-76.08L1209.69-76.08L1209.69-76.08Q1211.70-74.07 1211.70-71.20ZM1260.22-74.36L1271.89-74.36L1271.89 0L1260.89 0L1260.22-6.41L1260.22-74.36ZM1223.47-27.75L1223.47-27.75L1223.47-27.75Q1223.47-35.22 1225.53-40.29L1225.53-40.29L1225.53-40.29Q1227.58-45.36 1230.84-48.52L1230.84-48.52L1230.84-48.52Q1234.09-51.68 1238.06-53.07L1238.06-53.07L1238.06-53.07Q1242.04-54.46 1245.86-54.46L1245.86-54.46L1245.86-54.46Q1248.83-54.46 1251.51-53.79L1251.51-53.79L1251.51-53.79Q1254.19-53.12 1256.29-51.87L1256.29-51.87L1256.29-41.73L1256.29-41.73Q1254.67-43.45 1252.66-44.50L1252.66-44.50L1252.66-44.50Q1250.65-45.55 1248.16-45.55L1248.16-45.55L1248.16-45.55Q1245.19-45.55 1242.90-44.07L1242.90-44.07L1242.90-44.07Q1240.60-42.59 1239.02-40.00L1239.02-40.00L1239.02-40.00Q1237.44-37.42 1236.58-34.07L1236.58-34.07L1236.58-34.07Q1235.72-30.72 1235.72-26.89L1235.72-26.89L1235.72-26.89Q1235.72-23.06 1236.68-19.76L1236.68-19.76L1236.68-19.76Q1237.63-16.46 1239.26-13.97L1239.26-13.97L1239.26-13.97Q1240.89-11.48 1243.23-10.05L1243.23-10.05L1243.23-10.05Q1245.58-8.61 1248.35-8.61L1248.35-8.61L1248.35-8.61Q1253.04-8.61 1256.29-12.35L1256.29-12.35L1256.29-2.39L1256.29-2.39Q1254.00-1.15 1250.98-0.33L1250.98-0.33L1250.98-0.33Q1247.97 0.48 1244.62 0.48L1244.62 0.48L1244.62 0.48Q1240.79 0.48 1237.11-0.91L1237.11-0.91L1237.11-0.91Q1233.42-2.30 1230.55-5.46L1230.55-5.46L1230.55-5.46Q1226.91-9.57 1225.19-15.65L1225.19-15.65L1225.19-15.65Q1223.47-21.72 1223.47-27.75ZM1313.33-45.46L1313.33-54.46L1313.33-54.46Q1318.50-53.98 1322.67-51.68L1322.67-51.68L1322.67-51.68Q1326.83-49.38 1329.79-45.75L1329.79-45.75L1329.79-45.75Q1332.76-42.11 1334.34-37.42L1334.34-37.42L1334.34-37.42Q1335.92-32.73 1335.92-27.66L1335.92-27.66L1335.92-27.66Q1335.92-25.36 1335.63-23.06L1335.63-23.06L1302.81-23.06L1302.81-31.49L1324.91-31.49L1324.91-31.49Q1324.91-33.97 1324.10-36.27L1324.10-36.27L1324.10-36.27Q1323.29-38.57 1321.71-40.53L1321.71-40.53L1321.71-40.53Q1320.13-42.49 1318.02-43.83L1318.02-43.83L1318.02-43.83Q1315.92-45.17 1313.33-45.46L1313.33-45.46ZM1312.95-9.00L1312.95-9.00L1312.95-9.00Q1314.00-9.00 1315.58-9.24L1315.58-9.24L1315.58-9.24Q1317.16-9.47 1318.93-10.10L1318.93-10.10L1318.93-10.10Q1320.70-10.72 1322.47-11.68L1322.47-11.68L1322.47-11.68Q1324.24-12.63 1325.58-13.97L1325.58-13.97L1329.79-7.56L1329.79-7.56Q1326.64-3.64 1322.43-1.63L1322.43-1.63L1322.43-1.63Q1318.21 0.38 1311.71 0.38L1311.71 0.38L1311.71 0.38Q1306.44 0.38 1301.85-1.77L1301.85-1.77L1301.85-1.77Q1297.26-3.92 1294.00-7.66L1294.00-7.66L1294.00-7.66Q1290.75-11.39 1288.83-16.37L1288.83-16.37L1288.83-16.37Q1286.92-21.34 1286.92-27.08L1286.92-27.08L1286.92-27.08Q1286.92-32.54 1288.69-37.42L1288.69-37.42L1288.69-37.42Q1290.46-42.30 1293.52-45.99L1293.52-45.99L1293.52-45.99Q1296.59-49.67 1300.65-51.97L1300.65-51.97L1300.65-51.97Q1304.72-54.26 1309.41-54.55L1309.41-54.55L1309.41-45.36L1309.41-45.36Q1305.87-44.69 1303.57-42.49L1303.57-42.49L1303.57-42.49Q1301.28-40.29 1299.98-37.47L1299.98-37.47L1299.98-37.47Q1298.69-34.64 1298.17-31.68L1298.17-31.68L1298.17-31.68Q1297.64-28.71 1297.64-26.61L1297.64-26.61L1297.64-26.61Q1297.64-22.87 1298.55-19.67L1298.55-19.67L1298.55-19.67Q1299.46-16.46 1301.37-14.12L1301.37-14.12L1301.37-14.12Q1303.29-11.77 1306.11-10.38L1306.11-10.38L1306.11-10.38Q1308.93-9.00 1312.95-9.00Z" fill="url(#editing-shiny-gradient)"></path></g></g><g filter="url(#editing-shiny2)"><g transform="translate(-421.87722158432007, 124.88937377929688)"><path d="M19.52-70.53L19.52-36.75L19.52-36.75Q19.52-29.38 20.48-24.26L20.48-24.26L20.48-24.26Q21.44-19.14 23.26-15.84L23.26-15.84L23.26-15.84Q25.07-12.54 27.61-10.91L27.61-10.91L27.61-10.91Q30.15-9.28 33.30-9.00L33.30-9.00L33.30 0.48L33.30 0.48Q27.47 0.10 22.73-2.34L22.73-2.34L22.73-2.34Q17.99-4.79 14.74-9.33L14.74-9.33L14.74-9.33Q11.48-13.88 9.67-20.48L9.67-20.48L9.67-20.48Q7.85-27.08 7.85-35.60L7.85-35.60L7.85-70.53L19.52-70.53ZM51.11-70.53L62.69-70.53L62.69-35.60L62.69-35.60Q62.69-27.08 60.87-20.48L60.87-20.48L60.87-20.48Q59.05-13.88 55.75-9.33L55.75-9.33L55.75-9.33Q52.45-4.79 47.76-2.34L47.76-2.34L47.76-2.34Q43.07 0.10 37.23 0.48L37.23 0.48L37.23-9.00L37.23-9.00Q40.39-9.38 42.92-10.96L42.92-10.96L42.92-10.96Q45.46-12.54 47.28-15.79L47.28-15.79L47.28-15.79Q49.10-19.04 50.10-24.17L50.10-24.17L50.10-24.17Q51.11-29.29 51.11-36.75L51.11-36.75L51.11-70.53ZM90.25-74.36L90.25-16.46L90.25-16.46Q90.25-13.21 91.11-11.34L91.11-11.34L91.11-11.34Q91.97-9.47 93.50-8.57L93.50-8.57L93.50-8.57Q95.03-7.66 97.00-7.37L97.00-7.37L97.00-7.37Q98.96-7.08 101.25-7.08L101.25-7.08L101.25 0L101.25 0Q100.01 0.19 98.67 0.29L98.67 0.29L98.67 0.29Q97.62 0.38 96.18 0.43L96.18 0.43L96.18 0.43Q94.75 0.48 93.31 0.48L93.31 0.48L93.31 0.48Q91.88 0.48 90.44 0.38L90.44 0.38L90.44 0.38Q89.00 0.29 87.86 0.10L87.86 0.10L87.86 0.10Q84.60-0.57 82.78-2.78L82.78-2.78L82.78-2.78Q80.96-4.98 80.01-7.70L80.01-7.70L80.01-7.70Q79.05-10.43 78.81-13.02L78.81-13.02L78.81-13.02Q78.57-15.60 78.57-17.04L78.57-17.04L78.57-18.18L78.57-74.36L90.25-74.36ZM128.91-46.13L128.91-16.37L128.91-16.37Q128.91-13.11 129.77-11.29L129.77-11.29L129.77-11.29Q130.63-9.47 132.21-8.52L132.21-8.52L132.21-8.52Q133.79-7.56 135.75-7.32L135.75-7.32L135.75-7.32Q137.72-7.08 139.92-7.08L139.92-7.08L139.92 0L139.92 0Q138.67 0.19 137.43 0.29L137.43 0.29L137.43 0.29Q136.38 0.38 134.89 0.43L134.89 0.43L134.89 0.43Q133.41 0.48 131.97 0.48L131.97 0.48L131.97 0.48Q130.54 0.48 129.06 0.38L129.06 0.38L129.06 0.38Q127.57 0.29 126.52 0.10L126.52 0.10L126.52 0.10Q123.27-0.48 121.45-2.73L121.45-2.73L121.45-2.73Q119.63-4.98 118.72-7.70L118.72-7.70L118.72-7.70Q117.81-10.43 117.57-13.02L117.57-13.02L117.57-13.02Q117.33-15.60 117.33-17.04L117.33-17.04L117.33-46.13L110.25-46.13L110.25-53.98L117.33-53.98L117.33-69.29L128.91-69.29L128.91-53.98L137.53-53.98L137.53-46.13L128.91-46.13ZM165.09-53.98L165.09 0L153.41 0L153.41-53.98L165.09-53.98ZM166.14-71.20L166.14-71.20L166.14-71.20Q166.14-68.33 164.13-66.37L164.13-66.37L164.13-66.37Q162.12-64.41 159.25-64.41L159.25-64.41L159.25-64.41Q156.38-64.41 154.42-66.42L154.42-66.42L154.42-66.42Q152.46-68.43 152.46-71.20L152.46-71.20L152.46-71.20Q152.46-74.07 154.46-76.08L154.46-76.08L154.46-76.08Q156.47-78.09 159.25-78.09L159.25-78.09L159.25-78.09Q162.12-78.09 164.13-76.08L164.13-76.08L164.13-76.08Q166.14-74.07 166.14-71.20ZM181.36-53.98L191.79-53.98L193.03-48.43L193.03 0L181.36 0L181.36-53.98ZM236.96-54.55L236.96-54.55L236.96-54.55Q240.21-54.55 243.09-53.26L243.09-53.26L243.09-53.26Q245.96-51.97 248.11-49.57L248.11-49.57L248.11-49.57Q250.26-47.18 251.46-43.88L251.46-43.88L251.46-43.88Q252.66-40.58 252.66-36.75L252.66-36.75L252.66 0L241.17 0L241.17-29.38L241.17-29.38Q241.17-32.63 241.12-35.55L241.12-35.55L241.12-35.55Q241.08-38.47 240.50-40.77L240.50-40.77L240.50-40.77Q239.93-43.07 238.64-44.36L238.64-44.36L238.64-44.36Q237.34-45.65 234.66-45.65L234.66-45.65L234.66-45.65Q233.99-45.65 231.79-45.36L231.79-45.36L231.79-45.36Q229.59-45.08 226.72-43.74L226.72-43.74L226.72-51.30L226.72-51.30Q229.30-52.83 231.98-53.69L231.98-53.69L231.98-53.69Q234.66-54.55 236.96-54.55ZM220.40-47.18L220.40-47.18L220.40-47.18Q221.55-45.46 222.08-43.50L222.08-43.50L222.08-43.50Q222.61-41.54 222.75-39.43L222.75-39.43L222.75-39.43Q222.89-37.32 222.84-35.08L222.84-35.08L222.84-35.08Q222.80-32.83 222.80-30.34L222.80-30.34L222.80 0L211.22 0L211.22-29.38L211.22-29.38Q211.22-32.63 211.22-35.55L211.22-35.55L211.22-35.55Q211.22-38.47 210.64-40.77L210.64-40.77L210.64-40.77Q210.07-43.07 208.73-44.36L208.73-44.36L208.73-44.36Q207.39-45.65 204.80-45.65L204.80-45.65L204.80-45.65Q203.66-45.65 201.41-45.22L201.41-45.22L201.41-45.22Q199.16-44.79 196.96-43.74L196.96-43.74L196.96-51.30L196.96-51.30Q199.25-52.64 201.89-53.50L201.89-53.50L201.89-53.50Q204.52-54.36 207.10-54.36L207.10-54.36L207.10-54.36Q211.50-54.36 214.52-52.54L214.52-52.54L214.52-52.54Q217.53-50.72 220.40-47.18ZM278.50-16.27L278.50-16.27L278.50-16.27Q278.50-11.96 280.27-9.86L280.27-9.86L280.27-9.86Q282.04-7.75 285.39-7.37L285.39-7.37L285.39 0.38L285.39 0.38Q285.00 0.48 284.14 0.48L284.14 0.48L284.14 0.48Q280.89 0.48 277.87-0.38L277.87-0.38L277.87-0.38Q274.86-1.24 272.56-3.16L272.56-3.16L272.56-3.16Q270.27-5.07 268.97-8.23L268.97-8.23L268.97-8.23Q267.68-11.39 267.68-15.98L267.68-15.98L267.68-15.98Q267.68-20.38 269.55-23.59L269.55-23.59L269.55-23.59Q271.41-26.80 274.33-28.85L274.33-28.85L274.33-28.85Q277.25-30.91 280.98-31.92L280.98-31.92L280.98-31.92Q284.72-32.92 288.54-32.92L288.54-32.92L292.76-32.92L292.76-26.13L290.65-26.13L290.65-26.13Q288.74-26.13 286.63-25.74L286.63-25.74L286.63-25.74Q284.53-25.36 282.71-24.31L282.71-24.31L282.71-24.31Q280.89-23.26 279.69-21.29L279.69-21.29L279.69-21.29Q278.50-19.33 278.50-16.27ZM308.26-16.75L308.26-15.98L308.26-15.98Q308.26-15.22 308.36-13.73L308.36-13.73L308.36-13.73Q308.45-12.25 308.74-10.72L308.74-10.72L308.74-10.72Q309.03-9.19 309.65-7.94L309.65-7.94L309.65-7.94Q310.27-6.70 311.32-6.32L311.32-6.32L308.26 0.10L308.26 0.10Q307.02 0.10 305.63-0.48L305.63-0.48L305.63-0.48Q304.24-1.05 302.95-2.11L302.95-2.11L302.95-2.11Q301.66-3.16 300.75-4.45L300.75-4.45L300.75-4.45Q299.84-5.74 299.36-7.27L299.36-7.27L299.36-7.27Q298.40-4.88 295.58-3.01L295.58-3.01L295.58-3.01Q292.76-1.15 289.31-0.29L289.31-0.29L289.31-7.56L289.31-7.56Q291.61-8.04 293.47-9.43L293.47-9.43L293.47-9.43Q295.34-10.81 296.68-12.73L296.68-12.73L296.68-32.92L296.68-32.92Q296.68-37.61 296.20-40.39L296.20-40.39L296.20-40.39Q295.72-43.16 294.57-44.45L294.57-44.45L294.57-44.45Q293.43-45.75 291.75-46.08L291.75-46.08L291.75-46.08Q290.08-46.42 287.78-46.42L287.78-46.42L287.78-46.42Q285.67-46.42 283.81-45.89L283.81-45.89L283.81-45.89Q281.94-45.36 280.36-44.65L280.36-44.65L280.36-44.65Q278.78-43.93 277.59-43.07L277.59-43.07L277.59-43.07Q276.39-42.21 275.82-41.73L275.82-41.73L271.51-48.33L271.51-48.33Q272.47-49.38 274.38-50.48L274.38-50.48L274.38-50.48Q276.29-51.58 278.78-52.45L278.78-52.45L278.78-52.45Q281.27-53.31 284.19-53.83L284.19-53.83L284.19-53.83Q287.11-54.36 290.27-54.36L290.27-54.36L290.27-54.36Q293.14-54.36 295.87-53.79L295.87-53.79L295.87-53.79Q298.59-53.21 300.84-51.87L300.84-51.87L300.84-51.87Q303.09-50.53 304.77-48.28L304.77-48.28L304.77-48.28Q306.44-46.03 307.11-42.68L307.11-42.68L307.11-42.68Q307.78-39.33 308.02-35.94L308.02-35.94L308.02-35.94Q308.26-32.54 308.26-29.19L308.26-29.19L308.26-16.75ZM341.95-46.13L341.95-16.37L341.95-16.37Q341.95-13.11 342.81-11.29L342.81-11.29L342.81-11.29Q343.67-9.47 345.25-8.52L345.25-8.52L345.25-8.52Q346.83-7.56 348.79-7.32L348.79-7.32L348.79-7.32Q350.75-7.08 352.95-7.08L352.95-7.08L352.95 0L352.95 0Q351.71 0.19 350.46 0.29L350.46 0.29L350.46 0.29Q349.41 0.38 347.93 0.43L347.93 0.43L347.93 0.43Q346.45 0.48 345.01 0.48L345.01 0.48L345.01 0.48Q343.57 0.48 342.09 0.38L342.09 0.38L342.09 0.38Q340.61 0.29 339.55 0.10L339.55 0.10L339.55 0.10Q336.30-0.48 334.48-2.73L334.48-2.73L334.48-2.73Q332.66-4.98 331.75-7.70L331.75-7.70L331.75-7.70Q330.85-10.43 330.61-13.02L330.61-13.02L330.61-13.02Q330.37-15.60 330.37-17.04L330.37-17.04L330.37-46.13L323.29-46.13L323.29-53.98L330.37-53.98L330.37-69.29L341.95-69.29L341.95-53.98L350.56-53.98L350.56-46.13L341.95-46.13ZM391.62-45.46L391.62-54.46L391.62-54.46Q396.79-53.98 400.95-51.68L400.95-51.68L400.95-51.68Q405.11-49.38 408.08-45.75L408.08-45.75L408.08-45.75Q411.04-42.11 412.62-37.42L412.62-37.42L412.62-37.42Q414.20-32.73 414.20-27.66L414.20-27.66L414.20-27.66Q414.20-25.36 413.92-23.06L413.92-23.06L381.09-23.06L381.09-31.49L403.20-31.49L403.20-31.49Q403.20-33.97 402.38-36.27L402.38-36.27L402.38-36.27Q401.57-38.57 399.99-40.53L399.99-40.53L399.99-40.53Q398.41-42.49 396.31-43.83L396.31-43.83L396.31-43.83Q394.20-45.17 391.62-45.46L391.62-45.46ZM391.23-9.00L391.23-9.00L391.23-9.00Q392.29-9.00 393.87-9.24L393.87-9.24L393.87-9.24Q395.45-9.47 397.22-10.10L397.22-10.10L397.22-10.10Q398.99-10.72 400.76-11.68L400.76-11.68L400.76-11.68Q402.53-12.63 403.87-13.97L403.87-13.97L408.08-7.56L408.08-7.56Q404.92-3.64 400.71-1.63L400.71-1.63L400.71-1.63Q396.50 0.38 389.99 0.38L389.99 0.38L389.99 0.38Q384.73 0.38 380.13-1.77L380.13-1.77L380.13-1.77Q375.54-3.92 372.29-7.66L372.29-7.66L372.29-7.66Q369.03-11.39 367.12-16.37L367.12-16.37L367.12-16.37Q365.20-21.34 365.20-27.08L365.20-27.08L365.20-27.08Q365.20-32.54 366.97-37.42L366.97-37.42L366.97-37.42Q368.74-42.30 371.81-45.99L371.81-45.99L371.81-45.99Q374.87-49.67 378.94-51.97L378.94-51.97L378.94-51.97Q383.00-54.26 387.69-54.55L387.69-54.55L387.69-45.36L387.69-45.36Q384.15-44.69 381.86-42.49L381.86-42.49L381.86-42.49Q379.56-40.29 378.27-37.47L378.27-37.47L378.27-37.47Q376.97-34.64 376.45-31.68L376.45-31.68L376.45-31.68Q375.92-28.71 375.92-26.61L375.92-26.61L375.92-26.61Q375.92-22.87 376.83-19.67L376.83-19.67L376.83-19.67Q377.74-16.46 379.65-14.12L379.65-14.12L379.65-14.12Q381.57-11.77 384.39-10.38L384.39-10.38L384.39-10.38Q387.21-9.00 391.23-9.00ZM456.89 0L456.89-70.53L468.56-70.53L487.51-26.99L487.51-9.28L484.45-9.28L468.56-48.52L468.56 0L456.89 0ZM491.44-26.80L510.38-70.53L522.06-70.53L522.06 0L510.38 0L510.38-48.52L494.59-9.28L491.44-9.28L491.44-26.80ZM564.46-45.27L564.46-54.26L564.46-54.26Q569.72-53.98 574.03-51.73L574.03-51.73L574.03-51.73Q578.33-49.48 581.25-45.79L581.25-45.79L581.25-45.79Q584.17-42.11 585.80-37.23L585.80-37.23L585.80-37.23Q587.43-32.35 587.43-26.80L587.43-26.80L587.43-26.80Q587.43-21.25 585.75-16.41L585.75-16.41L585.75-16.41Q584.08-11.58 581.11-7.99L581.11-7.99L581.11-7.99Q578.14-4.40 573.84-2.20L573.84-2.20L573.84-2.20Q569.53 0 564.46 0.38L564.46 0.38L564.46-8.80L564.46-8.80Q569.24-9.86 572.26-14.83L572.26-14.83L572.26-14.83Q575.27-19.81 575.27-26.80L575.27-26.80L575.27-26.80Q575.27-30.34 574.55-33.45L574.55-33.45L574.55-33.45Q573.84-36.56 572.40-39.05L572.40-39.05L572.40-39.05Q570.96-41.54 568.96-43.16L568.96-43.16L568.96-43.16Q566.95-44.79 564.46-45.27L564.46-45.27ZM537.76-26.99L537.76-26.99L537.76-26.99Q537.76-32.54 539.38-37.32L539.38-37.32L539.38-37.32Q541.01-42.11 544.02-45.70L544.02-45.70L544.02-45.70Q547.04-49.29 551.25-51.49L551.25-51.49L551.25-51.49Q555.46-53.69 560.53-54.17L560.53-54.17L560.53-45.27L560.53-45.27Q555.75-44.21 552.88-39.24L552.88-39.24L552.88-39.24Q550.01-34.26 550.01-27.28L550.01-27.28L550.01-27.28Q550.01-23.73 550.72-20.58L550.72-20.58L550.72-20.58Q551.44-17.42 552.78-14.93L552.78-14.93L552.78-14.93Q554.12-12.44 556.08-10.81L556.08-10.81L556.08-10.81Q558.04-9.19 560.53-8.80L560.53-8.80L560.53 0.38L560.53 0.38Q555.27 0 551.06-2.25L551.06-2.25L551.06-2.25Q546.85-4.50 543.88-8.13L543.88-8.13L543.88-8.13Q540.91-11.77 539.33-16.65L539.33-16.65L539.33-16.65Q537.76-21.53 537.76-26.99ZM618.82 0.38L599.87-53.98L612.98-53.98L624.37-15.60L624.37 0.38L618.82 0.38ZM628.29-15.60L639.78-53.98L652.79-53.98L633.84 0.38L628.29 0.38L628.29-15.60ZM678.25-53.98L678.25 0L666.57 0L666.57-53.98L678.25-53.98ZM679.30-71.20L679.30-71.20L679.30-71.20Q679.30-68.33 677.29-66.37L677.29-66.37L677.29-66.37Q675.28-64.41 672.41-64.41L672.41-64.41L672.41-64.41Q669.54-64.41 667.58-66.42L667.58-66.42L667.58-66.42Q665.62-68.43 665.62-71.20L665.62-71.20L665.62-71.20Q665.62-74.07 667.63-76.08L667.63-76.08L667.63-76.08Q669.63-78.09 672.41-78.09L672.41-78.09L672.41-78.09Q675.28-78.09 677.29-76.08L677.29-76.08L677.29-76.08Q679.30-74.07 679.30-71.20ZM719.59-45.46L719.59-54.46L719.59-54.46Q724.76-53.98 728.92-51.68L728.92-51.68L728.92-51.68Q733.09-49.38 736.05-45.75L736.05-45.75L736.05-45.75Q739.02-42.11 740.60-37.42L740.60-37.42L740.60-37.42Q742.18-32.73 742.18-27.66L742.18-27.66L742.18-27.66Q742.18-25.36 741.89-23.06L741.89-23.06L709.06-23.06L709.06-31.49L731.17-31.49L731.17-31.49Q731.17-33.97 730.36-36.27L730.36-36.27L730.36-36.27Q729.54-38.57 727.97-40.53L727.97-40.53L727.97-40.53Q726.39-42.49 724.28-43.83L724.28-43.83L724.28-43.83Q722.18-45.17 719.59-45.46L719.59-45.46ZM719.21-9.00L719.21-9.00L719.21-9.00Q720.26-9.00 721.84-9.24L721.84-9.24L721.84-9.24Q723.42-9.47 725.19-10.10L725.19-10.10L725.19-10.10Q726.96-10.72 728.73-11.68L728.73-11.68L728.73-11.68Q730.50-12.63 731.84-13.97L731.84-13.97L736.05-7.56L736.05-7.56Q732.89-3.64 728.68-1.63L728.68-1.63L728.68-1.63Q724.47 0.38 717.96 0.38L717.96 0.38L717.96 0.38Q712.70 0.38 708.11-1.77L708.11-1.77L708.11-1.77Q703.51-3.92 700.26-7.66L700.26-7.66L700.26-7.66Q697.01-11.39 695.09-16.37L695.09-16.37L695.09-16.37Q693.18-21.34 693.18-27.08L693.18-27.08L693.18-27.08Q693.18-32.54 694.95-37.42L694.95-37.42L694.95-37.42Q696.72-42.30 699.78-45.99L699.78-45.99L699.78-45.99Q702.84-49.67 706.91-51.97L706.91-51.97L706.91-51.97Q710.98-54.26 715.67-54.55L715.67-54.55L715.67-45.36L715.67-45.36Q712.13-44.69 709.83-42.49L709.83-42.49L709.83-42.49Q707.53-40.29 706.24-37.47L706.24-37.47L706.24-37.47Q704.95-34.64 704.42-31.68L704.42-31.68L704.42-31.68Q703.90-28.71 703.90-26.61L703.90-26.61L703.90-26.61Q703.90-22.87 704.81-19.67L704.81-19.67L704.81-19.67Q705.71-16.46 707.63-14.12L707.63-14.12L707.63-14.12Q709.54-11.77 712.37-10.38L712.37-10.38L712.37-10.38Q715.19-9.00 719.21-9.00ZM777.68 0.48L777.68 0.48L777.68 0.48Q772.32 0.48 768.30-1.87L768.30-1.87L768.30-1.87Q764.29-4.21 761.61-8.13L761.61-8.13L761.61-8.13Q758.93-12.06 757.68-17.13L757.68-17.13L757.68-17.13Q756.44-22.20 756.44-27.75L756.44-27.75L756.44-27.75Q756.44-35.22 758.50-40.29L758.50-40.29L758.50-40.29Q760.55-45.36 763.76-48.57L763.76-48.57L763.76-48.57Q766.96-51.78 770.94-53.12L770.94-53.12L770.94-53.12Q774.91-54.46 778.74-54.46L778.74-54.46L778.74-54.46Q781.70-54.46 784.38-53.79L784.38-53.79L784.38-53.79Q787.06-53.12 789.26-51.87L789.26-51.87L789.26-41.73L789.26-41.73Q787.73-43.45 785.67-44.50L785.67-44.50L785.67-44.50Q783.62-45.55 781.22-45.55L781.22-45.55L781.22-45.55Q778.35-45.55 776.01-44.07L776.01-44.07L776.01-44.07Q773.66-42.59 772.04-40.10L772.04-40.10L772.04-40.10Q770.41-37.61 769.55-34.26L769.55-34.26L769.55-34.26Q768.69-30.91 768.69-27.18L768.69-27.18L768.69-27.18Q768.69-23.35 769.60-19.95L769.60-19.95L769.60-19.95Q770.51-16.56 772.18-14.07L772.18-14.07L772.18-14.07Q773.86-11.58 776.20-10.10L776.20-10.10L776.20-10.10Q778.54-8.61 781.42-8.61L781.42-8.61L781.42-8.61Q783.81-8.61 785.72-9.62L785.72-9.62L785.72-9.62Q787.64-10.62 789.26-12.25L789.26-12.25L789.26-2.30L789.26-2.30Q786.97-1.15 784-0.33L784-0.33L784-0.33Q781.03 0.48 777.68 0.48ZM794.43-53.98L804.77-53.98L804.67 0L804.67 0Q804.29 5.84 802.33 9.95L802.33 9.95L802.33 9.95Q800.37 14.07 797.30 16.75L797.30 16.75L797.30 16.75Q794.24 19.43 790.22 20.58L790.22 20.58L790.22 20.58Q786.20 21.72 781.61 21.72L781.61 21.72L781.61 21.72Q776.25 21.72 771.03 19.86L771.03 19.86L771.03 19.86Q765.82 17.99 762.37 13.59L762.37 13.59L769.07 6.99L769.07 6.99Q770.03 8.61 771.51 9.67L771.51 9.67L771.51 9.67Q772.99 10.72 774.57 11.29L774.57 11.29L774.57 11.29Q776.15 11.87 777.73 12.11L777.73 12.11L777.73 12.11Q779.31 12.35 780.55 12.35L780.55 12.35L780.55 12.35Q786.49 12.35 789.84 8.90L789.84 8.90L789.84 8.90Q793.19 5.46 793.19-2.87L793.19-2.87L793.19-48.52L794.43-53.98ZM848.79-45.27L848.79-54.26L848.79-54.26Q854.05-53.98 858.36-51.73L858.36-51.73L858.36-51.73Q862.67-49.48 865.59-45.79L865.59-45.79L865.59-45.79Q868.51-42.11 870.13-37.23L870.13-37.23L870.13-37.23Q871.76-32.35 871.76-26.80L871.76-26.80L871.76-26.80Q871.76-21.25 870.08-16.41L870.08-16.41L870.08-16.41Q868.41-11.58 865.44-7.99L865.44-7.99L865.44-7.99Q862.48-4.40 858.17-2.20L858.17-2.20L858.17-2.20Q853.86 0 848.79 0.38L848.79 0.38L848.79-8.80L848.79-8.80Q853.58-9.86 856.59-14.83L856.59-14.83L856.59-14.83Q859.61-19.81 859.61-26.80L859.61-26.80L859.61-26.80Q859.61-30.34 858.89-33.45L858.89-33.45L858.89-33.45Q858.17-36.56 856.73-39.05L856.73-39.05L856.73-39.05Q855.30-41.54 853.29-43.16L853.29-43.16L853.29-43.16Q851.28-44.79 848.79-45.27L848.79-45.27ZM822.09-26.99L822.09-26.99L822.09-26.99Q822.09-32.54 823.72-37.32L823.72-37.32L823.72-37.32Q825.34-42.11 828.36-45.70L828.36-45.70L828.36-45.70Q831.37-49.29 835.58-51.49L835.58-51.49L835.58-51.49Q839.79-53.69 844.87-54.17L844.87-54.17L844.87-45.27L844.87-45.27Q840.08-44.21 837.21-39.24L837.21-39.24L837.21-39.24Q834.34-34.26 834.34-27.28L834.34-27.28L834.34-27.28Q834.34-23.73 835.06-20.58L835.06-20.58L835.06-20.58Q835.78-17.42 837.12-14.93L837.12-14.93L837.12-14.93Q838.46-12.44 840.42-10.81L840.42-10.81L840.42-10.81Q842.38-9.19 844.87-8.80L844.87-8.80L844.87 0.38L844.87 0.38Q839.60 0 835.39-2.25L835.39-2.25L835.39-2.25Q831.18-4.50 828.21-8.13L828.21-8.13L828.21-8.13Q825.25-11.77 823.67-16.65L823.67-16.65L823.67-16.65Q822.09-21.53 822.09-26.99ZM911.86-45.46L911.86-54.46L911.86-54.46Q917.03-53.98 921.19-51.68L921.19-51.68L921.19-51.68Q925.35-49.38 928.32-45.75L928.32-45.75L928.32-45.75Q931.29-42.11 932.87-37.42L932.87-37.42L932.87-37.42Q934.45-32.73 934.45-27.66L934.45-27.66L934.45-27.66Q934.45-25.36 934.16-23.06L934.16-23.06L901.33-23.06L901.33-31.49L923.44-31.49L923.44-31.49Q923.44-33.97 922.63-36.27L922.63-36.27L922.63-36.27Q921.81-38.57 920.23-40.53L920.23-40.53L920.23-40.53Q918.65-42.49 916.55-43.83L916.55-43.83L916.55-43.83Q914.44-45.17 911.86-45.46L911.86-45.46ZM911.48-9.00L911.48-9.00L911.48-9.00Q912.53-9.00 914.11-9.24L914.11-9.24L914.11-9.24Q915.69-9.47 917.46-10.10L917.46-10.10L917.46-10.10Q919.23-10.72 921.00-11.68L921.00-11.68L921.00-11.68Q922.77-12.63 924.11-13.97L924.11-13.97L928.32-7.56L928.32-7.56Q925.16-3.64 920.95-1.63L920.95-1.63L920.95-1.63Q916.74 0.38 910.23 0.38L910.23 0.38L910.23 0.38Q904.97 0.38 900.38-1.77L900.38-1.77L900.38-1.77Q895.78-3.92 892.53-7.66L892.53-7.66L892.53-7.66Q889.27-11.39 887.36-16.37L887.36-16.37L887.36-16.37Q885.45-21.34 885.45-27.08L885.45-27.08L885.45-27.08Q885.45-32.54 887.22-37.42L887.22-37.42L887.22-37.42Q888.99-42.30 892.05-45.99L892.05-45.99L892.05-45.99Q895.11-49.67 899.18-51.97L899.18-51.97L899.18-51.97Q903.25-54.26 907.94-54.55L907.94-54.55L907.94-45.36L907.94-45.36Q904.39-44.69 902.10-42.49L902.10-42.49L902.10-42.49Q899.80-40.29 898.51-37.47L898.51-37.47L898.51-37.47Q897.22-34.64 896.69-31.68L896.69-31.68L896.69-31.68Q896.16-28.71 896.16-26.61L896.16-26.61L896.16-26.61Q896.16-22.87 897.07-19.67L897.07-19.67L897.07-19.67Q897.98-16.46 899.90-14.12L899.90-14.12L899.90-14.12Q901.81-11.77 904.63-10.38L904.63-10.38L904.63-10.38Q907.46-9.00 911.48-9.00ZM950.33-53.98L960.67-53.98L961.91-48.43L961.91-19.14L961.91-18.95L961.91 0L950.33 0L950.33-53.98ZM965.84-41.82L965.84-51.58L965.84-51.58Q968.23-52.92 971.58-53.64L971.58-53.64L971.58-53.64Q974.93-54.36 980.67-54.36L980.67-54.36L980.67-42.30L980.67-42.30Q977.99-43.07 974.16-43.16L974.16-43.16L974.16-43.16Q972.06-43.16 969.90-42.83L969.90-42.83L969.90-42.83Q967.75-42.49 965.84-41.82L965.84-41.82ZM991.77-38.57L991.77-38.57L991.77-38.57Q991.77-42.21 993.11-45.12L993.11-45.12L993.11-45.12Q994.45-48.04 996.84-50.10L996.84-50.10L996.84-50.10Q999.24-52.16 1002.25-53.35L1002.25-53.35L1002.25-53.35Q1005.27-54.55 1008.52-54.84L1008.52-54.84L1008.52-45.27L1008.52-45.27Q1006.03-44.79 1004.64-43.26L1004.64-43.26L1004.64-43.26Q1003.26-41.73 1003.26-38.95L1003.26-38.95L1003.26-38.95Q1003.26-36.65 1004.74-35.27L1004.74-35.27L1004.74-35.27Q1006.22-33.88 1008.52-32.83L1008.52-32.83L1008.52-22.59L1008.52-22.59Q1006.89-23.06 1005.22-23.69L1005.22-23.69L1005.22-23.69Q1003.54-24.31 1001.92-25.07L1001.92-25.07L1001.92-25.07Q996.84-27.75 994.31-30.72L994.31-30.72L994.31-30.72Q991.77-33.69 991.77-38.57ZM1027.47-50.53L1023.74-42.59L1023.74-42.59Q1021.15-43.93 1018.23-44.60L1018.23-44.60L1018.23-44.60Q1015.31-45.27 1012.44-45.46L1012.44-45.46L1012.44-54.93L1012.44-54.93Q1016.75-54.74 1020.39-53.74L1020.39-53.74L1020.39-53.74Q1024.02-52.73 1027.47-50.53L1027.47-50.53ZM991.96-4.31L996.84-12.06L996.84-12.06Q998.76-10.72 1001.39-9.57L1001.39-9.57L1001.39-9.57Q1004.02-8.42 1008.04-8.42L1008.04-8.42L1008.52-8.42L1008.52 0.48L1008.52 0.48Q1006.13 0.48 1004.12 0.33L1004.12 0.33L1004.12 0.33Q1002.11 0.19 1000.15-0.33L1000.15-0.33L1000.15-0.33Q998.18-0.86 996.17-1.82L996.17-1.82L996.17-1.82Q994.16-2.78 991.96-4.31L991.96-4.31ZM1012.44-21.15L1012.44-31.29L1012.44-31.29Q1015.31-30.34 1018.28-29.19L1018.28-29.19L1018.28-29.19Q1021.25-28.04 1023.69-26.32L1023.69-26.32L1023.69-26.32Q1026.13-24.60 1027.71-22.06L1027.71-22.06L1027.71-22.06Q1029.29-19.52 1029.29-15.70L1029.29-15.70L1029.29-15.70Q1029.29-11.96 1027.95-9.19L1027.95-9.19L1027.95-9.19Q1026.61-6.41 1024.36-4.40L1024.36-4.40L1024.36-4.40Q1022.11-2.39 1019.05-1.24L1019.05-1.24L1019.05-1.24Q1015.98-0.10 1012.44 0.29L1012.44 0.29L1012.44-8.80L1012.44-8.80Q1015.70-9.38 1017.47-10.86L1017.47-10.86L1017.47-10.86Q1019.24-12.35 1019.24-14.83L1019.24-14.83L1019.24-14.83Q1019.24-17.32 1017.28-18.71L1017.28-18.71L1017.28-18.71Q1015.31-20.10 1012.44-21.15L1012.44-21.15ZM1118.87-64.03L1110.92-56.94L1110.92-56.94Q1108.63-59.72 1105.66-60.96L1105.66-60.96L1105.66-60.96Q1102.69-62.21 1099.53-62.21L1099.53-62.21L1099.15-62.21L1099.15-71.68L1099.25-71.68L1099.25-71.68Q1104.99-71.68 1109.96-69.77L1109.96-69.77L1109.96-69.77Q1114.94-67.85 1118.87-64.03L1118.87-64.03ZM1069.87-35.60L1069.87-35.60L1069.87-35.60Q1069.87-43.83 1071.78-50.20L1071.78-50.20L1071.78-50.20Q1073.69-56.56 1077.04-61.01L1077.04-61.01L1077.04-61.01Q1080.39-65.46 1085.08-68.04L1085.08-68.04L1085.08-68.04Q1089.77-70.63 1095.23-71.30L1095.23-71.30L1095.23-61.73L1095.23-61.73Q1092.36-60.96 1089.92-59.14L1089.92-59.14L1089.92-59.14Q1087.47-57.33 1085.61-54.12L1085.61-54.12L1085.61-54.12Q1083.74-50.91 1082.69-46.37L1082.69-46.37L1082.69-46.37Q1081.64-41.82 1081.54-35.60L1081.54-35.60L1081.54-35.60Q1081.64-29.38 1082.69-24.69L1082.69-24.69L1082.69-24.69Q1083.74-20.00 1085.61-16.60L1085.61-16.60L1085.61-16.60Q1087.47-13.21 1089.92-11.20L1089.92-11.20L1089.92-11.20Q1092.36-9.19 1095.23-8.42L1095.23-8.42L1095.23 0.29L1095.23 0.29Q1089.77-0.38 1085.08-3.01L1085.08-3.01L1085.08-3.01Q1080.39-5.65 1077.04-10.14L1077.04-10.14L1077.04-10.14Q1073.69-14.64 1071.78-21.01L1071.78-21.01L1071.78-21.01Q1069.87-27.37 1069.87-35.60ZM1099.15-36.37L1122.50-36.37L1122.50-9.09L1122.50-9.09Q1120.30-6.32 1117.57-4.55L1117.57-4.55L1117.57-4.55Q1114.85-2.78 1111.83-1.63L1111.83-1.63L1111.83-1.63Q1108.82-0.48 1105.61 0L1105.61 0L1105.61 0Q1102.40 0.48 1099.25 0.48L1099.25 0.48L1099.15 0.48L1099.15-7.94L1099.15-7.94Q1100.30-7.94 1101.97-8.09L1101.97-8.09L1101.97-8.09Q1103.65-8.23 1105.42-8.57L1105.42-8.57L1105.42-8.57Q1107.19-8.90 1108.77-9.47L1108.77-9.47L1108.77-9.47Q1110.35-10.05 1111.11-11.10L1111.11-11.10L1111.11-28.52L1099.15-28.52L1099.15-36.37ZM1149.78-53.98L1149.78-24.60L1149.78-24.60Q1149.78-21.25 1150.06-18.33L1150.06-18.33L1150.06-18.33Q1150.35-15.41 1151.31-13.21L1151.31-13.21L1151.31-13.21Q1152.27-11.01 1154.18-9.67L1154.18-9.67L1154.18-9.67Q1156.09-8.33 1159.25-8.33L1159.25-8.33L1159.25-8.33Q1160.50-8.33 1162.79-8.71L1162.79-8.71L1162.79-8.71Q1165.09-9.09 1167.20-9.95L1167.20-9.95L1167.20-2.87L1167.20-2.87Q1164.71-1.53 1161.79-0.53L1161.79-0.53L1161.79-0.53Q1158.87 0.48 1156.00 0.48L1156.00 0.48L1156.00 0.48Q1153.70 0.48 1151.88 0.05L1151.88 0.05L1151.88 0.05Q1150.06-0.38 1148.49-1.29L1148.49-1.29L1148.49-1.29Q1146.91-2.20 1145.47-3.35L1145.47-3.35L1145.47-3.35Q1144.04-4.50 1142.60-5.93L1142.60-5.93L1142.60-5.93Q1140.97-7.56 1140.02-9.71L1140.02-9.71L1140.02-9.71Q1139.06-11.87 1138.63-14.21L1138.63-14.21L1138.63-14.21Q1138.20-16.56 1138.15-18.95L1138.15-18.95L1138.15-18.95Q1138.10-21.34 1138.10-23.64L1138.10-23.64L1138.10-53.98L1149.78-53.98ZM1171.12-53.98L1182.79-53.98L1182.79 0L1172.36 0L1171.12-5.55L1171.12-53.98ZM1210.64-53.98L1210.64 0L1198.97 0L1198.97-53.98L1210.64-53.98ZM1211.70-71.20L1211.70-71.20L1211.70-71.20Q1211.70-68.33 1209.69-66.37L1209.69-66.37L1209.69-66.37Q1207.68-64.41 1204.81-64.41L1204.81-64.41L1204.81-64.41Q1201.94-64.41 1199.97-66.42L1199.97-66.42L1199.97-66.42Q1198.01-68.43 1198.01-71.20L1198.01-71.20L1198.01-71.20Q1198.01-74.07 1200.02-76.08L1200.02-76.08L1200.02-76.08Q1202.03-78.09 1204.81-78.09L1204.81-78.09L1204.81-78.09Q1207.68-78.09 1209.69-76.08L1209.69-76.08L1209.69-76.08Q1211.70-74.07 1211.70-71.20ZM1260.22-74.36L1271.89-74.36L1271.89 0L1260.89 0L1260.22-6.41L1260.22-74.36ZM1223.47-27.75L1223.47-27.75L1223.47-27.75Q1223.47-35.22 1225.53-40.29L1225.53-40.29L1225.53-40.29Q1227.58-45.36 1230.84-48.52L1230.84-48.52L1230.84-48.52Q1234.09-51.68 1238.06-53.07L1238.06-53.07L1238.06-53.07Q1242.04-54.46 1245.86-54.46L1245.86-54.46L1245.86-54.46Q1248.83-54.46 1251.51-53.79L1251.51-53.79L1251.51-53.79Q1254.19-53.12 1256.29-51.87L1256.29-51.87L1256.29-41.73L1256.29-41.73Q1254.67-43.45 1252.66-44.50L1252.66-44.50L1252.66-44.50Q1250.65-45.55 1248.16-45.55L1248.16-45.55L1248.16-45.55Q1245.19-45.55 1242.90-44.07L1242.90-44.07L1242.90-44.07Q1240.60-42.59 1239.02-40.00L1239.02-40.00L1239.02-40.00Q1237.44-37.42 1236.58-34.07L1236.58-34.07L1236.58-34.07Q1235.72-30.72 1235.72-26.89L1235.72-26.89L1235.72-26.89Q1235.72-23.06 1236.68-19.76L1236.68-19.76L1236.68-19.76Q1237.63-16.46 1239.26-13.97L1239.26-13.97L1239.26-13.97Q1240.89-11.48 1243.23-10.05L1243.23-10.05L1243.23-10.05Q1245.58-8.61 1248.35-8.61L1248.35-8.61L1248.35-8.61Q1253.04-8.61 1256.29-12.35L1256.29-12.35L1256.29-2.39L1256.29-2.39Q1254.00-1.15 1250.98-0.33L1250.98-0.33L1250.98-0.33Q1247.97 0.48 1244.62 0.48L1244.62 0.48L1244.62 0.48Q1240.79 0.48 1237.11-0.91L1237.11-0.91L1237.11-0.91Q1233.42-2.30 1230.55-5.46L1230.55-5.46L1230.55-5.46Q1226.91-9.57 1225.19-15.65L1225.19-15.65L1225.19-15.65Q1223.47-21.72 1223.47-27.75ZM1313.33-45.46L1313.33-54.46L1313.33-54.46Q1318.50-53.98 1322.67-51.68L1322.67-51.68L1322.67-51.68Q1326.83-49.38 1329.79-45.75L1329.79-45.75L1329.79-45.75Q1332.76-42.11 1334.34-37.42L1334.34-37.42L1334.34-37.42Q1335.92-32.73 1335.92-27.66L1335.92-27.66L1335.92-27.66Q1335.92-25.36 1335.63-23.06L1335.63-23.06L1302.81-23.06L1302.81-31.49L1324.91-31.49L1324.91-31.49Q1324.91-33.97 1324.10-36.27L1324.10-36.27L1324.10-36.27Q1323.29-38.57 1321.71-40.53L1321.71-40.53L1321.71-40.53Q1320.13-42.49 1318.02-43.83L1318.02-43.83L1318.02-43.83Q1315.92-45.17 1313.33-45.46L1313.33-45.46ZM1312.95-9.00L1312.95-9.00L1312.95-9.00Q1314.00-9.00 1315.58-9.24L1315.58-9.24L1315.58-9.24Q1317.16-9.47 1318.93-10.10L1318.93-10.10L1318.93-10.10Q1320.70-10.72 1322.47-11.68L1322.47-11.68L1322.47-11.68Q1324.24-12.63 1325.58-13.97L1325.58-13.97L1329.79-7.56L1329.79-7.56Q1326.64-3.64 1322.43-1.63L1322.43-1.63L1322.43-1.63Q1318.21 0.38 1311.71 0.38L1311.71 0.38L1311.71 0.38Q1306.44 0.38 1301.85-1.77L1301.85-1.77L1301.85-1.77Q1297.26-3.92 1294.00-7.66L1294.00-7.66L1294.00-7.66Q1290.75-11.39 1288.83-16.37L1288.83-16.37L1288.83-16.37Q1286.92-21.34 1286.92-27.08L1286.92-27.08L1286.92-27.08Q1286.92-32.54 1288.69-37.42L1288.69-37.42L1288.69-37.42Q1290.46-42.30 1293.52-45.99L1293.52-45.99L1293.52-45.99Q1296.59-49.67 1300.65-51.97L1300.65-51.97L1300.65-51.97Q1304.72-54.26 1309.41-54.55L1309.41-54.55L1309.41-45.36L1309.41-45.36Q1305.87-44.69 1303.57-42.49L1303.57-42.49L1303.57-42.49Q1301.28-40.29 1299.98-37.47L1299.98-37.47L1299.98-37.47Q1298.69-34.64 1298.17-31.68L1298.17-31.68L1298.17-31.68Q1297.64-28.71 1297.64-26.61L1297.64-26.61L1297.64-26.61Q1297.64-22.87 1298.55-19.67L1298.55-19.67L1298.55-19.67Q1299.46-16.46 1301.37-14.12L1301.37-14.12L1301.37-14.12Q1303.29-11.77 1306.11-10.38L1306.11-10.38L1306.11-10.38Q1308.93-9.00 1312.95-9.00Z" fill="url(#editing-shiny-gradient2)"></path></g></g><style>text {
  font-size: 64px;
  font-family: Arial Black;
  dominant-baseline: central;
  text-anchor: middle;
}</style></svg>