<svg width="225.12617187499998px" height="155.59619140625px" xmlns="http://www.w3.org/2000/svg" viewBox="137.43691406250002 -2.798095703125 225.12617187499998 155.59619140625" style="background: none; font-size: 54px;" preserveAspectRatio="xMidYMid"><defs><linearGradient id="editing-shiny-gradient" x1="0.4912737967813583" x2="0.5087262032186417" y1="0.00007615242180436521" y2="0.9999238475781956" gradientUnits="objectBoundingBox"><stop offset="0.0" stop-color="#081c24"></stop><stop offset="0.5" stop-color="#000000"></stop><stop offset="1.0" stop-color="#01d277"></stop></linearGradient><linearGradient id="editing-shiny-gradient2" x1="0" x2="0" y1="0" y2="1"><stop offset="0.2" stop-color="#fff" stop-opacity="0.8"></stop><stop offset="0.8" stop-color="#fff" stop-opacity="0"></stop></linearGradient><filter id="editing-shiny2" x="-100%" y="-100%" width="300%" height="300%"><feMorphology operator="erode" radius="2"></feMorphology></filter><filter id="editing-shiny" x="-100%" y="-100%" width="300%" height="300%"><feFlood flood-color="#fff" result="flood"></feFlood><feConvolveMatrix in="SourceGraphic" result="conv" order="8,8" divisor="1" kernelMatrix="0 0 0 0 0 0 0 0 0 0 0 1 1 0 0 0 0 0 0 1 1 0 0 0 0 0 1 0 0 1 0 0 0 0 1 0 0 1 0 0 0 1 0 0 0 0 1 0 0 1 1 0 0 1 1 0 0 0 0 1 1 0 0 0 "></feConvolveMatrix><feOffset dx="0" dy="4" in="conv" result="offset"></feOffset><feComposite operator="in" in="flood" in2="offset" result="comp"></feComposite><feGaussianBlur in="offset" stdDeviation="3" result="shadow"></feGaussianBlur><feColorMatrix in="shadow" type="matrix" values="0.7 0 0 0 0  0 0.7 0 0 0  0 0 0.7 0 0  0 0 0 0.3 0" result="dark-shadow"></feColorMatrix><feOffset dx="0" dy="4" in="dark-shadow" result="offset-shadow"></feOffset><feOffset dx="0" dy="2" in="conv" result="offset-2"></feOffset><feComposite operator="out" in="offset" in2="offset-2" result="edge-diff"></feComposite><feGaussianBlur in="edge-diff" stdDeviation="1" result="edge-blur"></feGaussianBlur><feColorMatrix in="edge-blur" result="edge-shadow" type="matrix" values="0 0 0 0 0  0 0 0 0 0  0 0 0 0 0  0 0 0 0.5 0"></feColorMatrix><feComposite operator="in" in="edge-shadow" in2="offset" result="edge-shadow-in"></feComposite><feOffset dx="0" dy="1" in="edge-shadow-in" result="edge-shadow-final"></feOffset><feMerge result="out"><feMergeNode in="offset-shadow"></feMergeNode><feMergeNode in="comp"></feMergeNode><feMergeNode in="edge-shadow-final"></feMergeNode><feMergeNode in="SourceGraphic"></feMergeNode></feMerge></filter></defs><g filter="url(#editing-shiny)"><g transform="translate(176.5103108882904, 111.5134391784668)"><path d="M39.10-18.33L39.10-18.33Q37.79-12.97 35.39-9.21L35.39-9.21L35.39-9.21Q32.99-5.45 29.75-3.01L29.75-3.01L29.75-3.01Q26.51-0.56 22.84 0.56L22.84 0.56L22.84 0.56Q19.18 1.69 15.51 1.69L15.51 1.69L15.51 1.69Q13.35 1.69 11.09 0.99L11.09 0.99L11.09 0.99Q8.84 0.28 7.05-1.13L7.05-1.13L7.05-1.13Q5.26-2.54 4.09-4.70L4.09-4.70L4.09-4.70Q2.91-6.86 2.91-9.78L2.91-9.78L2.91-9.78Q2.91-10.15 2.91-10.53L2.91-10.53L2.91-10.53Q2.91-10.90 3.01-11.28L3.01-11.28L3.01-11.28Q3.38-15.13 4.23-20.59L4.23-20.59L4.23-20.59Q5.08-26.04 6.02-31.96L6.02-31.96L6.02-31.96Q6.96-37.88 8.08-43.85L8.08-43.85L8.08-43.85Q9.21-49.82 10.11-54.71L10.11-54.71L10.11-54.71Q11.00-59.60 11.66-62.84L11.66-62.84L11.66-62.84Q12.31-66.08 12.50-66.83L12.50-66.83L12.50-66.83Q14.48-67.02 17.20-67.30L17.20-67.30L17.20-67.30Q19.93-67.59 22.28-67.77L22.28-67.77L22.28-67.77Q25.19-68.06 28.01-68.34L28.01-68.34L28.01-68.34Q25.57-56.96 23.69-47.75L23.69-47.75L23.69-47.75Q22.84-43.80 22.04-39.86L22.04-39.86L22.04-39.86Q21.24-35.91 20.54-32.62L20.54-32.62L20.54-32.62Q19.83-29.33 19.32-26.93L19.32-26.93L19.32-26.93Q18.80-24.53 18.47-23.03L18.47-23.03L18.47-23.03Q18.14-21.53 17.72-19.22L17.72-19.22L17.72-19.22Q17.30-16.92 17.30-15.04L17.30-15.04L17.30-15.04Q17.30-13.54 18.05-12.55L18.05-12.55L18.05-12.55Q18.80-11.56 19.93-11.56L19.93-11.56L19.93-11.56Q21.53-11.56 22.56-12.83L22.56-12.83L22.56-12.83Q23.59-14.10 24.30-15.89L24.30-15.89L24.30-15.89Q25.00-17.67 25.33-19.50L25.33-19.50L25.33-19.50Q25.66-21.34 25.94-22.37L25.94-22.37L25.94-22.37Q26.51-25.10 27.21-28.43L27.21-28.43L27.21-28.43Q27.92-31.77 28.62-35.39L28.62-35.39L28.62-35.39Q29.33-39.01 30.03-42.77L30.03-42.77L30.03-42.77Q30.74-46.53 31.40-50.10L31.40-50.10L31.40-50.10Q32.99-58.37 34.50-67.21L34.50-67.21L48.79-68.15L48.79-68.15Q48.79-68.15 48.32-65.71L48.32-65.71L48.32-65.71Q47.85-63.26 47.09-59.22L47.09-59.22L47.09-59.22Q46.34-55.18 45.45-50.01L45.45-50.01L45.45-50.01Q44.56-44.84 43.43-39.24L43.43-39.24L43.43-39.24Q42.30-33.65 41.22-28.25L41.22-28.25L41.22-28.25Q40.14-22.84 39.10-18.33L39.10-18.33ZM52.08-1.60L36.57-0.56L36.57-0.56Q40.70-13.07 44.46-25.10L44.46-25.10L44.46-25.10Q46.06-30.17 47.75-35.72L47.75-35.72L47.75-35.72Q49.44-41.27 51.14-46.72L51.14-46.72L51.14-46.72Q52.83-52.17 54.29-57.25L54.29-57.25L54.29-57.25Q55.74-62.32 56.87-66.65L56.87-66.65L56.87-66.65Q62.04-66.65 66.65-67.21L66.65-67.21L66.65-67.21Q71.25-67.77 76.61-68.24L76.61-68.24L76.61-68.24Q76.33-66.18 76.00-63.59L76.00-63.59L76.00-63.59Q75.67-61.01 75.25-58.19L75.25-58.19L75.25-58.19Q74.82-55.37 74.35-52.36L74.35-52.36L74.35-52.36Q73.88-49.35 73.23-44.65L73.23-44.65L73.23-44.65Q72.57-39.95 71.44-32.90L71.44-32.90L72.66-32.90L72.66-32.90Q75.39-40.04 77.17-44.79L77.17-44.79L77.17-44.79Q78.96-49.54 80.09-52.55L80.09-52.55L80.09-52.55Q81.22-55.55 82.39-58.42L82.39-58.42L82.39-58.42Q83.57-61.29 84.65-63.87L84.65-63.87L84.65-63.87Q85.73-66.46 86.67-68.43L86.67-68.43L86.67-68.43Q89.02-68.62 91.09-68.90L91.09-68.90L91.09-68.90Q93.15-69.18 95.22-69.51L95.22-69.51L95.22-69.51Q97.29-69.84 99.41-70.17L99.41-70.17L99.41-70.17Q101.52-70.50 104.06-70.97L104.06-70.97L104.06-70.97Q103.12-65.52 102.27-59.78L102.27-59.78L102.27-59.78Q101.43-54.05 100.77-48.36L100.77-48.36L100.77-48.36Q100.11-42.68 99.50-37.13L99.50-37.13L99.50-37.13Q98.89-31.58 98.42-26.60L98.42-26.60L98.42-26.60Q97.29-14.95 96.44-3.85L96.44-3.85L80.09-0.94L80.09-0.94Q80.09-1.41 80.23-3.48L80.23-3.48L80.23-3.48Q80.37-5.55 80.61-8.55L80.61-8.55L80.61-8.55Q80.84-11.56 81.26-15.23L81.26-15.23L81.26-15.23Q81.69-18.89 82.11-22.56L82.11-22.56L82.11-22.56Q82.53-26.23 83.00-29.66L83.00-29.66L83.00-29.66Q83.47-33.09 83.94-35.53L83.94-35.53L83.10-35.53L83.10-35.53Q81.78-31.58 80.18-27.21L80.18-27.21L80.18-27.21Q78.58-22.84 76.94-18.33L76.94-18.33L76.94-18.33Q75.29-13.82 73.70-9.49L73.70-9.49L73.70-9.49Q72.10-5.17 70.88-1.22L70.88-1.22L70.88-1.22Q67.59-1.13 65.24-0.99L65.24-0.99L65.24-0.99Q62.89-0.85 59.78-0.66L59.78-0.66L62.79-35.53L61.38-35.53L61.38-35.53Q61.19-34.31 60.44-31.44L60.44-31.44L60.44-31.44Q59.69-28.58 58.70-24.86L58.70-24.86L58.70-24.86Q57.72-21.15 56.59-17.16L56.59-17.16L56.59-17.16Q55.46-13.16 54.47-9.73L54.47-9.73L54.47-9.73Q53.49-6.30 52.83-4.09L52.83-4.09L52.83-4.09Q52.17-1.88 52.08-1.60L52.08-1.60ZM148.71-35.81L148.71-35.81Q148.05-26.23 144.95-19.13L144.95-19.13L144.95-19.13Q141.85-12.03 137.47-7.24L137.47-7.24L137.47-7.24Q133.10-2.44 128.07-0.09L128.07-0.09L128.07-0.09Q123.05 2.26 118.53 2.26L118.53 2.26L118.53 2.26Q115.06 2.26 111.91 0.75L111.91 0.75L111.91 0.75Q108.76-0.75 106.45-3.81L106.45-3.81L106.45-3.81Q104.15-6.86 102.84-11.47L102.84-11.47L102.84-11.47Q101.52-16.07 101.52-22.28L101.52-22.28L101.52-22.28Q101.52-34.40 105.00-43.43L105.00-43.43L105.00-43.43Q108.48-52.45 113.79-58.47L113.79-58.47L113.79-58.47Q119.10-64.48 125.16-67.40L125.16-67.40L125.16-67.40Q131.22-70.31 136.49-70.31L136.49-70.31L136.49-70.31Q140.25-70.31 143.02-69.00L143.02-69.00L143.02-69.00Q145.79-67.68 147.58-65.47L147.58-65.47L147.58-65.47Q149.37-63.26 150.17-60.30L150.17-60.30L150.17-60.30Q150.96-57.34 150.96-54.05L150.96-54.05L138.09-51.61L138.09-51.61Q137.24-55.37 135.83-56.96L135.83-56.96L135.83-56.96Q134.42-58.56 132.63-58.56L132.63-58.56L132.63-58.56Q130.28-58.56 127.46-55.23L127.46-55.23L127.46-55.23Q124.64-51.89 122.20-46.62L122.20-46.62L122.20-46.62Q119.76-41.36 118.06-35.06L118.06-35.06L118.06-35.06Q116.37-28.76 116.18-22.65L116.18-22.65L116.18-22.65Q116.18-16.83 117.92-14.34L117.92-14.34L117.92-14.34Q119.66-11.84 122.39-11.84L122.39-11.84L122.39-11.84Q124.27-11.84 126.29-12.78L126.29-12.78L126.29-12.78Q128.31-13.72 129.91-15.46L129.91-15.46L129.91-15.46Q131.51-17.20 132.59-19.50L132.59-19.50L132.59-19.50Q133.67-21.81 133.76-24.53L133.76-24.53L123.70-23.03L125.49-32.34L125.49-32.34Q129.91-32.90 134.14-33.46L134.14-33.46L134.14-33.46Q137.71-33.93 141.71-34.59L141.71-34.59L141.71-34.59Q145.70-35.25 148.71-35.81L148.71-35.81Z" fill="url(#editing-shiny-gradient)"></path></g></g><g filter="url(#editing-shiny2)"><g transform="translate(176.6118733882904, 111.5993766784668)"><path d="M39.10-18.33L39.10-18.33Q37.79-12.97 35.39-9.21L35.39-9.21L35.39-9.21Q32.99-5.45 29.75-3.01L29.75-3.01L29.75-3.01Q26.51-0.56 22.84 0.56L22.84 0.56L22.84 0.56Q19.18 1.69 15.51 1.69L15.51 1.69L15.51 1.69Q13.35 1.69 11.09 0.99L11.09 0.99L11.09 0.99Q8.84 0.28 7.05-1.13L7.05-1.13L7.05-1.13Q5.26-2.54 4.09-4.70L4.09-4.70L4.09-4.70Q2.91-6.86 2.91-9.78L2.91-9.78L2.91-9.78Q2.91-10.15 2.91-10.53L2.91-10.53L2.91-10.53Q2.91-10.90 3.01-11.28L3.01-11.28L3.01-11.28Q3.38-15.13 4.23-20.59L4.23-20.59L4.23-20.59Q5.08-26.04 6.02-31.96L6.02-31.96L6.02-31.96Q6.96-37.88 8.08-43.85L8.08-43.85L8.08-43.85Q9.21-49.82 10.11-54.71L10.11-54.71L10.11-54.71Q11.00-59.60 11.66-62.84L11.66-62.84L11.66-62.84Q12.31-66.08 12.50-66.83L12.50-66.83L12.50-66.83Q14.48-67.02 17.20-67.30L17.20-67.30L17.20-67.30Q19.93-67.59 22.28-67.77L22.28-67.77L22.28-67.77Q25.19-68.06 28.01-68.34L28.01-68.34L28.01-68.34Q25.57-56.96 23.69-47.75L23.69-47.75L23.69-47.75Q22.84-43.80 22.04-39.86L22.04-39.86L22.04-39.86Q21.24-35.91 20.54-32.62L20.54-32.62L20.54-32.62Q19.83-29.33 19.32-26.93L19.32-26.93L19.32-26.93Q18.80-24.53 18.47-23.03L18.47-23.03L18.47-23.03Q18.14-21.53 17.72-19.22L17.72-19.22L17.72-19.22Q17.30-16.92 17.30-15.04L17.30-15.04L17.30-15.04Q17.30-13.54 18.05-12.55L18.05-12.55L18.05-12.55Q18.80-11.56 19.93-11.56L19.93-11.56L19.93-11.56Q21.53-11.56 22.56-12.83L22.56-12.83L22.56-12.83Q23.59-14.10 24.30-15.89L24.30-15.89L24.30-15.89Q25.00-17.67 25.33-19.50L25.33-19.50L25.33-19.50Q25.66-21.34 25.94-22.37L25.94-22.37L25.94-22.37Q26.51-25.10 27.21-28.43L27.21-28.43L27.21-28.43Q27.92-31.77 28.62-35.39L28.62-35.39L28.62-35.39Q29.33-39.01 30.03-42.77L30.03-42.77L30.03-42.77Q30.74-46.53 31.40-50.10L31.40-50.10L31.40-50.10Q32.99-58.37 34.50-67.21L34.50-67.21L48.79-68.15L48.79-68.15Q48.79-68.15 48.32-65.71L48.32-65.71L48.32-65.71Q47.85-63.26 47.09-59.22L47.09-59.22L47.09-59.22Q46.34-55.18 45.45-50.01L45.45-50.01L45.45-50.01Q44.56-44.84 43.43-39.24L43.43-39.24L43.43-39.24Q42.30-33.65 41.22-28.25L41.22-28.25L41.22-28.25Q40.14-22.84 39.10-18.33L39.10-18.33ZM52.08-1.60L36.57-0.56L36.57-0.56Q40.70-13.07 44.46-25.10L44.46-25.10L44.46-25.10Q46.06-30.17 47.75-35.72L47.75-35.72L47.75-35.72Q49.44-41.27 51.14-46.72L51.14-46.72L51.14-46.72Q52.83-52.17 54.29-57.25L54.29-57.25L54.29-57.25Q55.74-62.32 56.87-66.65L56.87-66.65L56.87-66.65Q62.04-66.65 66.65-67.21L66.65-67.21L66.65-67.21Q71.25-67.77 76.61-68.24L76.61-68.24L76.61-68.24Q76.33-66.18 76.00-63.59L76.00-63.59L76.00-63.59Q75.67-61.01 75.25-58.19L75.25-58.19L75.25-58.19Q74.82-55.37 74.35-52.36L74.35-52.36L74.35-52.36Q73.88-49.35 73.23-44.65L73.23-44.65L73.23-44.65Q72.57-39.95 71.44-32.90L71.44-32.90L72.66-32.90L72.66-32.90Q75.39-40.04 77.17-44.79L77.17-44.79L77.17-44.79Q78.96-49.54 80.09-52.55L80.09-52.55L80.09-52.55Q81.22-55.55 82.39-58.42L82.39-58.42L82.39-58.42Q83.57-61.29 84.65-63.87L84.65-63.87L84.65-63.87Q85.73-66.46 86.67-68.43L86.67-68.43L86.67-68.43Q89.02-68.62 91.09-68.90L91.09-68.90L91.09-68.90Q93.15-69.18 95.22-69.51L95.22-69.51L95.22-69.51Q97.29-69.84 99.41-70.17L99.41-70.17L99.41-70.17Q101.52-70.50 104.06-70.97L104.06-70.97L104.06-70.97Q103.12-65.52 102.27-59.78L102.27-59.78L102.27-59.78Q101.43-54.05 100.77-48.36L100.77-48.36L100.77-48.36Q100.11-42.68 99.50-37.13L99.50-37.13L99.50-37.13Q98.89-31.58 98.42-26.60L98.42-26.60L98.42-26.60Q97.29-14.95 96.44-3.85L96.44-3.85L80.09-0.94L80.09-0.94Q80.09-1.41 80.23-3.48L80.23-3.48L80.23-3.48Q80.37-5.55 80.61-8.55L80.61-8.55L80.61-8.55Q80.84-11.56 81.26-15.23L81.26-15.23L81.26-15.23Q81.69-18.89 82.11-22.56L82.11-22.56L82.11-22.56Q82.53-26.23 83.00-29.66L83.00-29.66L83.00-29.66Q83.47-33.09 83.94-35.53L83.94-35.53L83.10-35.53L83.10-35.53Q81.78-31.58 80.18-27.21L80.18-27.21L80.18-27.21Q78.58-22.84 76.94-18.33L76.94-18.33L76.94-18.33Q75.29-13.82 73.70-9.49L73.70-9.49L73.70-9.49Q72.10-5.17 70.88-1.22L70.88-1.22L70.88-1.22Q67.59-1.13 65.24-0.99L65.24-0.99L65.24-0.99Q62.89-0.85 59.78-0.66L59.78-0.66L62.79-35.53L61.38-35.53L61.38-35.53Q61.19-34.31 60.44-31.44L60.44-31.44L60.44-31.44Q59.69-28.58 58.70-24.86L58.70-24.86L58.70-24.86Q57.72-21.15 56.59-17.16L56.59-17.16L56.59-17.16Q55.46-13.16 54.47-9.73L54.47-9.73L54.47-9.73Q53.49-6.30 52.83-4.09L52.83-4.09L52.83-4.09Q52.17-1.88 52.08-1.60L52.08-1.60ZM148.71-35.81L148.71-35.81Q148.05-26.23 144.95-19.13L144.95-19.13L144.95-19.13Q141.85-12.03 137.47-7.24L137.47-7.24L137.47-7.24Q133.10-2.44 128.07-0.09L128.07-0.09L128.07-0.09Q123.05 2.26 118.53 2.26L118.53 2.26L118.53 2.26Q115.06 2.26 111.91 0.75L111.91 0.75L111.91 0.75Q108.76-0.75 106.45-3.81L106.45-3.81L106.45-3.81Q104.15-6.86 102.84-11.47L102.84-11.47L102.84-11.47Q101.52-16.07 101.52-22.28L101.52-22.28L101.52-22.28Q101.52-34.40 105.00-43.43L105.00-43.43L105.00-43.43Q108.48-52.45 113.79-58.47L113.79-58.47L113.79-58.47Q119.10-64.48 125.16-67.40L125.16-67.40L125.16-67.40Q131.22-70.31 136.49-70.31L136.49-70.31L136.49-70.31Q140.25-70.31 143.02-69.00L143.02-69.00L143.02-69.00Q145.79-67.68 147.58-65.47L147.58-65.47L147.58-65.47Q149.37-63.26 150.17-60.30L150.17-60.30L150.17-60.30Q150.96-57.34 150.96-54.05L150.96-54.05L138.09-51.61L138.09-51.61Q137.24-55.37 135.83-56.96L135.83-56.96L135.83-56.96Q134.42-58.56 132.63-58.56L132.63-58.56L132.63-58.56Q130.28-58.56 127.46-55.23L127.46-55.23L127.46-55.23Q124.64-51.89 122.20-46.62L122.20-46.62L122.20-46.62Q119.76-41.36 118.06-35.06L118.06-35.06L118.06-35.06Q116.37-28.76 116.18-22.65L116.18-22.65L116.18-22.65Q116.18-16.83 117.92-14.34L117.92-14.34L117.92-14.34Q119.66-11.84 122.39-11.84L122.39-11.84L122.39-11.84Q124.27-11.84 126.29-12.78L126.29-12.78L126.29-12.78Q128.31-13.72 129.91-15.46L129.91-15.46L129.91-15.46Q131.51-17.20 132.59-19.50L132.59-19.50L132.59-19.50Q133.67-21.81 133.76-24.53L133.76-24.53L123.70-23.03L125.49-32.34L125.49-32.34Q129.91-32.90 134.14-33.46L134.14-33.46L134.14-33.46Q137.71-33.93 141.71-34.59L141.71-34.59L141.71-34.59Q145.70-35.25 148.71-35.81L148.71-35.81Z" fill="url(#editing-shiny-gradient2)"></path></g></g><style>text {
  font-size: 64px;
  font-family: Arial Black;
  dominant-baseline: central;
  text-anchor: middle;
}</style></svg>