<svg width="1258.98125px" height="155.59619140625px" xmlns="http://www.w3.org/2000/svg" viewBox="-379.490625 -2.798095703125 1258.98125 155.59619140625" style="background: none; font-size: 54px;" preserveAspectRatio="xMidYMid"><defs><linearGradient id="editing-shiny-gradient" x1="0.4912737967813583" x2="0.5087262032186417" y1="0.00007615242180436521" y2="0.9999238475781956" gradientUnits="objectBoundingBox"><stop offset="0.0" stop-color="#081c24"></stop><stop offset="0.5" stop-color="#000000"></stop><stop offset="1.0" stop-color="#01d277"></stop></linearGradient><linearGradient id="editing-shiny-gradient2" x1="0" x2="0" y1="0" y2="1"><stop offset="0.2" stop-color="#fff" stop-opacity="0.8"></stop><stop offset="0.8" stop-color="#fff" stop-opacity="0"></stop></linearGradient><filter id="editing-shiny2" x="-100%" y="-100%" width="300%" height="300%"><feMorphology operator="erode" radius="2"></feMorphology></filter><filter id="editing-shiny" x="-100%" y="-100%" width="300%" height="300%"><feFlood flood-color="#fff" result="flood"></feFlood><feConvolveMatrix in="SourceGraphic" result="conv" order="8,8" divisor="1" kernelMatrix="0 0 0 0 0 0 0 0 0 0 0 1 1 0 0 0 0 0 0 1 1 0 0 0 0 0 1 0 0 1 0 0 0 0 1 0 0 1 0 0 0 1 0 0 0 0 1 0 0 1 1 0 0 1 1 0 0 0 0 1 1 0 0 0 "></feConvolveMatrix><feOffset dx="0" dy="4" in="conv" result="offset"></feOffset><feComposite operator="in" in="flood" in2="offset" result="comp"></feComposite><feGaussianBlur in="offset" stdDeviation="3" result="shadow"></feGaussianBlur><feColorMatrix in="shadow" type="matrix" values="0.7 0 0 0 0  0 0.7 0 0 0  0 0 0.7 0 0  0 0 0 0.3 0" result="dark-shadow"></feColorMatrix><feOffset dx="0" dy="4" in="dark-shadow" result="offset-shadow"></feOffset><feOffset dx="0" dy="2" in="conv" result="offset-2"></feOffset><feComposite operator="out" in="offset" in2="offset-2" result="edge-diff"></feComposite><feGaussianBlur in="edge-diff" stdDeviation="1" result="edge-blur"></feGaussianBlur><feColorMatrix in="edge-blur" result="edge-shadow" type="matrix" values="0 0 0 0 0  0 0 0 0 0  0 0 0 0 0  0 0 0 0.5 0"></feColorMatrix><feComposite operator="in" in="edge-shadow" in2="offset" result="edge-shadow-in"></feComposite><feOffset dx="0" dy="1" in="edge-shadow-in" result="edge-shadow-final"></feOffset><feMerge result="out"><feMergeNode in="offset-shadow"></feMergeNode><feMergeNode in="comp"></feMergeNode><feMergeNode in="edge-shadow-final"></feMergeNode><feMergeNode in="SourceGraphic"></feMergeNode></feMerge></filter></defs><g filter="url(#editing-shiny)"><g transform="translate(-201.14345955848694, 111.5134391784668)"><path d="M39.10-18.33L39.10-18.33Q37.79-12.97 35.39-9.21L35.39-9.21L35.39-9.21Q32.99-5.45 29.75-3.01L29.75-3.01L29.75-3.01Q26.51-0.56 22.84 0.56L22.84 0.56L22.84 0.56Q19.18 1.69 15.51 1.69L15.51 1.69L15.51 1.69Q13.35 1.69 11.09 0.99L11.09 0.99L11.09 0.99Q8.84 0.28 7.05-1.13L7.05-1.13L7.05-1.13Q5.26-2.54 4.09-4.70L4.09-4.70L4.09-4.70Q2.91-6.86 2.91-9.78L2.91-9.78L2.91-9.78Q2.91-10.15 2.91-10.53L2.91-10.53L2.91-10.53Q2.91-10.90 3.01-11.28L3.01-11.28L3.01-11.28Q3.38-15.13 4.23-20.59L4.23-20.59L4.23-20.59Q5.08-26.04 6.02-31.96L6.02-31.96L6.02-31.96Q6.96-37.88 8.08-43.85L8.08-43.85L8.08-43.85Q9.21-49.82 10.11-54.71L10.11-54.71L10.11-54.71Q11.00-59.60 11.66-62.84L11.66-62.84L11.66-62.84Q12.31-66.08 12.50-66.83L12.50-66.83L12.50-66.83Q14.48-67.02 17.20-67.30L17.20-67.30L17.20-67.30Q19.93-67.59 22.28-67.77L22.28-67.77L22.28-67.77Q25.19-68.06 28.01-68.34L28.01-68.34L28.01-68.34Q25.57-56.96 23.69-47.75L23.69-47.75L23.69-47.75Q22.84-43.80 22.04-39.86L22.04-39.86L22.04-39.86Q21.24-35.91 20.54-32.62L20.54-32.62L20.54-32.62Q19.83-29.33 19.32-26.93L19.32-26.93L19.32-26.93Q18.80-24.53 18.47-23.03L18.47-23.03L18.47-23.03Q18.14-21.53 17.72-19.22L17.72-19.22L17.72-19.22Q17.30-16.92 17.30-15.04L17.30-15.04L17.30-15.04Q17.30-13.54 18.05-12.55L18.05-12.55L18.05-12.55Q18.80-11.56 19.93-11.56L19.93-11.56L19.93-11.56Q21.53-11.56 22.56-12.83L22.56-12.83L22.56-12.83Q23.59-14.10 24.30-15.89L24.30-15.89L24.30-15.89Q25.00-17.67 25.33-19.50L25.33-19.50L25.33-19.50Q25.66-21.34 25.94-22.37L25.94-22.37L25.94-22.37Q26.51-25.10 27.21-28.43L27.21-28.43L27.21-28.43Q27.92-31.77 28.62-35.39L28.62-35.39L28.62-35.39Q29.33-39.01 30.03-42.77L30.03-42.77L30.03-42.77Q30.74-46.53 31.40-50.10L31.40-50.10L31.40-50.10Q32.99-58.37 34.50-67.21L34.50-67.21L48.79-68.15L48.79-68.15Q48.79-68.15 48.32-65.71L48.32-65.71L48.32-65.71Q47.85-63.26 47.09-59.22L47.09-59.22L47.09-59.22Q46.34-55.18 45.45-50.01L45.45-50.01L45.45-50.01Q44.56-44.84 43.43-39.24L43.43-39.24L43.43-39.24Q42.30-33.65 41.22-28.25L41.22-28.25L41.22-28.25Q40.14-22.84 39.10-18.33L39.10-18.33ZM65.33-3.01L65.33-3.01Q62.42-3.01 59.17-2.82L59.17-2.82L59.17-2.82Q55.93-2.63 52.64-2.26L52.64-2.26L52.64-2.26Q49.35-1.88 46.20-1.27L46.20-1.27L46.20-1.27Q43.05-0.66 40.51 0.19L40.51 0.19L40.51 0.19Q41.08-4.04 41.83-9.21L41.83-9.21L41.83-9.21Q42.58-14.38 43.57-19.93L43.57-19.93L43.57-19.93Q44.56-25.47 45.54-31.11L45.54-31.11L45.54-31.11Q46.53-36.75 47.56-41.92L47.56-41.92L47.56-41.92Q49.91-54.24 52.55-67.02L52.55-67.02L69.00-69.18L69.00-69.18Q66.46-58.28 64.11-47.94L64.11-47.94L64.11-47.94Q63.07-43.52 62.04-38.77L62.04-38.77L62.04-38.77Q61.01-34.03 60.07-29.52L60.07-29.52L60.07-29.52Q59.13-25.00 58.37-20.77L58.37-20.77L58.37-20.77Q57.62-16.54 57.15-13.25L57.15-13.25L57.15-13.25Q59.50-13.44 62.18-13.49L62.18-13.49L62.18-13.49Q64.86-13.54 66.93-13.54L66.93-13.54L66.93-13.54Q67.02-11.75 67.21-10.01L67.21-10.01L67.21-10.01Q67.40-8.27 67.63-6.86L67.63-6.86L67.63-6.86Q67.87-5.45 68.01-4.37L68.01-4.37L68.01-4.37Q68.15-3.29 68.24-2.91L68.24-2.91L68.24-2.91Q67.49-2.91 66.79-2.96L66.79-2.96L66.79-2.96Q66.08-3.01 65.33-3.01L65.33-3.01ZM93.15-2.54L76.23 0.09L76.23 0.09Q78.40-10.25 80.37-20.30L80.37-20.30L80.37-20.30Q81.22-24.53 82.06-29.14L82.06-29.14L82.06-29.14Q82.91-33.75 83.71-38.21L83.71-38.21L83.71-38.21Q84.51-42.68 85.12-46.86L85.12-46.86L85.12-46.86Q85.73-51.04 86.20-54.52L86.20-54.52L86.20-54.52Q84.04-54.80 81.83-54.71L81.83-54.71L81.83-54.71Q79.62-54.61 77.46-55.27L77.46-55.27L77.46-55.27Q77.55-56.78 77.55-58.75L77.55-58.75L77.55-58.75Q77.55-60.72 77.64-62.70L77.64-62.70L77.64-62.70Q77.74-64.86 77.83-67.30L77.83-67.30L77.83-67.30Q80.28-67.12 82.72-67.02L82.72-67.02L82.72-67.02Q85.16-66.93 87.61-66.93L87.61-66.93L87.61-66.93Q92.40-66.93 96.87-67.16L96.87-67.16L96.87-67.16Q101.33-67.40 105.14-67.73L105.14-67.73L105.14-67.73Q108.95-68.06 112.61-68.53L112.61-68.53L111.58-63.45L111.58-63.45Q111.11-61.29 110.69-59.03L110.69-59.03L110.69-59.03Q110.26-56.78 109.89-55.18L109.89-55.18L109.89-55.18Q107.82-54.61 105.70-54.38L105.70-54.38L105.70-54.38Q103.59-54.14 101.52-53.77L101.52-53.77L101.52-53.77Q100.86-50.57 100.11-46.67L100.11-46.67L100.11-46.67Q99.36-42.77 98.65-38.59L98.65-38.59L98.65-38.59Q97.95-34.40 97.29-30.08L97.29-30.08L97.29-30.08Q96.63-25.76 95.97-21.81L95.97-21.81L95.97-21.81Q94.47-12.50 93.15-2.54L93.15-2.54ZM117.78-1.88L117.78-1.88Q116.94-1.88 114.44-1.65L114.44-1.65L114.44-1.65Q111.95-1.41 109.32-1.08L109.32-1.08L109.32-1.08Q106.69-0.75 104.57-0.47L104.57-0.47L104.57-0.47Q102.46-0.19 102.27-0.09L102.27-0.09L102.27-0.09Q103.21-4.14 104.20-9.07L104.20-9.07L104.20-9.07Q105.19-14.01 106.22-19.41L106.22-19.41L106.22-19.41Q107.25-24.82 108.19-30.36L108.19-30.36L108.19-30.36Q109.13-35.91 109.98-41.08L109.98-41.08L109.98-41.08Q111.95-53.11 113.93-65.80L113.93-65.80L128.59-68.15L128.59-68.15Q126.43-55.55 124.36-43.43L124.36-43.43L124.36-43.43Q123.52-38.26 122.62-32.71L122.62-32.71L122.62-32.71Q121.73-27.17 120.84-21.71L120.84-21.71L120.84-21.71Q119.94-16.26 119.19-11.14L119.19-11.14L119.19-11.14Q118.44-6.02 117.78-1.88L117.78-1.88ZM133.48-1.60L117.97-0.56L117.97-0.56Q122.11-13.07 125.87-25.10L125.87-25.10L125.87-25.10Q127.46-30.17 129.16-35.72L129.16-35.72L129.16-35.72Q130.85-41.27 132.54-46.72L132.54-46.72L132.54-46.72Q134.23-52.17 135.69-57.25L135.69-57.25L135.69-57.25Q137.15-62.32 138.27-66.65L138.27-66.65L138.27-66.65Q143.44-66.65 148.05-67.21L148.05-67.21L148.05-67.21Q152.66-67.77 158.01-68.24L158.01-68.24L158.01-68.24Q157.73-66.18 157.40-63.59L157.40-63.59L157.40-63.59Q157.07-61.01 156.65-58.19L156.65-58.19L156.65-58.19Q156.23-55.37 155.76-52.36L155.76-52.36L155.76-52.36Q155.29-49.35 154.63-44.65L154.63-44.65L154.63-44.65Q153.97-39.95 152.84-32.90L152.84-32.90L154.07-32.90L154.07-32.90Q156.79-40.04 158.58-44.79L158.58-44.79L158.58-44.79Q160.36-49.54 161.49-52.55L161.49-52.55L161.49-52.55Q162.62-55.55 163.79-58.42L163.79-58.42L163.79-58.42Q164.97-61.29 166.05-63.87L166.05-63.87L166.05-63.87Q167.13-66.46 168.07-68.43L168.07-68.43L168.07-68.43Q170.42-68.62 172.49-68.90L172.49-68.90L172.49-68.90Q174.56-69.18 176.63-69.51L176.63-69.51L176.63-69.51Q178.69-69.84 180.81-70.17L180.81-70.17L180.81-70.17Q182.92-70.50 185.46-70.97L185.46-70.97L185.46-70.97Q184.52-65.52 183.68-59.78L183.68-59.78L183.68-59.78Q182.83-54.05 182.17-48.36L182.17-48.36L182.17-48.36Q181.51-42.68 180.90-37.13L180.90-37.13L180.90-37.13Q180.29-31.58 179.82-26.60L179.82-26.60L179.82-26.60Q178.69-14.95 177.85-3.85L177.85-3.85L161.49-0.94L161.49-0.94Q161.49-1.41 161.63-3.48L161.63-3.48L161.63-3.48Q161.77-5.55 162.01-8.55L162.01-8.55L162.01-8.55Q162.24-11.56 162.67-15.23L162.67-15.23L162.67-15.23Q163.09-18.89 163.51-22.56L163.51-22.56L163.51-22.56Q163.94-26.23 164.41-29.66L164.41-29.66L164.41-29.66Q164.88-33.09 165.35-35.53L165.35-35.53L164.50-35.53L164.50-35.53Q163.18-31.58 161.59-27.21L161.59-27.21L161.59-27.21Q159.99-22.84 158.34-18.33L158.34-18.33L158.34-18.33Q156.70-13.82 155.10-9.49L155.10-9.49L155.10-9.49Q153.50-5.17 152.28-1.22L152.28-1.22L152.28-1.22Q148.99-1.13 146.64-0.99L146.64-0.99L146.64-0.99Q144.29-0.85 141.19-0.66L141.19-0.66L144.20-35.53L142.79-35.53L142.79-35.53Q142.60-34.31 141.85-31.44L141.85-31.44L141.85-31.44Q141.09-28.58 140.11-24.86L140.11-24.86L140.11-24.86Q139.12-21.15 137.99-17.16L137.99-17.16L137.99-17.16Q136.86-13.16 135.88-9.73L135.88-9.73L135.88-9.73Q134.89-6.30 134.23-4.09L134.23-4.09L134.23-4.09Q133.57-1.88 133.48-1.60L133.48-1.60ZM213.57-1.88L213.57-1.88Q211.22-1.50 208.40-1.03L208.40-1.03L208.40-1.03Q205.58-0.56 203.32-0.19L203.32-0.19L203.32-0.19Q203.70-3.29 204.07-6.30L204.07-6.30L204.07-6.30Q204.36-8.93 204.59-11.56L204.59-11.56L204.59-11.56Q204.83-14.19 205.01-16.07L205.01-16.07L196.84-16.07L193.08-2.54L193.08-2.54Q191.01-2.26 188.19-1.93L188.19-1.93L188.19-1.93Q185.37-1.60 182.92-1.32L182.92-1.32L182.92-1.32Q179.92-0.94 177.00-0.56L177.00-0.56L177.00-0.56Q180.76-13.07 184.43-25.19L184.43-25.19L184.43-25.19Q185.93-30.27 187.58-35.81L187.58-35.81L187.58-35.81Q189.22-41.36 190.87-46.86L190.87-46.86L190.87-46.86Q192.51-52.36 194.02-57.43L194.02-57.43L194.02-57.43Q195.52-62.51 196.65-66.74L196.65-66.74L196.65-66.74Q203.04-67.21 209.67-67.87L209.67-67.87L209.67-67.87Q216.29-68.53 222.59-69.65L222.59-69.65L222.59-69.65Q222.31-66.65 221.98-62.18L221.98-62.18L221.98-62.18Q221.65-57.72 221.37-52.45L221.37-52.45L221.37-52.45Q221.09-47.19 220.81-41.45L220.81-41.45L220.81-41.45Q220.52-35.72 220.24-30.17L220.24-30.17L220.24-30.17Q219.77-17.20 219.21-2.63L219.21-2.63L219.21-2.63Q216.39-2.16 213.57-1.88L213.57-1.88ZM204.92-49.07L199.09-25.47L199.09-25.47Q199.47-25.47 200.45-25.52L200.45-25.52L200.45-25.52Q201.44-25.57 202.52-25.61L202.52-25.61L202.52-25.61Q203.60-25.66 204.54-25.71L204.54-25.71L204.54-25.71Q205.48-25.76 205.86-25.85L205.86-25.85L205.86-25.85Q205.86-26.41 206.00-27.78L206.00-27.78L206.00-27.78Q206.14-29.14 206.28-30.88L206.28-30.88L206.28-30.88Q206.42-32.62 206.61-34.69L206.61-34.69L206.61-34.69Q206.80-36.75 206.99-38.73L206.99-38.73L206.99-38.73Q207.36-43.52 207.93-49.07L207.93-49.07L208.49-57.25L207.08-57.15L204.92-49.07ZM245.06-2.54L228.14 0.09L228.14 0.09Q230.30-10.25 232.27-20.30L232.27-20.30L232.27-20.30Q233.12-24.53 233.97-29.14L233.97-29.14L233.97-29.14Q234.81-33.75 235.61-38.21L235.61-38.21L235.61-38.21Q236.41-42.68 237.02-46.86L237.02-46.86L237.02-46.86Q237.63-51.04 238.10-54.52L238.10-54.52L238.10-54.52Q235.94-54.80 233.73-54.71L233.73-54.71L233.73-54.71Q231.52-54.61 229.36-55.27L229.36-55.27L229.36-55.27Q229.45-56.78 229.45-58.75L229.45-58.75L229.45-58.75Q229.45-60.72 229.55-62.70L229.55-62.70L229.55-62.70Q229.64-64.86 229.74-67.30L229.74-67.30L229.74-67.30Q232.18-67.12 234.62-67.02L234.62-67.02L234.62-67.02Q237.07-66.93 239.51-66.93L239.51-66.93L239.51-66.93Q244.31-66.93 248.77-67.16L248.77-67.16L248.77-67.16Q253.24-67.40 257.04-67.73L257.04-67.73L257.04-67.73Q260.85-68.06 264.52-68.53L264.52-68.53L263.48-63.45L263.48-63.45Q263.01-61.29 262.59-59.03L262.59-59.03L262.59-59.03Q262.17-56.78 261.79-55.18L261.79-55.18L261.79-55.18Q259.72-54.61 257.61-54.38L257.61-54.38L257.61-54.38Q255.49-54.14 253.42-53.77L253.42-53.77L253.42-53.77Q252.77-50.57 252.01-46.67L252.01-46.67L252.01-46.67Q251.26-42.77 250.56-38.59L250.56-38.59L250.56-38.59Q249.85-34.40 249.19-30.08L249.19-30.08L249.19-30.08Q248.54-25.76 247.88-21.81L247.88-21.81L247.88-21.81Q246.37-12.50 245.06-2.54L245.06-2.54ZM284.82-4.61L254.46 0.09L266.77-66.74L296.48-69.28L296.48-69.28Q295.82-67.21 295.35-65.05L295.35-65.05L295.35-65.05Q294.88-63.26 294.45-61.34L294.45-61.34L294.45-61.34Q294.03-59.41 293.75-57.90L293.75-57.90L293.75-57.90Q292.81-57.81 291.07-57.76L291.07-57.76L291.07-57.76Q289.33-57.72 287.36-57.67L287.36-57.67L287.36-57.67Q285.38-57.62 283.36-57.62L283.36-57.62L283.36-57.62Q281.34-57.62 279.84-57.62L279.84-57.62L276.55-40.80L276.55-40.80Q279.46-40.98 282-41.08L282-41.08L282-41.08Q284.07-41.17 286.23-41.17L286.23-41.17L286.23-41.17Q288.39-41.17 289.43-41.27L289.43-41.27L289.43-41.27Q289.05-38.63 288.72-36.10L288.72-36.10L288.72-36.10Q288.39-33.56 287.92-30.93L287.92-30.93L287.92-30.93Q286.98-30.83 284.87-30.79L284.87-30.79L284.87-30.79Q282.75-30.74 280.59-30.64L280.59-30.64L280.59-30.64Q278.15-30.55 275.23-30.46L275.23-30.46L272.04-13.16L285.76-15.32L284.82-4.61ZM316.78-1.60L301.27-0.56L301.27-0.56Q305.41-13.07 309.17-25.10L309.17-25.10L309.17-25.10Q310.76-30.17 312.46-35.72L312.46-35.72L312.46-35.72Q314.15-41.27 315.84-46.72L315.84-46.72L315.84-46.72Q317.53-52.17 318.99-57.25L318.99-57.25L318.99-57.25Q320.45-62.32 321.57-66.65L321.57-66.65L321.57-66.65Q326.74-66.65 331.35-67.21L331.35-67.21L331.35-67.21Q335.96-67.77 341.31-68.24L341.31-68.24L341.31-68.24Q341.03-66.18 340.70-63.59L340.70-63.59L340.70-63.59Q340.37-61.01 339.95-58.19L339.95-58.19L339.95-58.19Q339.53-55.37 339.06-52.36L339.06-52.36L339.06-52.36Q338.59-49.35 337.93-44.65L337.93-44.65L337.93-44.65Q337.27-39.95 336.14-32.90L336.14-32.90L337.37-32.90L337.37-32.90Q340.09-40.04 341.88-44.79L341.88-44.79L341.88-44.79Q343.66-49.54 344.79-52.55L344.79-52.55L344.79-52.55Q345.92-55.55 347.09-58.42L347.09-58.42L347.09-58.42Q348.27-61.29 349.35-63.87L349.35-63.87L349.35-63.87Q350.43-66.46 351.37-68.43L351.37-68.43L351.37-68.43Q353.72-68.62 355.79-68.90L355.79-68.90L355.79-68.90Q357.86-69.18 359.93-69.51L359.93-69.51L359.93-69.51Q361.99-69.84 364.11-70.17L364.11-70.17L364.11-70.17Q366.22-70.50 368.76-70.97L368.76-70.97L368.76-70.97Q367.82-65.52 366.98-59.78L366.98-59.78L366.98-59.78Q366.13-54.05 365.47-48.36L365.47-48.36L365.47-48.36Q364.81-42.68 364.20-37.13L364.20-37.13L364.20-37.13Q363.59-31.58 363.12-26.60L363.12-26.60L363.12-26.60Q361.99-14.95 361.15-3.85L361.15-3.85L344.79-0.94L344.79-0.94Q344.79-1.41 344.93-3.48L344.93-3.48L344.93-3.48Q345.07-5.55 345.31-8.55L345.31-8.55L345.31-8.55Q345.54-11.56 345.97-15.23L345.97-15.23L345.97-15.23Q346.39-18.89 346.81-22.56L346.81-22.56L346.81-22.56Q347.24-26.23 347.71-29.66L347.71-29.66L347.71-29.66Q348.18-33.09 348.65-35.53L348.65-35.53L347.80-35.53L347.80-35.53Q346.48-31.58 344.89-27.21L344.89-27.21L344.89-27.21Q343.29-22.84 341.64-18.33L341.64-18.33L341.64-18.33Q340.00-13.82 338.40-9.49L338.40-9.49L338.40-9.49Q336.80-5.17 335.58-1.22L335.58-1.22L335.58-1.22Q332.29-1.13 329.94-0.99L329.94-0.99L329.94-0.99Q327.59-0.85 324.49-0.66L324.49-0.66L327.50-35.53L326.09-35.53L326.09-35.53Q325.90-34.31 325.15-31.44L325.15-31.44L325.15-31.44Q324.39-28.58 323.41-24.86L323.41-24.86L323.41-24.86Q322.42-21.15 321.29-17.16L321.29-17.16L321.29-17.16Q320.16-13.16 319.18-9.73L319.18-9.73L319.18-9.73Q318.19-6.30 317.53-4.09L317.53-4.09L317.53-4.09Q316.87-1.88 316.78-1.60L316.78-1.60ZM414.92-50.85L414.92-50.85Q414.92-43.15 413.27-36.33L413.27-36.33L413.27-36.33Q411.63-29.52 408.90-23.83L408.90-23.83L408.90-23.83Q406.17-18.14 402.55-13.68L402.55-13.68L402.55-13.68Q398.94-9.21 394.99-6.06L394.99-6.06L394.99-6.06Q391.04-2.91 387.00-1.27L387.00-1.27L387.00-1.27Q382.96 0.38 379.29 0.38L379.29 0.38L379.29 0.38Q376.19 0.38 373.65-0.80L373.65-0.80L373.65-0.80Q371.11-1.97 369.23-4.28L369.23-4.28L369.23-4.28Q367.35-6.58 366.27-10.20L366.27-10.20L366.27-10.20Q365.19-13.82 365.19-18.89L365.19-18.89L365.19-18.89Q365.19-24.16 366.51-29.99L366.51-29.99L366.51-29.99Q367.82-35.81 370.08-41.55L370.08-41.55L370.08-41.55Q372.33-47.28 375.62-52.45L375.62-52.45L375.62-52.45Q378.91-57.62 382.86-61.62L382.86-61.62L382.86-61.62Q386.81-65.61 391.32-67.96L391.32-67.96L391.32-67.96Q395.83-70.31 400.72-70.31L400.72-70.31L400.72-70.31Q404.95-70.31 407.72-68.57L407.72-68.57L407.72-68.57Q410.50-66.83 412.05-64.06L412.05-64.06L412.05-64.06Q413.60-61.29 414.26-57.81L414.26-57.81L414.26-57.81Q414.92-54.33 414.92-50.85L414.92-50.85ZM379.20-21.34L379.20-21.34Q379.20-20.30 379.57-19.18L379.57-19.18L379.57-19.18Q379.95-18.05 380.61-17.20L380.61-17.20L380.61-17.20Q381.26-16.36 382.25-15.74L382.25-15.74L382.25-15.74Q383.24-15.13 384.37-15.13L384.37-15.13L384.37-15.13Q388.60-15.13 391.89-18.05L391.89-18.05L391.89-18.05Q395.18-20.96 397.34-25.19L397.34-25.19L397.34-25.19Q399.50-29.42 400.67-34.22L400.67-34.22L400.67-34.22Q401.85-39.01 401.85-42.96L401.85-42.96L401.85-42.96Q401.85-44.09 401.71-45.40L401.71-45.40L401.71-45.40Q401.57-46.72 401.14-47.85L401.14-47.85L401.14-47.85Q400.72-48.97 399.83-49.77L399.83-49.77L399.83-49.77Q398.94-50.57 397.43-50.57L397.43-50.57L397.43-50.57Q394.42-50.57 391.89-49.07L391.89-49.07L391.89-49.07Q389.35-47.56 387.33-45.07L387.33-45.07L387.33-45.07Q385.31-42.58 383.80-39.43L383.80-39.43L383.80-39.43Q382.30-36.28 381.22-33.04L381.22-33.04L381.22-33.04Q380.14-29.80 379.67-26.70L379.67-26.70L379.67-26.70Q379.20-23.59 379.20-21.34L379.20-21.34ZM438.51-2.82L414.16 0.85L414.16 0.85Q415.39-12.31 416.42-25.00L416.42-25.00L416.42-25.00Q416.89-30.27 417.31-36.10L417.31-36.10L417.31-36.10Q417.74-41.92 418.06-47.61L418.06-47.61L418.06-47.61Q418.39-53.30 418.58-58.61L418.58-58.61L418.58-58.61Q418.77-63.92 418.86-68.34L418.86-68.34L418.86-68.34Q421.12-68.34 423.70-68.43L423.70-68.43L423.70-68.43Q426.29-68.53 428.40-68.62L428.40-68.62L428.40-68.62Q430.52-68.71 432.02-68.86L432.02-68.86L432.02-68.86Q433.53-69.00 433.53-69.00L433.53-69.00L433.53-69.00Q432.49-58.09 431.74-51.09L431.74-51.09L431.74-51.09Q430.99-44.09 430.57-39.72L430.57-39.72L430.57-39.72Q430.14-35.34 429.81-31.30L429.81-31.30L429.81-31.30Q429.49-27.26 429.11-23.78L429.11-23.78L429.11-23.78Q428.73-20.30 428.45-17.86L428.45-17.86L430.14-17.86L440.67-67.87L440.67-67.87Q443.21-67.96 445.84-68.15L445.84-68.15L445.84-68.15Q448.19-68.34 450.78-68.43L450.78-68.43L450.78-68.43Q453.36-68.53 455.52-68.81L455.52-68.81L455.52-68.81Q454.21-64.67 452.84-59.69L452.84-59.69L452.84-59.69Q451.48-54.71 450.02-49.35L450.02-49.35L450.02-49.35Q448.57-43.99 447.20-38.45L447.20-38.45L447.20-38.45Q445.84-32.90 444.53-27.73L444.53-27.73L444.53-27.73Q441.52-15.60 438.51-2.82L438.51-2.82ZM460.22-1.88L460.22-1.88Q459.38-1.88 456.89-1.65L456.89-1.65L456.89-1.65Q454.40-1.41 451.76-1.08L451.76-1.08L451.76-1.08Q449.13-0.75 447.02-0.47L447.02-0.47L447.02-0.47Q444.90-0.19 444.71-0.09L444.71-0.09L444.71-0.09Q445.65-4.14 446.64-9.07L446.64-9.07L446.64-9.07Q447.63-14.01 448.66-19.41L448.66-19.41L448.66-19.41Q449.70-24.82 450.64-30.36L450.64-30.36L450.64-30.36Q451.58-35.91 452.42-41.08L452.42-41.08L452.42-41.08Q454.40-53.11 456.37-65.80L456.37-65.80L471.03-68.15L471.03-68.15Q468.87-55.55 466.80-43.43L466.80-43.43L466.80-43.43Q465.96-38.26 465.06-32.71L465.06-32.71L465.06-32.71Q464.17-27.17 463.28-21.71L463.28-21.71L463.28-21.71Q462.39-16.26 461.63-11.14L461.63-11.14L461.63-11.14Q460.88-6.02 460.22-1.88L460.22-1.88ZM494.35-4.61L463.98 0.09L476.30-66.74L506.00-69.28L506.00-69.28Q505.34-67.21 504.87-65.05L504.87-65.05L504.87-65.05Q504.40-63.26 503.98-61.34L503.98-61.34L503.98-61.34Q503.56-59.41 503.28-57.90L503.28-57.90L503.28-57.90Q502.34-57.81 500.60-57.76L500.60-57.76L500.60-57.76Q498.86-57.72 496.88-57.67L496.88-57.67L496.88-57.67Q494.91-57.62 492.89-57.62L492.89-57.62L492.89-57.62Q490.87-57.62 489.36-57.62L489.36-57.62L486.07-40.80L486.07-40.80Q488.99-40.98 491.53-41.08L491.53-41.08L491.53-41.08Q493.59-41.17 495.76-41.17L495.76-41.17L495.76-41.17Q497.92-41.17 498.95-41.27L498.95-41.27L498.95-41.27Q498.58-38.63 498.25-36.10L498.25-36.10L498.25-36.10Q497.92-33.56 497.45-30.93L497.45-30.93L497.45-30.93Q496.51-30.83 494.39-30.79L494.39-30.79L494.39-30.79Q492.28-30.74 490.12-30.64L490.12-30.64L490.12-30.64Q487.67-30.55 484.76-30.46L484.76-30.46L481.56-13.16L495.29-15.32L494.35-4.61ZM546.42-35.81L546.42-35.81Q545.76-26.23 542.66-19.13L542.66-19.13L542.66-19.13Q539.56-12.03 535.19-7.24L535.19-7.24L535.19-7.24Q530.82-2.44 525.79-0.09L525.79-0.09L525.79-0.09Q520.76 2.26 516.25 2.26L516.25 2.26L516.25 2.26Q512.77 2.26 509.62 0.75L509.62 0.75L509.62 0.75Q506.47-0.75 504.17-3.81L504.17-3.81L504.17-3.81Q501.87-6.86 500.55-11.47L500.55-11.47L500.55-11.47Q499.23-16.07 499.23-22.28L499.23-22.28L499.23-22.28Q499.23-34.40 502.71-43.43L502.71-43.43L502.71-43.43Q506.19-52.45 511.50-58.47L511.50-58.47L511.50-58.47Q516.81-64.48 522.88-67.40L522.88-67.40L522.88-67.40Q528.94-70.31 534.20-70.31L534.20-70.31L534.20-70.31Q537.96-70.31 540.73-69.00L540.73-69.00L540.73-69.00Q543.51-67.68 545.29-65.47L545.29-65.47L545.29-65.47Q547.08-63.26 547.88-60.30L547.88-60.30L547.88-60.30Q548.68-57.34 548.68-54.05L548.68-54.05L535.80-51.61L535.80-51.61Q534.95-55.37 533.54-56.96L533.54-56.96L533.54-56.96Q532.13-58.56 530.35-58.56L530.35-58.56L530.35-58.56Q528.00-58.56 525.18-55.23L525.18-55.23L525.18-55.23Q522.36-51.89 519.91-46.62L519.91-46.62L519.91-46.62Q517.47-41.36 515.78-35.06L515.78-35.06L515.78-35.06Q514.09-28.76 513.90-22.65L513.90-22.65L513.90-22.65Q513.90-16.83 515.64-14.34L515.64-14.34L515.64-14.34Q517.38-11.84 520.10-11.84L520.10-11.84L520.10-11.84Q521.98-11.84 524.00-12.78L524.00-12.78L524.00-12.78Q526.02-13.72 527.62-15.46L527.62-15.46L527.62-15.46Q529.22-17.20 530.30-19.50L530.30-19.50L530.30-19.50Q531.38-21.81 531.48-24.53L531.48-24.53L521.42-23.03L523.20-32.34L523.20-32.34Q527.62-32.90 531.85-33.46L531.85-33.46L531.85-33.46Q535.42-33.93 539.42-34.59L539.42-34.59L539.42-34.59Q543.41-35.25 546.42-35.81L546.42-35.81ZM594.83-50.85L594.83-50.85Q594.83-43.15 593.19-36.33L593.19-36.33L593.19-36.33Q591.54-29.52 588.82-23.83L588.82-23.83L588.82-23.83Q586.09-18.14 582.47-13.68L582.47-13.68L582.47-13.68Q578.85-9.21 574.90-6.06L574.90-6.06L574.90-6.06Q570.96-2.91 566.91-1.27L566.91-1.27L566.91-1.27Q562.87 0.38 559.21 0.38L559.21 0.38L559.21 0.38Q556.10 0.38 553.57-0.80L553.57-0.80L553.57-0.80Q551.03-1.97 549.15-4.28L549.15-4.28L549.15-4.28Q547.27-6.58 546.19-10.20L546.19-10.20L546.19-10.20Q545.11-13.82 545.11-18.89L545.11-18.89L545.11-18.89Q545.11-24.16 546.42-29.99L546.42-29.99L546.42-29.99Q547.74-35.81 549.99-41.55L549.99-41.55L549.99-41.55Q552.25-47.28 555.54-52.45L555.54-52.45L555.54-52.45Q558.83-57.62 562.78-61.62L562.78-61.62L562.78-61.62Q566.73-65.61 571.24-67.96L571.24-67.96L571.24-67.96Q575.75-70.31 580.64-70.31L580.64-70.31L580.64-70.31Q584.87-70.31 587.64-68.57L587.64-68.57L587.64-68.57Q590.41-66.83 591.96-64.06L591.96-64.06L591.96-64.06Q593.52-61.29 594.17-57.81L594.17-57.81L594.17-57.81Q594.83-54.33 594.83-50.85L594.83-50.85ZM559.11-21.34L559.11-21.34Q559.11-20.30 559.49-19.18L559.49-19.18L559.49-19.18Q559.86-18.05 560.52-17.20L560.52-17.20L560.52-17.20Q561.18-16.36 562.17-15.74L562.17-15.74L562.17-15.74Q563.15-15.13 564.28-15.13L564.28-15.13L564.28-15.13Q568.51-15.13 571.80-18.05L571.80-18.05L571.80-18.05Q575.09-20.96 577.25-25.19L577.25-25.19L577.25-25.19Q579.42-29.42 580.59-34.22L580.59-34.22L580.59-34.22Q581.77-39.01 581.77-42.96L581.77-42.96L581.77-42.96Q581.77-44.09 581.62-45.40L581.62-45.40L581.62-45.40Q581.48-46.72 581.06-47.85L581.06-47.85L581.06-47.85Q580.64-48.97 579.74-49.77L579.74-49.77L579.74-49.77Q578.85-50.57 577.35-50.57L577.35-50.57L577.35-50.57Q574.34-50.57 571.80-49.07L571.80-49.07L571.80-49.07Q569.26-47.56 567.24-45.07L567.24-45.07L567.24-45.07Q565.22-42.58 563.72-39.43L563.72-39.43L563.72-39.43Q562.21-36.28 561.13-33.04L561.13-33.04L561.13-33.04Q560.05-29.80 559.58-26.70L559.58-26.70L559.58-26.70Q559.11-23.59 559.11-21.34L559.11-21.34ZM619.65-4.61L589.29 0.09L601.60-66.74L631.30-69.28L631.30-69.28Q630.65-67.21 630.18-65.05L630.18-65.05L630.18-65.05Q629.71-63.26 629.28-61.34L629.28-61.34L629.28-61.34Q628.86-59.41 628.58-57.90L628.58-57.90L628.58-57.90Q627.64-57.81 625.90-57.76L625.90-57.76L625.90-57.76Q624.16-57.72 622.19-57.67L622.19-57.67L622.19-57.67Q620.21-57.62 618.19-57.62L618.19-57.62L618.19-57.62Q616.17-57.62 614.67-57.62L614.67-57.62L611.38-40.80L611.38-40.80Q614.29-40.98 616.83-41.08L616.83-41.08L616.83-41.08Q618.90-41.17 621.06-41.17L621.06-41.17L621.06-41.17Q623.22-41.17 624.25-41.27L624.25-41.27L624.25-41.27Q623.88-38.63 623.55-36.10L623.55-36.10L623.55-36.10Q623.22-33.56 622.75-30.93L622.75-30.93L622.75-30.93Q621.81-30.83 619.69-30.79L619.69-30.79L619.69-30.79Q617.58-30.74 615.42-30.64L615.42-30.64L615.42-30.64Q612.97-30.55 610.06-30.46L610.06-30.46L606.86-13.16L620.59-15.32L619.65-4.61ZM636.19-3.85L620.96 0.09L620.96 0.09Q623.50-12.41 625.85-24.35L625.85-24.35L625.85-24.35Q626.70-29.42 627.73-34.92L627.73-34.92L627.73-34.92Q628.77-40.42 629.66-45.83L629.66-45.83L629.66-45.83Q630.55-51.23 631.35-56.26L631.35-56.26L631.35-56.26Q632.15-61.29 632.62-65.42L632.62-65.42L632.62-65.42Q637.98-67.12 644.18-67.92L644.18-67.92L644.18-67.92Q650.39-68.71 656.50-68.71L656.50-68.71L656.50-68.71Q660.16-68.71 662.56-67.87L662.56-67.87L662.56-67.87Q664.96-67.02 666.32-65.47L666.32-65.47L666.32-65.47Q667.68-63.92 668.25-61.85L668.25-61.85L668.25-61.85Q668.81-59.78 668.81-57.25L668.81-57.25L668.81-57.25Q668.81-53.49 667.49-49.87L667.49-49.87L667.49-49.87Q666.18-46.25 663.97-43.01L663.97-43.01L663.97-43.01Q661.76-39.76 658.89-37.08L658.89-37.08L658.89-37.08Q656.03-34.40 652.74-32.71L652.74-32.71L652.74-32.71Q654.43-28.95 656.35-24.49L656.35-24.49L656.35-24.49Q658.28-20.02 659.97-15.98L659.97-15.98L659.97-15.98Q661.85-11.28 663.83-6.58L663.83-6.58L649.26-1.50L649.26-1.50Q647.38-7.52 645.87-12.78L645.87-12.78L645.87-12.78Q645.22-14.95 644.56-17.25L644.56-17.25L644.56-17.25Q643.90-19.55 643.34-21.62L643.34-21.62L643.34-21.62Q642.77-23.69 642.40-25.33L642.40-25.33L642.40-25.33Q642.02-26.98 641.93-28.01L641.93-28.01L640.70-27.64L640.70-27.64Q640.14-24.63 639.34-20.59L639.34-20.59L639.34-20.59Q638.54-16.54 637.88-12.78L637.88-12.78L637.88-12.78Q637.04-8.37 636.19-3.85L636.19-3.85ZM646.06-55.65L643.05-40.70L643.05-40.70Q644.84-40.89 647.42-42.21L647.42-42.21L647.42-42.21Q650.01-43.52 652.36-45.35L652.36-45.35L652.36-45.35Q654.71-47.19 656.40-49.16L656.40-49.16L656.40-49.16Q658.09-51.14 658.09-52.64L658.09-52.64L658.09-52.64Q658.09-53.67 657.44-54.28L657.44-54.28L657.44-54.28Q656.78-54.90 655.60-55.23L655.60-55.23L655.60-55.23Q654.43-55.55 653.02-55.65L653.02-55.65L653.02-55.65Q651.61-55.74 650.10-55.74L650.10-55.74L650.10-55.74Q649.07-55.74 647.99-55.70L647.99-55.70L647.99-55.70Q646.91-55.65 646.06-55.65L646.06-55.65ZM703.97-23.22L703.97-23.22Q703.97-17.95 701.94-13.68L701.94-13.68L701.94-13.68Q699.92-9.40 696.49-6.30L696.49-6.30L696.49-6.30Q693.06-3.20 688.41-1.50L688.41-1.50L688.41-1.50Q683.76 0.19 678.40 0.19L678.40 0.19L678.40 0.19Q674.64 0.19 670.88-1.83L670.88-1.83L670.88-1.83Q667.12-3.85 663.64-8.27L663.64-8.27L670.60-21.90L670.60-21.90Q671.25-20.68 672.57-19.41L672.57-19.41L672.57-19.41Q673.89-18.14 675.53-17.20L675.53-17.20L675.53-17.20Q677.18-16.26 678.82-15.65L678.82-15.65L678.82-15.65Q680.47-15.04 681.78-15.04L681.78-15.04L681.78-15.04Q682.91-15.04 684.13-15.42L684.13-15.42L684.13-15.42Q685.35-15.79 686.39-16.54L686.39-16.54L686.39-16.54Q687.42-17.30 688.03-18.28L688.03-18.28L688.03-18.28Q688.64-19.27 688.64-20.59L688.64-20.59L688.64-20.59Q688.64-22.84 687.19-24.77L687.19-24.77L687.19-24.77Q685.73-26.70 683.57-28.43L683.57-28.43L683.57-28.43Q681.41-30.17 678.87-31.96L678.87-31.96L678.87-31.96Q676.33-33.75 674.21-35.72L674.21-35.72L674.21-35.72Q672.10-37.69 670.60-40.14L670.60-40.14L670.60-40.14Q669.09-42.58 669.09-45.59L669.09-45.59L669.09-45.59Q669.09-50.48 672.01-54.71L672.01-54.71L672.01-54.71Q674.92-58.94 679.29-61.99L679.29-61.99L679.29-61.99Q683.66-65.05 688.83-66.83L688.83-66.83L688.83-66.83Q694.00-68.62 698.61-68.62L698.61-68.62L698.61-68.62Q701.15-68.62 703.40-68.01L703.40-68.01L703.40-68.01Q705.66-67.40 707.30-66.03L707.30-66.03L707.30-66.03Q708.95-64.67 709.93-62.60L709.93-62.60L709.93-62.60Q710.92-60.54 710.92-57.43L710.92-57.43L710.92-57.43Q710.92-56.12 710.69-54.80L710.69-54.80L710.69-54.80Q710.45-53.49 710.26-51.98L710.26-51.98L696.63-48.03L696.63-48.03Q696.82-48.79 696.96-49.54L696.96-49.54L696.96-49.54Q697.10-50.29 697.10-51.04L697.10-51.04L697.10-51.04Q697.10-53.86 696.12-55.13L696.12-55.13L696.12-55.13Q695.13-56.40 693.53-56.40L693.53-56.40L693.53-56.40Q692.78-56.40 691.70-55.84L691.70-55.84L691.70-55.84Q690.62-55.27 689.54-54.38L689.54-54.38L689.54-54.38Q688.46-53.49 687.70-52.26L687.70-52.26L687.70-52.26Q686.95-51.04 686.95-49.63L686.95-49.63L686.95-49.63Q686.95-47.38 688.22-45.87L688.22-45.87L688.22-45.87Q689.49-44.37 691.37-43.05L691.37-43.05L691.37-43.05Q693.25-41.74 695.46-40.37L695.46-40.37L695.46-40.37Q697.67-39.01 699.55-36.85L699.55-36.85L699.55-36.85Q701.43-34.69 702.70-31.44L702.70-31.44L702.70-31.44Q703.97-28.20 703.97-23.22L703.97-23.22ZM772.21-35.81L772.21-35.81Q771.55-26.23 768.45-19.13L768.45-19.13L768.45-19.13Q765.35-12.03 760.98-7.24L760.98-7.24L760.98-7.24Q756.61-2.44 751.58-0.09L751.58-0.09L751.58-0.09Q746.55 2.26 742.04 2.26L742.04 2.26L742.04 2.26Q738.56 2.26 735.41 0.75L735.41 0.75L735.41 0.75Q732.26-0.75 729.96-3.81L729.96-3.81L729.96-3.81Q727.65-6.86 726.34-11.47L726.34-11.47L726.34-11.47Q725.02-16.07 725.02-22.28L725.02-22.28L725.02-22.28Q725.02-34.40 728.50-43.43L728.50-43.43L728.50-43.43Q731.98-52.45 737.29-58.47L737.29-58.47L737.29-58.47Q742.60-64.48 748.66-67.40L748.66-67.40L748.66-67.40Q754.73-70.31 759.99-70.31L759.99-70.31L759.99-70.31Q763.75-70.31 766.52-69.00L766.52-69.00L766.52-69.00Q769.30-67.68 771.08-65.47L771.08-65.47L771.08-65.47Q772.87-63.26 773.67-60.30L773.67-60.30L773.67-60.30Q774.47-57.34 774.47-54.05L774.47-54.05L761.59-51.61L761.59-51.61Q760.74-55.37 759.33-56.96L759.33-56.96L759.33-56.96Q757.92-58.56 756.14-58.56L756.14-58.56L756.14-58.56Q753.79-58.56 750.97-55.23L750.97-55.23L750.97-55.23Q748.15-51.89 745.70-46.62L745.70-46.62L745.70-46.62Q743.26-41.36 741.57-35.06L741.57-35.06L741.57-35.06Q739.87-28.76 739.69-22.65L739.69-22.65L739.69-22.65Q739.69-16.83 741.42-14.34L741.42-14.34L741.42-14.34Q743.16-11.84 745.89-11.84L745.89-11.84L745.89-11.84Q747.77-11.84 749.79-12.78L749.79-12.78L749.79-12.78Q751.81-13.72 753.41-15.46L753.41-15.46L753.41-15.46Q755.01-17.20 756.09-19.50L756.09-19.50L756.09-19.50Q757.17-21.81 757.26-24.53L757.26-24.53L747.21-23.03L748.99-32.34L748.99-32.34Q753.41-32.90 757.64-33.46L757.64-33.46L757.64-33.46Q761.21-33.93 765.21-34.59L765.21-34.59L765.21-34.59Q769.20-35.25 772.21-35.81L772.21-35.81ZM807.08-18.33L807.08-18.33Q805.77-12.97 803.37-9.21L803.37-9.21L803.37-9.21Q800.97-5.45 797.73-3.01L797.73-3.01L797.73-3.01Q794.49-0.56 790.82 0.56L790.82 0.56L790.82 0.56Q787.16 1.69 783.49 1.69L783.49 1.69L783.49 1.69Q781.33 1.69 779.07 0.99L779.07 0.99L779.07 0.99Q776.82 0.28 775.03-1.13L775.03-1.13L775.03-1.13Q773.24-2.54 772.07-4.70L772.07-4.70L772.07-4.70Q770.89-6.86 770.89-9.78L770.89-9.78L770.89-9.78Q770.89-10.15 770.89-10.53L770.89-10.53L770.89-10.53Q770.89-10.90 770.99-11.28L770.99-11.28L770.99-11.28Q771.36-15.13 772.21-20.59L772.21-20.59L772.21-20.59Q773.06-26.04 774.00-31.96L774.00-31.96L774.00-31.96Q774.94-37.88 776.06-43.85L776.06-43.85L776.06-43.85Q777.19-49.82 778.08-54.71L778.08-54.71L778.08-54.71Q778.98-59.60 779.64-62.84L779.64-62.84L779.64-62.84Q780.29-66.08 780.48-66.83L780.48-66.83L780.48-66.83Q782.46-67.02 785.18-67.30L785.18-67.30L785.18-67.30Q787.91-67.59 790.26-67.77L790.26-67.77L790.26-67.77Q793.17-68.06 795.99-68.34L795.99-68.34L795.99-68.34Q793.55-56.96 791.67-47.75L791.67-47.75L791.67-47.75Q790.82-43.80 790.02-39.86L790.02-39.86L790.02-39.86Q789.22-35.91 788.52-32.62L788.52-32.62L788.52-32.62Q787.81-29.33 787.30-26.93L787.30-26.93L787.30-26.93Q786.78-24.53 786.45-23.03L786.45-23.03L786.45-23.03Q786.12-21.53 785.70-19.22L785.70-19.22L785.70-19.22Q785.28-16.92 785.28-15.04L785.28-15.04L785.28-15.04Q785.28-13.54 786.03-12.55L786.03-12.55L786.03-12.55Q786.78-11.56 787.91-11.56L787.91-11.56L787.91-11.56Q789.51-11.56 790.54-12.83L790.54-12.83L790.54-12.83Q791.57-14.10 792.28-15.89L792.28-15.89L792.28-15.89Q792.98-17.67 793.31-19.50L793.31-19.50L793.31-19.50Q793.64-21.34 793.92-22.37L793.92-22.37L793.92-22.37Q794.49-25.10 795.19-28.43L795.19-28.43L795.19-28.43Q795.90-31.77 796.60-35.39L796.60-35.39L796.60-35.39Q797.31-39.01 798.01-42.77L798.01-42.77L798.01-42.77Q798.72-46.53 799.38-50.10L799.38-50.10L799.38-50.10Q800.97-58.37 802.48-67.21L802.48-67.21L816.77-68.15L816.77-68.15Q816.77-68.15 816.30-65.71L816.30-65.71L816.30-65.71Q815.83-63.26 815.07-59.22L815.07-59.22L815.07-59.22Q814.32-55.18 813.43-50.01L813.43-50.01L813.43-50.01Q812.54-44.84 811.41-39.24L811.41-39.24L811.41-39.24Q810.28-33.65 809.20-28.25L809.20-28.25L809.20-28.25Q808.12-22.84 807.08-18.33L807.08-18.33ZM823.35-1.88L823.35-1.88Q822.50-1.88 820.01-1.65L820.01-1.65L820.01-1.65Q817.52-1.41 814.89-1.08L814.89-1.08L814.89-1.08Q812.25-0.75 810.14-0.47L810.14-0.47L810.14-0.47Q808.02-0.19 807.84-0.09L807.84-0.09L807.84-0.09Q808.78-4.14 809.76-9.07L809.76-9.07L809.76-9.07Q810.75-14.01 811.78-19.41L811.78-19.41L811.78-19.41Q812.82-24.82 813.76-30.36L813.76-30.36L813.76-30.36Q814.70-35.91 815.54-41.08L815.54-41.08L815.54-41.08Q817.52-53.11 819.49-65.80L819.49-65.80L834.16-68.15L834.16-68.15Q831.99-55.55 829.93-43.43L829.93-43.43L829.93-43.43Q829.08-38.26 828.19-32.71L828.19-32.71L828.19-32.71Q827.29-27.17 826.40-21.71L826.40-21.71L826.40-21.71Q825.51-16.26 824.76-11.14L824.76-11.14L824.76-11.14Q824.00-6.02 823.35-1.88L823.35-1.88ZM874.20-48.03L874.20-48.03Q874.20-43.15 872.79-37.65L872.79-37.65L872.79-37.65Q871.38-32.15 868.84-26.74L868.84-26.74L868.84-26.74Q866.30-21.34 862.59-16.40L862.59-16.40L862.59-16.40Q858.88-11.47 854.18-7.75L854.18-7.75L854.18-7.75Q849.48-4.04 843.88-1.79L843.88-1.79L843.88-1.79Q838.29 0.47 831.99 0.47L831.99 0.47L831.99 0.47Q830.68 0.47 829.36 0.33L829.36 0.33L829.36 0.33Q828.05 0.19 826.73 0L826.73 0L826.73 0Q829.27-12.97 831.71-25.29L831.71-25.29L831.71-25.29Q832.65-30.46 833.69-36.05L833.69-36.05L833.69-36.05Q834.72-41.64 835.66-47.09L835.66-47.09L835.66-47.09Q836.60-52.55 837.49-57.53L837.49-57.53L837.49-57.53Q838.39-62.51 838.95-66.55L838.95-66.55L838.95-66.55Q842.99-67.30 847.13-67.96L847.13-67.96L847.13-67.96Q851.26-68.62 855.59-68.62L855.59-68.62L855.59-68.62Q860.66-68.62 864.19-67.02L864.19-67.02L864.19-67.02Q867.71-65.42 869.92-62.60L869.92-62.60L869.92-62.60Q872.13-59.78 873.17-56.02L873.17-56.02L873.17-56.02Q874.20-52.26 874.20-48.03L874.20-48.03ZM852.02-55.37L852.02-55.37Q850.98-49.82 849.85-44.74L849.85-44.74L849.85-44.74Q848.73-39.67 847.60-34.50L847.60-34.50L847.60-34.50Q846.47-29.33 845.34-23.69L845.34-23.69L845.34-23.69Q844.21-18.05 843.18-11.37L843.18-11.37L843.18-11.37Q845.44-12.88 847.55-15.46L847.55-15.46L847.55-15.46Q849.67-18.05 851.55-21.43L851.55-21.43L851.55-21.43Q853.43-24.82 854.98-28.58L854.98-28.58L854.98-28.58Q856.53-32.34 857.66-35.91L857.66-35.91L857.66-35.91Q858.78-39.48 859.39-42.58L859.39-42.58L859.39-42.58Q860.01-45.68 860.01-47.94L860.01-47.94L860.01-47.94Q860.01-51.42 858.08-53.39L858.08-53.39L858.08-53.39Q856.15-55.37 852.02-55.37L852.02-55.37ZM898.92-4.61L868.56 0.09L880.87-66.74L910.58-69.28L910.58-69.28Q909.92-67.21 909.45-65.05L909.45-65.05L909.45-65.05Q908.98-63.26 908.56-61.34L908.56-61.34L908.56-61.34Q908.13-59.41 907.85-57.90L907.85-57.90L907.85-57.90Q906.91-57.81 905.17-57.76L905.17-57.76L905.17-57.76Q903.43-57.72 901.46-57.67L901.46-57.67L901.46-57.67Q899.49-57.62 897.46-57.62L897.46-57.62L897.46-57.62Q895.44-57.62 893.94-57.62L893.94-57.62L890.65-40.80L890.65-40.80Q893.56-40.98 896.10-41.08L896.10-41.08L896.10-41.08Q898.17-41.17 900.33-41.17L900.33-41.17L900.33-41.17Q902.49-41.17 903.53-41.27L903.53-41.27L903.53-41.27Q903.15-38.63 902.82-36.10L902.82-36.10L902.82-36.10Q902.49-33.56 902.02-30.93L902.02-30.93L902.02-30.93Q901.08-30.83 898.97-30.79L898.97-30.79L898.97-30.79Q896.85-30.74 894.69-30.64L894.69-30.64L894.69-30.64Q892.25-30.55 889.33-30.46L889.33-30.46L886.14-13.16L899.86-15.32L898.92-4.61Z" fill="url(#editing-shiny-gradient)"></path></g></g><g filter="url(#editing-shiny2)"><g transform="translate(-200.76064705848694, 111.5993766784668)"><path d="M39.10-18.33L39.10-18.33Q37.79-12.97 35.39-9.21L35.39-9.21L35.39-9.21Q32.99-5.45 29.75-3.01L29.75-3.01L29.75-3.01Q26.51-0.56 22.84 0.56L22.84 0.56L22.84 0.56Q19.18 1.69 15.51 1.69L15.51 1.69L15.51 1.69Q13.35 1.69 11.09 0.99L11.09 0.99L11.09 0.99Q8.84 0.28 7.05-1.13L7.05-1.13L7.05-1.13Q5.26-2.54 4.09-4.70L4.09-4.70L4.09-4.70Q2.91-6.86 2.91-9.78L2.91-9.78L2.91-9.78Q2.91-10.15 2.91-10.53L2.91-10.53L2.91-10.53Q2.91-10.90 3.01-11.28L3.01-11.28L3.01-11.28Q3.38-15.13 4.23-20.59L4.23-20.59L4.23-20.59Q5.08-26.04 6.02-31.96L6.02-31.96L6.02-31.96Q6.96-37.88 8.08-43.85L8.08-43.85L8.08-43.85Q9.21-49.82 10.11-54.71L10.11-54.71L10.11-54.71Q11.00-59.60 11.66-62.84L11.66-62.84L11.66-62.84Q12.31-66.08 12.50-66.83L12.50-66.83L12.50-66.83Q14.48-67.02 17.20-67.30L17.20-67.30L17.20-67.30Q19.93-67.59 22.28-67.77L22.28-67.77L22.28-67.77Q25.19-68.06 28.01-68.34L28.01-68.34L28.01-68.34Q25.57-56.96 23.69-47.75L23.69-47.75L23.69-47.75Q22.84-43.80 22.04-39.86L22.04-39.86L22.04-39.86Q21.24-35.91 20.54-32.62L20.54-32.62L20.54-32.62Q19.83-29.33 19.32-26.93L19.32-26.93L19.32-26.93Q18.80-24.53 18.47-23.03L18.47-23.03L18.47-23.03Q18.14-21.53 17.72-19.22L17.72-19.22L17.72-19.22Q17.30-16.92 17.30-15.04L17.30-15.04L17.30-15.04Q17.30-13.54 18.05-12.55L18.05-12.55L18.05-12.55Q18.80-11.56 19.93-11.56L19.93-11.56L19.93-11.56Q21.53-11.56 22.56-12.83L22.56-12.83L22.56-12.83Q23.59-14.10 24.30-15.89L24.30-15.89L24.30-15.89Q25.00-17.67 25.33-19.50L25.33-19.50L25.33-19.50Q25.66-21.34 25.94-22.37L25.94-22.37L25.94-22.37Q26.51-25.10 27.21-28.43L27.21-28.43L27.21-28.43Q27.92-31.77 28.62-35.39L28.62-35.39L28.62-35.39Q29.33-39.01 30.03-42.77L30.03-42.77L30.03-42.77Q30.74-46.53 31.40-50.10L31.40-50.10L31.40-50.10Q32.99-58.37 34.50-67.21L34.50-67.21L48.79-68.15L48.79-68.15Q48.79-68.15 48.32-65.71L48.32-65.71L48.32-65.71Q47.85-63.26 47.09-59.22L47.09-59.22L47.09-59.22Q46.34-55.18 45.45-50.01L45.45-50.01L45.45-50.01Q44.56-44.84 43.43-39.24L43.43-39.24L43.43-39.24Q42.30-33.65 41.22-28.25L41.22-28.25L41.22-28.25Q40.14-22.84 39.10-18.33L39.10-18.33ZM65.33-3.01L65.33-3.01Q62.42-3.01 59.17-2.82L59.17-2.82L59.17-2.82Q55.93-2.63 52.64-2.26L52.64-2.26L52.64-2.26Q49.35-1.88 46.20-1.27L46.20-1.27L46.20-1.27Q43.05-0.66 40.51 0.19L40.51 0.19L40.51 0.19Q41.08-4.04 41.83-9.21L41.83-9.21L41.83-9.21Q42.58-14.38 43.57-19.93L43.57-19.93L43.57-19.93Q44.56-25.47 45.54-31.11L45.54-31.11L45.54-31.11Q46.53-36.75 47.56-41.92L47.56-41.92L47.56-41.92Q49.91-54.24 52.55-67.02L52.55-67.02L69.00-69.18L69.00-69.18Q66.46-58.28 64.11-47.94L64.11-47.94L64.11-47.94Q63.07-43.52 62.04-38.77L62.04-38.77L62.04-38.77Q61.01-34.03 60.07-29.52L60.07-29.52L60.07-29.52Q59.13-25.00 58.37-20.77L58.37-20.77L58.37-20.77Q57.62-16.54 57.15-13.25L57.15-13.25L57.15-13.25Q59.50-13.44 62.18-13.49L62.18-13.49L62.18-13.49Q64.86-13.54 66.93-13.54L66.93-13.54L66.93-13.54Q67.02-11.75 67.21-10.01L67.21-10.01L67.21-10.01Q67.40-8.27 67.63-6.86L67.63-6.86L67.63-6.86Q67.87-5.45 68.01-4.37L68.01-4.37L68.01-4.37Q68.15-3.29 68.24-2.91L68.24-2.91L68.24-2.91Q67.49-2.91 66.79-2.96L66.79-2.96L66.79-2.96Q66.08-3.01 65.33-3.01L65.33-3.01ZM93.15-2.54L76.23 0.09L76.23 0.09Q78.40-10.25 80.37-20.30L80.37-20.30L80.37-20.30Q81.22-24.53 82.06-29.14L82.06-29.14L82.06-29.14Q82.91-33.75 83.71-38.21L83.71-38.21L83.71-38.21Q84.51-42.68 85.12-46.86L85.12-46.86L85.12-46.86Q85.73-51.04 86.20-54.52L86.20-54.52L86.20-54.52Q84.04-54.80 81.83-54.71L81.83-54.71L81.83-54.71Q79.62-54.61 77.46-55.27L77.46-55.27L77.46-55.27Q77.55-56.78 77.55-58.75L77.55-58.75L77.55-58.75Q77.55-60.72 77.64-62.70L77.64-62.70L77.64-62.70Q77.74-64.86 77.83-67.30L77.83-67.30L77.83-67.30Q80.28-67.12 82.72-67.02L82.72-67.02L82.72-67.02Q85.16-66.93 87.61-66.93L87.61-66.93L87.61-66.93Q92.40-66.93 96.87-67.16L96.87-67.16L96.87-67.16Q101.33-67.40 105.14-67.73L105.14-67.73L105.14-67.73Q108.95-68.06 112.61-68.53L112.61-68.53L111.58-63.45L111.58-63.45Q111.11-61.29 110.69-59.03L110.69-59.03L110.69-59.03Q110.26-56.78 109.89-55.18L109.89-55.18L109.89-55.18Q107.82-54.61 105.70-54.38L105.70-54.38L105.70-54.38Q103.59-54.14 101.52-53.77L101.52-53.77L101.52-53.77Q100.86-50.57 100.11-46.67L100.11-46.67L100.11-46.67Q99.36-42.77 98.65-38.59L98.65-38.59L98.65-38.59Q97.95-34.40 97.29-30.08L97.29-30.08L97.29-30.08Q96.63-25.76 95.97-21.81L95.97-21.81L95.97-21.81Q94.47-12.50 93.15-2.54L93.15-2.54ZM117.78-1.88L117.78-1.88Q116.94-1.88 114.44-1.65L114.44-1.65L114.44-1.65Q111.95-1.41 109.32-1.08L109.32-1.08L109.32-1.08Q106.69-0.75 104.57-0.47L104.57-0.47L104.57-0.47Q102.46-0.19 102.27-0.09L102.27-0.09L102.27-0.09Q103.21-4.14 104.20-9.07L104.20-9.07L104.20-9.07Q105.19-14.01 106.22-19.41L106.22-19.41L106.22-19.41Q107.25-24.82 108.19-30.36L108.19-30.36L108.19-30.36Q109.13-35.91 109.98-41.08L109.98-41.08L109.98-41.08Q111.95-53.11 113.93-65.80L113.93-65.80L128.59-68.15L128.59-68.15Q126.43-55.55 124.36-43.43L124.36-43.43L124.36-43.43Q123.52-38.26 122.62-32.71L122.62-32.71L122.62-32.71Q121.73-27.17 120.84-21.71L120.84-21.71L120.84-21.71Q119.94-16.26 119.19-11.14L119.19-11.14L119.19-11.14Q118.44-6.02 117.78-1.88L117.78-1.88ZM133.48-1.60L117.97-0.56L117.97-0.56Q122.11-13.07 125.87-25.10L125.87-25.10L125.87-25.10Q127.46-30.17 129.16-35.72L129.16-35.72L129.16-35.72Q130.85-41.27 132.54-46.72L132.54-46.72L132.54-46.72Q134.23-52.17 135.69-57.25L135.69-57.25L135.69-57.25Q137.15-62.32 138.27-66.65L138.27-66.65L138.27-66.65Q143.44-66.65 148.05-67.21L148.05-67.21L148.05-67.21Q152.66-67.77 158.01-68.24L158.01-68.24L158.01-68.24Q157.73-66.18 157.40-63.59L157.40-63.59L157.40-63.59Q157.07-61.01 156.65-58.19L156.65-58.19L156.65-58.19Q156.23-55.37 155.76-52.36L155.76-52.36L155.76-52.36Q155.29-49.35 154.63-44.65L154.63-44.65L154.63-44.65Q153.97-39.95 152.84-32.90L152.84-32.90L154.07-32.90L154.07-32.90Q156.79-40.04 158.58-44.79L158.58-44.79L158.58-44.79Q160.36-49.54 161.49-52.55L161.49-52.55L161.49-52.55Q162.62-55.55 163.79-58.42L163.79-58.42L163.79-58.42Q164.97-61.29 166.05-63.87L166.05-63.87L166.05-63.87Q167.13-66.46 168.07-68.43L168.07-68.43L168.07-68.43Q170.42-68.62 172.49-68.90L172.49-68.90L172.49-68.90Q174.56-69.18 176.63-69.51L176.63-69.51L176.63-69.51Q178.69-69.84 180.81-70.17L180.81-70.17L180.81-70.17Q182.92-70.50 185.46-70.97L185.46-70.97L185.46-70.97Q184.52-65.52 183.68-59.78L183.68-59.78L183.68-59.78Q182.83-54.05 182.17-48.36L182.17-48.36L182.17-48.36Q181.51-42.68 180.90-37.13L180.90-37.13L180.90-37.13Q180.29-31.58 179.82-26.60L179.82-26.60L179.82-26.60Q178.69-14.95 177.85-3.85L177.85-3.85L161.49-0.94L161.49-0.94Q161.49-1.41 161.63-3.48L161.63-3.48L161.63-3.48Q161.77-5.55 162.01-8.55L162.01-8.55L162.01-8.55Q162.24-11.56 162.67-15.23L162.67-15.23L162.67-15.23Q163.09-18.89 163.51-22.56L163.51-22.56L163.51-22.56Q163.94-26.23 164.41-29.66L164.41-29.66L164.41-29.66Q164.88-33.09 165.35-35.53L165.35-35.53L164.50-35.53L164.50-35.53Q163.18-31.58 161.59-27.21L161.59-27.21L161.59-27.21Q159.99-22.84 158.34-18.33L158.34-18.33L158.34-18.33Q156.70-13.82 155.10-9.49L155.10-9.49L155.10-9.49Q153.50-5.17 152.28-1.22L152.28-1.22L152.28-1.22Q148.99-1.13 146.64-0.99L146.64-0.99L146.64-0.99Q144.29-0.85 141.19-0.66L141.19-0.66L144.20-35.53L142.79-35.53L142.79-35.53Q142.60-34.31 141.85-31.44L141.85-31.44L141.85-31.44Q141.09-28.58 140.11-24.86L140.11-24.86L140.11-24.86Q139.12-21.15 137.99-17.16L137.99-17.16L137.99-17.16Q136.86-13.16 135.88-9.73L135.88-9.73L135.88-9.73Q134.89-6.30 134.23-4.09L134.23-4.09L134.23-4.09Q133.57-1.88 133.48-1.60L133.48-1.60ZM213.57-1.88L213.57-1.88Q211.22-1.50 208.40-1.03L208.40-1.03L208.40-1.03Q205.58-0.56 203.32-0.19L203.32-0.19L203.32-0.19Q203.70-3.29 204.07-6.30L204.07-6.30L204.07-6.30Q204.36-8.93 204.59-11.56L204.59-11.56L204.59-11.56Q204.83-14.19 205.01-16.07L205.01-16.07L196.84-16.07L193.08-2.54L193.08-2.54Q191.01-2.26 188.19-1.93L188.19-1.93L188.19-1.93Q185.37-1.60 182.92-1.32L182.92-1.32L182.92-1.32Q179.92-0.94 177.00-0.56L177.00-0.56L177.00-0.56Q180.76-13.07 184.43-25.19L184.43-25.19L184.43-25.19Q185.93-30.27 187.58-35.81L187.58-35.81L187.58-35.81Q189.22-41.36 190.87-46.86L190.87-46.86L190.87-46.86Q192.51-52.36 194.02-57.43L194.02-57.43L194.02-57.43Q195.52-62.51 196.65-66.74L196.65-66.74L196.65-66.74Q203.04-67.21 209.67-67.87L209.67-67.87L209.67-67.87Q216.29-68.53 222.59-69.65L222.59-69.65L222.59-69.65Q222.31-66.65 221.98-62.18L221.98-62.18L221.98-62.18Q221.65-57.72 221.37-52.45L221.37-52.45L221.37-52.45Q221.09-47.19 220.81-41.45L220.81-41.45L220.81-41.45Q220.52-35.72 220.24-30.17L220.24-30.17L220.24-30.17Q219.77-17.20 219.21-2.63L219.21-2.63L219.21-2.63Q216.39-2.16 213.57-1.88L213.57-1.88ZM204.92-49.07L199.09-25.47L199.09-25.47Q199.47-25.47 200.45-25.52L200.45-25.52L200.45-25.52Q201.44-25.57 202.52-25.61L202.52-25.61L202.52-25.61Q203.60-25.66 204.54-25.71L204.54-25.71L204.54-25.71Q205.48-25.76 205.86-25.85L205.86-25.85L205.86-25.85Q205.86-26.41 206.00-27.78L206.00-27.78L206.00-27.78Q206.14-29.14 206.28-30.88L206.28-30.88L206.28-30.88Q206.42-32.62 206.61-34.69L206.61-34.69L206.61-34.69Q206.80-36.75 206.99-38.73L206.99-38.73L206.99-38.73Q207.36-43.52 207.93-49.07L207.93-49.07L208.49-57.25L207.08-57.15L204.92-49.07ZM245.06-2.54L228.14 0.09L228.14 0.09Q230.30-10.25 232.27-20.30L232.27-20.30L232.27-20.30Q233.12-24.53 233.97-29.14L233.97-29.14L233.97-29.14Q234.81-33.75 235.61-38.21L235.61-38.21L235.61-38.21Q236.41-42.68 237.02-46.86L237.02-46.86L237.02-46.86Q237.63-51.04 238.10-54.52L238.10-54.52L238.10-54.52Q235.94-54.80 233.73-54.71L233.73-54.71L233.73-54.71Q231.52-54.61 229.36-55.27L229.36-55.27L229.36-55.27Q229.45-56.78 229.45-58.75L229.45-58.75L229.45-58.75Q229.45-60.72 229.55-62.70L229.55-62.70L229.55-62.70Q229.64-64.86 229.74-67.30L229.74-67.30L229.74-67.30Q232.18-67.12 234.62-67.02L234.62-67.02L234.62-67.02Q237.07-66.93 239.51-66.93L239.51-66.93L239.51-66.93Q244.31-66.93 248.77-67.16L248.77-67.16L248.77-67.16Q253.24-67.40 257.04-67.73L257.04-67.73L257.04-67.73Q260.85-68.06 264.52-68.53L264.52-68.53L263.48-63.45L263.48-63.45Q263.01-61.29 262.59-59.03L262.59-59.03L262.59-59.03Q262.17-56.78 261.79-55.18L261.79-55.18L261.79-55.18Q259.72-54.61 257.61-54.38L257.61-54.38L257.61-54.38Q255.49-54.14 253.42-53.77L253.42-53.77L253.42-53.77Q252.77-50.57 252.01-46.67L252.01-46.67L252.01-46.67Q251.26-42.77 250.56-38.59L250.56-38.59L250.56-38.59Q249.85-34.40 249.19-30.08L249.19-30.08L249.19-30.08Q248.54-25.76 247.88-21.81L247.88-21.81L247.88-21.81Q246.37-12.50 245.06-2.54L245.06-2.54ZM284.82-4.61L254.46 0.09L266.77-66.74L296.48-69.28L296.48-69.28Q295.82-67.21 295.35-65.05L295.35-65.05L295.35-65.05Q294.88-63.26 294.45-61.34L294.45-61.34L294.45-61.34Q294.03-59.41 293.75-57.90L293.75-57.90L293.75-57.90Q292.81-57.81 291.07-57.76L291.07-57.76L291.07-57.76Q289.33-57.72 287.36-57.67L287.36-57.67L287.36-57.67Q285.38-57.62 283.36-57.62L283.36-57.62L283.36-57.62Q281.34-57.62 279.84-57.62L279.84-57.62L276.55-40.80L276.55-40.80Q279.46-40.98 282-41.08L282-41.08L282-41.08Q284.07-41.17 286.23-41.17L286.23-41.17L286.23-41.17Q288.39-41.17 289.43-41.27L289.43-41.27L289.43-41.27Q289.05-38.63 288.72-36.10L288.72-36.10L288.72-36.10Q288.39-33.56 287.92-30.93L287.92-30.93L287.92-30.93Q286.98-30.83 284.87-30.79L284.87-30.79L284.87-30.79Q282.75-30.74 280.59-30.64L280.59-30.64L280.59-30.64Q278.15-30.55 275.23-30.46L275.23-30.46L272.04-13.16L285.76-15.32L284.82-4.61ZM316.78-1.60L301.27-0.56L301.27-0.56Q305.41-13.07 309.17-25.10L309.17-25.10L309.17-25.10Q310.76-30.17 312.46-35.72L312.46-35.72L312.46-35.72Q314.15-41.27 315.84-46.72L315.84-46.72L315.84-46.72Q317.53-52.17 318.99-57.25L318.99-57.25L318.99-57.25Q320.45-62.32 321.57-66.65L321.57-66.65L321.57-66.65Q326.74-66.65 331.35-67.21L331.35-67.21L331.35-67.21Q335.96-67.77 341.31-68.24L341.31-68.24L341.31-68.24Q341.03-66.18 340.70-63.59L340.70-63.59L340.70-63.59Q340.37-61.01 339.95-58.19L339.95-58.19L339.95-58.19Q339.53-55.37 339.06-52.36L339.06-52.36L339.06-52.36Q338.59-49.35 337.93-44.65L337.93-44.65L337.93-44.65Q337.27-39.95 336.14-32.90L336.14-32.90L337.37-32.90L337.37-32.90Q340.09-40.04 341.88-44.79L341.88-44.79L341.88-44.79Q343.66-49.54 344.79-52.55L344.79-52.55L344.79-52.55Q345.92-55.55 347.09-58.42L347.09-58.42L347.09-58.42Q348.27-61.29 349.35-63.87L349.35-63.87L349.35-63.87Q350.43-66.46 351.37-68.43L351.37-68.43L351.37-68.43Q353.72-68.62 355.79-68.90L355.79-68.90L355.79-68.90Q357.86-69.18 359.93-69.51L359.93-69.51L359.93-69.51Q361.99-69.84 364.11-70.17L364.11-70.17L364.11-70.17Q366.22-70.50 368.76-70.97L368.76-70.97L368.76-70.97Q367.82-65.52 366.98-59.78L366.98-59.78L366.98-59.78Q366.13-54.05 365.47-48.36L365.47-48.36L365.47-48.36Q364.81-42.68 364.20-37.13L364.20-37.13L364.20-37.13Q363.59-31.58 363.12-26.60L363.12-26.60L363.12-26.60Q361.99-14.95 361.15-3.85L361.15-3.85L344.79-0.94L344.79-0.94Q344.79-1.41 344.93-3.48L344.93-3.48L344.93-3.48Q345.07-5.55 345.31-8.55L345.31-8.55L345.31-8.55Q345.54-11.56 345.97-15.23L345.97-15.23L345.97-15.23Q346.39-18.89 346.81-22.56L346.81-22.56L346.81-22.56Q347.24-26.23 347.71-29.66L347.71-29.66L347.71-29.66Q348.18-33.09 348.65-35.53L348.65-35.53L347.80-35.53L347.80-35.53Q346.48-31.58 344.89-27.21L344.89-27.21L344.89-27.21Q343.29-22.84 341.64-18.33L341.64-18.33L341.64-18.33Q340.00-13.82 338.40-9.49L338.40-9.49L338.40-9.49Q336.80-5.17 335.58-1.22L335.58-1.22L335.58-1.22Q332.29-1.13 329.94-0.99L329.94-0.99L329.94-0.99Q327.59-0.85 324.49-0.66L324.49-0.66L327.50-35.53L326.09-35.53L326.09-35.53Q325.90-34.31 325.15-31.44L325.15-31.44L325.15-31.44Q324.39-28.58 323.41-24.86L323.41-24.86L323.41-24.86Q322.42-21.15 321.29-17.16L321.29-17.16L321.29-17.16Q320.16-13.16 319.18-9.73L319.18-9.73L319.18-9.73Q318.19-6.30 317.53-4.09L317.53-4.09L317.53-4.09Q316.87-1.88 316.78-1.60L316.78-1.60ZM414.92-50.85L414.92-50.85Q414.92-43.15 413.27-36.33L413.27-36.33L413.27-36.33Q411.63-29.52 408.90-23.83L408.90-23.83L408.90-23.83Q406.17-18.14 402.55-13.68L402.55-13.68L402.55-13.68Q398.94-9.21 394.99-6.06L394.99-6.06L394.99-6.06Q391.04-2.91 387.00-1.27L387.00-1.27L387.00-1.27Q382.96 0.38 379.29 0.38L379.29 0.38L379.29 0.38Q376.19 0.38 373.65-0.80L373.65-0.80L373.65-0.80Q371.11-1.97 369.23-4.28L369.23-4.28L369.23-4.28Q367.35-6.58 366.27-10.20L366.27-10.20L366.27-10.20Q365.19-13.82 365.19-18.89L365.19-18.89L365.19-18.89Q365.19-24.16 366.51-29.99L366.51-29.99L366.51-29.99Q367.82-35.81 370.08-41.55L370.08-41.55L370.08-41.55Q372.33-47.28 375.62-52.45L375.62-52.45L375.62-52.45Q378.91-57.62 382.86-61.62L382.86-61.62L382.86-61.62Q386.81-65.61 391.32-67.96L391.32-67.96L391.32-67.96Q395.83-70.31 400.72-70.31L400.72-70.31L400.72-70.31Q404.95-70.31 407.72-68.57L407.72-68.57L407.72-68.57Q410.50-66.83 412.05-64.06L412.05-64.06L412.05-64.06Q413.60-61.29 414.26-57.81L414.26-57.81L414.26-57.81Q414.92-54.33 414.92-50.85L414.92-50.85ZM379.20-21.34L379.20-21.34Q379.20-20.30 379.57-19.18L379.57-19.18L379.57-19.18Q379.95-18.05 380.61-17.20L380.61-17.20L380.61-17.20Q381.26-16.36 382.25-15.74L382.25-15.74L382.25-15.74Q383.24-15.13 384.37-15.13L384.37-15.13L384.37-15.13Q388.60-15.13 391.89-18.05L391.89-18.05L391.89-18.05Q395.18-20.96 397.34-25.19L397.34-25.19L397.34-25.19Q399.50-29.42 400.67-34.22L400.67-34.22L400.67-34.22Q401.85-39.01 401.85-42.96L401.85-42.96L401.85-42.96Q401.85-44.09 401.71-45.40L401.71-45.40L401.71-45.40Q401.57-46.72 401.14-47.85L401.14-47.85L401.14-47.85Q400.72-48.97 399.83-49.77L399.83-49.77L399.83-49.77Q398.94-50.57 397.43-50.57L397.43-50.57L397.43-50.57Q394.42-50.57 391.89-49.07L391.89-49.07L391.89-49.07Q389.35-47.56 387.33-45.07L387.33-45.07L387.33-45.07Q385.31-42.58 383.80-39.43L383.80-39.43L383.80-39.43Q382.30-36.28 381.22-33.04L381.22-33.04L381.22-33.04Q380.14-29.80 379.67-26.70L379.67-26.70L379.67-26.70Q379.20-23.59 379.20-21.34L379.20-21.34ZM438.51-2.82L414.16 0.85L414.16 0.85Q415.39-12.31 416.42-25.00L416.42-25.00L416.42-25.00Q416.89-30.27 417.31-36.10L417.31-36.10L417.31-36.10Q417.74-41.92 418.06-47.61L418.06-47.61L418.06-47.61Q418.39-53.30 418.58-58.61L418.58-58.61L418.58-58.61Q418.77-63.92 418.86-68.34L418.86-68.34L418.86-68.34Q421.12-68.34 423.70-68.43L423.70-68.43L423.70-68.43Q426.29-68.53 428.40-68.62L428.40-68.62L428.40-68.62Q430.52-68.71 432.02-68.86L432.02-68.86L432.02-68.86Q433.53-69.00 433.53-69.00L433.53-69.00L433.53-69.00Q432.49-58.09 431.74-51.09L431.74-51.09L431.74-51.09Q430.99-44.09 430.57-39.72L430.57-39.72L430.57-39.72Q430.14-35.34 429.81-31.30L429.81-31.30L429.81-31.30Q429.49-27.26 429.11-23.78L429.11-23.78L429.11-23.78Q428.73-20.30 428.45-17.86L428.45-17.86L430.14-17.86L440.67-67.87L440.67-67.87Q443.21-67.96 445.84-68.15L445.84-68.15L445.84-68.15Q448.19-68.34 450.78-68.43L450.78-68.43L450.78-68.43Q453.36-68.53 455.52-68.81L455.52-68.81L455.52-68.81Q454.21-64.67 452.84-59.69L452.84-59.69L452.84-59.69Q451.48-54.71 450.02-49.35L450.02-49.35L450.02-49.35Q448.57-43.99 447.20-38.45L447.20-38.45L447.20-38.45Q445.84-32.90 444.53-27.73L444.53-27.73L444.53-27.73Q441.52-15.60 438.51-2.82L438.51-2.82ZM460.22-1.88L460.22-1.88Q459.38-1.88 456.89-1.65L456.89-1.65L456.89-1.65Q454.40-1.41 451.76-1.08L451.76-1.08L451.76-1.08Q449.13-0.75 447.02-0.47L447.02-0.47L447.02-0.47Q444.90-0.19 444.71-0.09L444.71-0.09L444.71-0.09Q445.65-4.14 446.64-9.07L446.64-9.07L446.64-9.07Q447.63-14.01 448.66-19.41L448.66-19.41L448.66-19.41Q449.70-24.82 450.64-30.36L450.64-30.36L450.64-30.36Q451.58-35.91 452.42-41.08L452.42-41.08L452.42-41.08Q454.40-53.11 456.37-65.80L456.37-65.80L471.03-68.15L471.03-68.15Q468.87-55.55 466.80-43.43L466.80-43.43L466.80-43.43Q465.96-38.26 465.06-32.71L465.06-32.71L465.06-32.71Q464.17-27.17 463.28-21.71L463.28-21.71L463.28-21.71Q462.39-16.26 461.63-11.14L461.63-11.14L461.63-11.14Q460.88-6.02 460.22-1.88L460.22-1.88ZM494.35-4.61L463.98 0.09L476.30-66.74L506.00-69.28L506.00-69.28Q505.34-67.21 504.87-65.05L504.87-65.05L504.87-65.05Q504.40-63.26 503.98-61.34L503.98-61.34L503.98-61.34Q503.56-59.41 503.28-57.90L503.28-57.90L503.28-57.90Q502.34-57.81 500.60-57.76L500.60-57.76L500.60-57.76Q498.86-57.72 496.88-57.67L496.88-57.67L496.88-57.67Q494.91-57.62 492.89-57.62L492.89-57.62L492.89-57.62Q490.87-57.62 489.36-57.62L489.36-57.62L486.07-40.80L486.07-40.80Q488.99-40.98 491.53-41.08L491.53-41.08L491.53-41.08Q493.59-41.17 495.76-41.17L495.76-41.17L495.76-41.17Q497.92-41.17 498.95-41.27L498.95-41.27L498.95-41.27Q498.58-38.63 498.25-36.10L498.25-36.10L498.25-36.10Q497.92-33.56 497.45-30.93L497.45-30.93L497.45-30.93Q496.51-30.83 494.39-30.79L494.39-30.79L494.39-30.79Q492.28-30.74 490.12-30.64L490.12-30.64L490.12-30.64Q487.67-30.55 484.76-30.46L484.76-30.46L481.56-13.16L495.29-15.32L494.35-4.61ZM546.42-35.81L546.42-35.81Q545.76-26.23 542.66-19.13L542.66-19.13L542.66-19.13Q539.56-12.03 535.19-7.24L535.19-7.24L535.19-7.24Q530.82-2.44 525.79-0.09L525.79-0.09L525.79-0.09Q520.76 2.26 516.25 2.26L516.25 2.26L516.25 2.26Q512.77 2.26 509.62 0.75L509.62 0.75L509.62 0.75Q506.47-0.75 504.17-3.81L504.17-3.81L504.17-3.81Q501.87-6.86 500.55-11.47L500.55-11.47L500.55-11.47Q499.23-16.07 499.23-22.28L499.23-22.28L499.23-22.28Q499.23-34.40 502.71-43.43L502.71-43.43L502.71-43.43Q506.19-52.45 511.50-58.47L511.50-58.47L511.50-58.47Q516.81-64.48 522.88-67.40L522.88-67.40L522.88-67.40Q528.94-70.31 534.20-70.31L534.20-70.31L534.20-70.31Q537.96-70.31 540.73-69.00L540.73-69.00L540.73-69.00Q543.51-67.68 545.29-65.47L545.29-65.47L545.29-65.47Q547.08-63.26 547.88-60.30L547.88-60.30L547.88-60.30Q548.68-57.34 548.68-54.05L548.68-54.05L535.80-51.61L535.80-51.61Q534.95-55.37 533.54-56.96L533.54-56.96L533.54-56.96Q532.13-58.56 530.35-58.56L530.35-58.56L530.35-58.56Q528.00-58.56 525.18-55.23L525.18-55.23L525.18-55.23Q522.36-51.89 519.91-46.62L519.91-46.62L519.91-46.62Q517.47-41.36 515.78-35.06L515.78-35.06L515.78-35.06Q514.09-28.76 513.90-22.65L513.90-22.65L513.90-22.65Q513.90-16.83 515.64-14.34L515.64-14.34L515.64-14.34Q517.38-11.84 520.10-11.84L520.10-11.84L520.10-11.84Q521.98-11.84 524.00-12.78L524.00-12.78L524.00-12.78Q526.02-13.72 527.62-15.46L527.62-15.46L527.62-15.46Q529.22-17.20 530.30-19.50L530.30-19.50L530.30-19.50Q531.38-21.81 531.48-24.53L531.48-24.53L521.42-23.03L523.20-32.34L523.20-32.34Q527.62-32.90 531.85-33.46L531.85-33.46L531.85-33.46Q535.42-33.93 539.42-34.59L539.42-34.59L539.42-34.59Q543.41-35.25 546.42-35.81L546.42-35.81ZM594.83-50.85L594.83-50.85Q594.83-43.15 593.19-36.33L593.19-36.33L593.19-36.33Q591.54-29.52 588.82-23.83L588.82-23.83L588.82-23.83Q586.09-18.14 582.47-13.68L582.47-13.68L582.47-13.68Q578.85-9.21 574.90-6.06L574.90-6.06L574.90-6.06Q570.96-2.91 566.91-1.27L566.91-1.27L566.91-1.27Q562.87 0.38 559.21 0.38L559.21 0.38L559.21 0.38Q556.10 0.38 553.57-0.80L553.57-0.80L553.57-0.80Q551.03-1.97 549.15-4.28L549.15-4.28L549.15-4.28Q547.27-6.58 546.19-10.20L546.19-10.20L546.19-10.20Q545.11-13.82 545.11-18.89L545.11-18.89L545.11-18.89Q545.11-24.16 546.42-29.99L546.42-29.99L546.42-29.99Q547.74-35.81 549.99-41.55L549.99-41.55L549.99-41.55Q552.25-47.28 555.54-52.45L555.54-52.45L555.54-52.45Q558.83-57.62 562.78-61.62L562.78-61.62L562.78-61.62Q566.73-65.61 571.24-67.96L571.24-67.96L571.24-67.96Q575.75-70.31 580.64-70.31L580.64-70.31L580.64-70.31Q584.87-70.31 587.64-68.57L587.64-68.57L587.64-68.57Q590.41-66.83 591.96-64.06L591.96-64.06L591.96-64.06Q593.52-61.29 594.17-57.81L594.17-57.81L594.17-57.81Q594.83-54.33 594.83-50.85L594.83-50.85ZM559.11-21.34L559.11-21.34Q559.11-20.30 559.49-19.18L559.49-19.18L559.49-19.18Q559.86-18.05 560.52-17.20L560.52-17.20L560.52-17.20Q561.18-16.36 562.17-15.74L562.17-15.74L562.17-15.74Q563.15-15.13 564.28-15.13L564.28-15.13L564.28-15.13Q568.51-15.13 571.80-18.05L571.80-18.05L571.80-18.05Q575.09-20.96 577.25-25.19L577.25-25.19L577.25-25.19Q579.42-29.42 580.59-34.22L580.59-34.22L580.59-34.22Q581.77-39.01 581.77-42.96L581.77-42.96L581.77-42.96Q581.77-44.09 581.62-45.40L581.62-45.40L581.62-45.40Q581.48-46.72 581.06-47.85L581.06-47.85L581.06-47.85Q580.64-48.97 579.74-49.77L579.74-49.77L579.74-49.77Q578.85-50.57 577.35-50.57L577.35-50.57L577.35-50.57Q574.34-50.57 571.80-49.07L571.80-49.07L571.80-49.07Q569.26-47.56 567.24-45.07L567.24-45.07L567.24-45.07Q565.22-42.58 563.72-39.43L563.72-39.43L563.72-39.43Q562.21-36.28 561.13-33.04L561.13-33.04L561.13-33.04Q560.05-29.80 559.58-26.70L559.58-26.70L559.58-26.70Q559.11-23.59 559.11-21.34L559.11-21.34ZM619.65-4.61L589.29 0.09L601.60-66.74L631.30-69.28L631.30-69.28Q630.65-67.21 630.18-65.05L630.18-65.05L630.18-65.05Q629.71-63.26 629.28-61.34L629.28-61.34L629.28-61.34Q628.86-59.41 628.58-57.90L628.58-57.90L628.58-57.90Q627.64-57.81 625.90-57.76L625.90-57.76L625.90-57.76Q624.16-57.72 622.19-57.67L622.19-57.67L622.19-57.67Q620.21-57.62 618.19-57.62L618.19-57.62L618.19-57.62Q616.17-57.62 614.67-57.62L614.67-57.62L611.38-40.80L611.38-40.80Q614.29-40.98 616.83-41.08L616.83-41.08L616.83-41.08Q618.90-41.17 621.06-41.17L621.06-41.17L621.06-41.17Q623.22-41.17 624.25-41.27L624.25-41.27L624.25-41.27Q623.88-38.63 623.55-36.10L623.55-36.10L623.55-36.10Q623.22-33.56 622.75-30.93L622.75-30.93L622.75-30.93Q621.81-30.83 619.69-30.79L619.69-30.79L619.69-30.79Q617.58-30.74 615.42-30.64L615.42-30.64L615.42-30.64Q612.97-30.55 610.06-30.46L610.06-30.46L606.86-13.16L620.59-15.32L619.65-4.61ZM636.19-3.85L620.96 0.09L620.96 0.09Q623.50-12.41 625.85-24.35L625.85-24.35L625.85-24.35Q626.70-29.42 627.73-34.92L627.73-34.92L627.73-34.92Q628.77-40.42 629.66-45.83L629.66-45.83L629.66-45.83Q630.55-51.23 631.35-56.26L631.35-56.26L631.35-56.26Q632.15-61.29 632.62-65.42L632.62-65.42L632.62-65.42Q637.98-67.12 644.18-67.92L644.18-67.92L644.18-67.92Q650.39-68.71 656.50-68.71L656.50-68.71L656.50-68.71Q660.16-68.71 662.56-67.87L662.56-67.87L662.56-67.87Q664.96-67.02 666.32-65.47L666.32-65.47L666.32-65.47Q667.68-63.92 668.25-61.85L668.25-61.85L668.25-61.85Q668.81-59.78 668.81-57.25L668.81-57.25L668.81-57.25Q668.81-53.49 667.49-49.87L667.49-49.87L667.49-49.87Q666.18-46.25 663.97-43.01L663.97-43.01L663.97-43.01Q661.76-39.76 658.89-37.08L658.89-37.08L658.89-37.08Q656.03-34.40 652.74-32.71L652.74-32.71L652.74-32.71Q654.43-28.95 656.35-24.49L656.35-24.49L656.35-24.49Q658.28-20.02 659.97-15.98L659.97-15.98L659.97-15.98Q661.85-11.28 663.83-6.58L663.83-6.58L649.26-1.50L649.26-1.50Q647.38-7.52 645.87-12.78L645.87-12.78L645.87-12.78Q645.22-14.95 644.56-17.25L644.56-17.25L644.56-17.25Q643.90-19.55 643.34-21.62L643.34-21.62L643.34-21.62Q642.77-23.69 642.40-25.33L642.40-25.33L642.40-25.33Q642.02-26.98 641.93-28.01L641.93-28.01L640.70-27.64L640.70-27.64Q640.14-24.63 639.34-20.59L639.34-20.59L639.34-20.59Q638.54-16.54 637.88-12.78L637.88-12.78L637.88-12.78Q637.04-8.37 636.19-3.85L636.19-3.85ZM646.06-55.65L643.05-40.70L643.05-40.70Q644.84-40.89 647.42-42.21L647.42-42.21L647.42-42.21Q650.01-43.52 652.36-45.35L652.36-45.35L652.36-45.35Q654.71-47.19 656.40-49.16L656.40-49.16L656.40-49.16Q658.09-51.14 658.09-52.64L658.09-52.64L658.09-52.64Q658.09-53.67 657.44-54.28L657.44-54.28L657.44-54.28Q656.78-54.90 655.60-55.23L655.60-55.23L655.60-55.23Q654.43-55.55 653.02-55.65L653.02-55.65L653.02-55.65Q651.61-55.74 650.10-55.74L650.10-55.74L650.10-55.74Q649.07-55.74 647.99-55.70L647.99-55.70L647.99-55.70Q646.91-55.65 646.06-55.65L646.06-55.65ZM703.97-23.22L703.97-23.22Q703.97-17.95 701.94-13.68L701.94-13.68L701.94-13.68Q699.92-9.40 696.49-6.30L696.49-6.30L696.49-6.30Q693.06-3.20 688.41-1.50L688.41-1.50L688.41-1.50Q683.76 0.19 678.40 0.19L678.40 0.19L678.40 0.19Q674.64 0.19 670.88-1.83L670.88-1.83L670.88-1.83Q667.12-3.85 663.64-8.27L663.64-8.27L670.60-21.90L670.60-21.90Q671.25-20.68 672.57-19.41L672.57-19.41L672.57-19.41Q673.89-18.14 675.53-17.20L675.53-17.20L675.53-17.20Q677.18-16.26 678.82-15.65L678.82-15.65L678.82-15.65Q680.47-15.04 681.78-15.04L681.78-15.04L681.78-15.04Q682.91-15.04 684.13-15.42L684.13-15.42L684.13-15.42Q685.35-15.79 686.39-16.54L686.39-16.54L686.39-16.54Q687.42-17.30 688.03-18.28L688.03-18.28L688.03-18.28Q688.64-19.27 688.64-20.59L688.64-20.59L688.64-20.59Q688.64-22.84 687.19-24.77L687.19-24.77L687.19-24.77Q685.73-26.70 683.57-28.43L683.57-28.43L683.57-28.43Q681.41-30.17 678.87-31.96L678.87-31.96L678.87-31.96Q676.33-33.75 674.21-35.72L674.21-35.72L674.21-35.72Q672.10-37.69 670.60-40.14L670.60-40.14L670.60-40.14Q669.09-42.58 669.09-45.59L669.09-45.59L669.09-45.59Q669.09-50.48 672.01-54.71L672.01-54.71L672.01-54.71Q674.92-58.94 679.29-61.99L679.29-61.99L679.29-61.99Q683.66-65.05 688.83-66.83L688.83-66.83L688.83-66.83Q694.00-68.62 698.61-68.62L698.61-68.62L698.61-68.62Q701.15-68.62 703.40-68.01L703.40-68.01L703.40-68.01Q705.66-67.40 707.30-66.03L707.30-66.03L707.30-66.03Q708.95-64.67 709.93-62.60L709.93-62.60L709.93-62.60Q710.92-60.54 710.92-57.43L710.92-57.43L710.92-57.43Q710.92-56.12 710.69-54.80L710.69-54.80L710.69-54.80Q710.45-53.49 710.26-51.98L710.26-51.98L696.63-48.03L696.63-48.03Q696.82-48.79 696.96-49.54L696.96-49.54L696.96-49.54Q697.10-50.29 697.10-51.04L697.10-51.04L697.10-51.04Q697.10-53.86 696.12-55.13L696.12-55.13L696.12-55.13Q695.13-56.40 693.53-56.40L693.53-56.40L693.53-56.40Q692.78-56.40 691.70-55.84L691.70-55.84L691.70-55.84Q690.62-55.27 689.54-54.38L689.54-54.38L689.54-54.38Q688.46-53.49 687.70-52.26L687.70-52.26L687.70-52.26Q686.95-51.04 686.95-49.63L686.95-49.63L686.95-49.63Q686.95-47.38 688.22-45.87L688.22-45.87L688.22-45.87Q689.49-44.37 691.37-43.05L691.37-43.05L691.37-43.05Q693.25-41.74 695.46-40.37L695.46-40.37L695.46-40.37Q697.67-39.01 699.55-36.85L699.55-36.85L699.55-36.85Q701.43-34.69 702.70-31.44L702.70-31.44L702.70-31.44Q703.97-28.20 703.97-23.22L703.97-23.22ZM772.21-35.81L772.21-35.81Q771.55-26.23 768.45-19.13L768.45-19.13L768.45-19.13Q765.35-12.03 760.98-7.24L760.98-7.24L760.98-7.24Q756.61-2.44 751.58-0.09L751.58-0.09L751.58-0.09Q746.55 2.26 742.04 2.26L742.04 2.26L742.04 2.26Q738.56 2.26 735.41 0.75L735.41 0.75L735.41 0.75Q732.26-0.75 729.96-3.81L729.96-3.81L729.96-3.81Q727.65-6.86 726.34-11.47L726.34-11.47L726.34-11.47Q725.02-16.07 725.02-22.28L725.02-22.28L725.02-22.28Q725.02-34.40 728.50-43.43L728.50-43.43L728.50-43.43Q731.98-52.45 737.29-58.47L737.29-58.47L737.29-58.47Q742.60-64.48 748.66-67.40L748.66-67.40L748.66-67.40Q754.73-70.31 759.99-70.31L759.99-70.31L759.99-70.31Q763.75-70.31 766.52-69.00L766.52-69.00L766.52-69.00Q769.30-67.68 771.08-65.47L771.08-65.47L771.08-65.47Q772.87-63.26 773.67-60.30L773.67-60.30L773.67-60.30Q774.47-57.34 774.47-54.05L774.47-54.05L761.59-51.61L761.59-51.61Q760.74-55.37 759.33-56.96L759.33-56.96L759.33-56.96Q757.92-58.56 756.14-58.56L756.14-58.56L756.14-58.56Q753.79-58.56 750.97-55.23L750.97-55.23L750.97-55.23Q748.15-51.89 745.70-46.62L745.70-46.62L745.70-46.62Q743.26-41.36 741.57-35.06L741.57-35.06L741.57-35.06Q739.87-28.76 739.69-22.65L739.69-22.65L739.69-22.65Q739.69-16.83 741.42-14.34L741.42-14.34L741.42-14.34Q743.16-11.84 745.89-11.84L745.89-11.84L745.89-11.84Q747.77-11.84 749.79-12.78L749.79-12.78L749.79-12.78Q751.81-13.72 753.41-15.46L753.41-15.46L753.41-15.46Q755.01-17.20 756.09-19.50L756.09-19.50L756.09-19.50Q757.17-21.81 757.26-24.53L757.26-24.53L747.21-23.03L748.99-32.34L748.99-32.34Q753.41-32.90 757.64-33.46L757.64-33.46L757.64-33.46Q761.21-33.93 765.21-34.59L765.21-34.59L765.21-34.59Q769.20-35.25 772.21-35.81L772.21-35.81ZM807.08-18.33L807.08-18.33Q805.77-12.97 803.37-9.21L803.37-9.21L803.37-9.21Q800.97-5.45 797.73-3.01L797.73-3.01L797.73-3.01Q794.49-0.56 790.82 0.56L790.82 0.56L790.82 0.56Q787.16 1.69 783.49 1.69L783.49 1.69L783.49 1.69Q781.33 1.69 779.07 0.99L779.07 0.99L779.07 0.99Q776.82 0.28 775.03-1.13L775.03-1.13L775.03-1.13Q773.24-2.54 772.07-4.70L772.07-4.70L772.07-4.70Q770.89-6.86 770.89-9.78L770.89-9.78L770.89-9.78Q770.89-10.15 770.89-10.53L770.89-10.53L770.89-10.53Q770.89-10.90 770.99-11.28L770.99-11.28L770.99-11.28Q771.36-15.13 772.21-20.59L772.21-20.59L772.21-20.59Q773.06-26.04 774.00-31.96L774.00-31.96L774.00-31.96Q774.94-37.88 776.06-43.85L776.06-43.85L776.06-43.85Q777.19-49.82 778.08-54.71L778.08-54.71L778.08-54.71Q778.98-59.60 779.64-62.84L779.64-62.84L779.64-62.84Q780.29-66.08 780.48-66.83L780.48-66.83L780.48-66.83Q782.46-67.02 785.18-67.30L785.18-67.30L785.18-67.30Q787.91-67.59 790.26-67.77L790.26-67.77L790.26-67.77Q793.17-68.06 795.99-68.34L795.99-68.34L795.99-68.34Q793.55-56.96 791.67-47.75L791.67-47.75L791.67-47.75Q790.82-43.80 790.02-39.86L790.02-39.86L790.02-39.86Q789.22-35.91 788.52-32.62L788.52-32.62L788.52-32.62Q787.81-29.33 787.30-26.93L787.30-26.93L787.30-26.93Q786.78-24.53 786.45-23.03L786.45-23.03L786.45-23.03Q786.12-21.53 785.70-19.22L785.70-19.22L785.70-19.22Q785.28-16.92 785.28-15.04L785.28-15.04L785.28-15.04Q785.28-13.54 786.03-12.55L786.03-12.55L786.03-12.55Q786.78-11.56 787.91-11.56L787.91-11.56L787.91-11.56Q789.51-11.56 790.54-12.83L790.54-12.83L790.54-12.83Q791.57-14.10 792.28-15.89L792.28-15.89L792.28-15.89Q792.98-17.67 793.31-19.50L793.31-19.50L793.31-19.50Q793.64-21.34 793.92-22.37L793.92-22.37L793.92-22.37Q794.49-25.10 795.19-28.43L795.19-28.43L795.19-28.43Q795.90-31.77 796.60-35.39L796.60-35.39L796.60-35.39Q797.31-39.01 798.01-42.77L798.01-42.77L798.01-42.77Q798.72-46.53 799.38-50.10L799.38-50.10L799.38-50.10Q800.97-58.37 802.48-67.21L802.48-67.21L816.77-68.15L816.77-68.15Q816.77-68.15 816.30-65.71L816.30-65.71L816.30-65.71Q815.83-63.26 815.07-59.22L815.07-59.22L815.07-59.22Q814.32-55.18 813.43-50.01L813.43-50.01L813.43-50.01Q812.54-44.84 811.41-39.24L811.41-39.24L811.41-39.24Q810.28-33.65 809.20-28.25L809.20-28.25L809.20-28.25Q808.12-22.84 807.08-18.33L807.08-18.33ZM823.35-1.88L823.35-1.88Q822.50-1.88 820.01-1.65L820.01-1.65L820.01-1.65Q817.52-1.41 814.89-1.08L814.89-1.08L814.89-1.08Q812.25-0.75 810.14-0.47L810.14-0.47L810.14-0.47Q808.02-0.19 807.84-0.09L807.84-0.09L807.84-0.09Q808.78-4.14 809.76-9.07L809.76-9.07L809.76-9.07Q810.75-14.01 811.78-19.41L811.78-19.41L811.78-19.41Q812.82-24.82 813.76-30.36L813.76-30.36L813.76-30.36Q814.70-35.91 815.54-41.08L815.54-41.08L815.54-41.08Q817.52-53.11 819.49-65.80L819.49-65.80L834.16-68.15L834.16-68.15Q831.99-55.55 829.93-43.43L829.93-43.43L829.93-43.43Q829.08-38.26 828.19-32.71L828.19-32.71L828.19-32.71Q827.29-27.17 826.40-21.71L826.40-21.71L826.40-21.71Q825.51-16.26 824.76-11.14L824.76-11.14L824.76-11.14Q824.00-6.02 823.35-1.88L823.35-1.88ZM874.20-48.03L874.20-48.03Q874.20-43.15 872.79-37.65L872.79-37.65L872.79-37.65Q871.38-32.15 868.84-26.74L868.84-26.74L868.84-26.74Q866.30-21.34 862.59-16.40L862.59-16.40L862.59-16.40Q858.88-11.47 854.18-7.75L854.18-7.75L854.18-7.75Q849.48-4.04 843.88-1.79L843.88-1.79L843.88-1.79Q838.29 0.47 831.99 0.47L831.99 0.47L831.99 0.47Q830.68 0.47 829.36 0.33L829.36 0.33L829.36 0.33Q828.05 0.19 826.73 0L826.73 0L826.73 0Q829.27-12.97 831.71-25.29L831.71-25.29L831.71-25.29Q832.65-30.46 833.69-36.05L833.69-36.05L833.69-36.05Q834.72-41.64 835.66-47.09L835.66-47.09L835.66-47.09Q836.60-52.55 837.49-57.53L837.49-57.53L837.49-57.53Q838.39-62.51 838.95-66.55L838.95-66.55L838.95-66.55Q842.99-67.30 847.13-67.96L847.13-67.96L847.13-67.96Q851.26-68.62 855.59-68.62L855.59-68.62L855.59-68.62Q860.66-68.62 864.19-67.02L864.19-67.02L864.19-67.02Q867.71-65.42 869.92-62.60L869.92-62.60L869.92-62.60Q872.13-59.78 873.17-56.02L873.17-56.02L873.17-56.02Q874.20-52.26 874.20-48.03L874.20-48.03ZM852.02-55.37L852.02-55.37Q850.98-49.82 849.85-44.74L849.85-44.74L849.85-44.74Q848.73-39.67 847.60-34.50L847.60-34.50L847.60-34.50Q846.47-29.33 845.34-23.69L845.34-23.69L845.34-23.69Q844.21-18.05 843.18-11.37L843.18-11.37L843.18-11.37Q845.44-12.88 847.55-15.46L847.55-15.46L847.55-15.46Q849.67-18.05 851.55-21.43L851.55-21.43L851.55-21.43Q853.43-24.82 854.98-28.58L854.98-28.58L854.98-28.58Q856.53-32.34 857.66-35.91L857.66-35.91L857.66-35.91Q858.78-39.48 859.39-42.58L859.39-42.58L859.39-42.58Q860.01-45.68 860.01-47.94L860.01-47.94L860.01-47.94Q860.01-51.42 858.08-53.39L858.08-53.39L858.08-53.39Q856.15-55.37 852.02-55.37L852.02-55.37ZM898.92-4.61L868.56 0.09L880.87-66.74L910.58-69.28L910.58-69.28Q909.92-67.21 909.45-65.05L909.45-65.05L909.45-65.05Q908.98-63.26 908.56-61.34L908.56-61.34L908.56-61.34Q908.13-59.41 907.85-57.90L907.85-57.90L907.85-57.90Q906.91-57.81 905.17-57.76L905.17-57.76L905.17-57.76Q903.43-57.72 901.46-57.67L901.46-57.67L901.46-57.67Q899.49-57.62 897.46-57.62L897.46-57.62L897.46-57.62Q895.44-57.62 893.94-57.62L893.94-57.62L890.65-40.80L890.65-40.80Q893.56-40.98 896.10-41.08L896.10-41.08L896.10-41.08Q898.17-41.17 900.33-41.17L900.33-41.17L900.33-41.17Q902.49-41.17 903.53-41.27L903.53-41.27L903.53-41.27Q903.15-38.63 902.82-36.10L902.82-36.10L902.82-36.10Q902.49-33.56 902.02-30.93L902.02-30.93L902.02-30.93Q901.08-30.83 898.97-30.79L898.97-30.79L898.97-30.79Q896.85-30.74 894.69-30.64L894.69-30.64L894.69-30.64Q892.25-30.55 889.33-30.46L889.33-30.46L886.14-13.16L899.86-15.32L898.92-4.61Z" fill="url(#editing-shiny-gradient2)"></path></g></g><style>text {
  font-size: 64px;
  font-family: Arial Black;
  dominant-baseline: central;
  text-anchor: middle;
}</style></svg>